<?xml version="1.0" encoding="UTF-8"?>
<svg version="1.1" xmlns="http://www.w3.org/2000/svg" width="512" height="512">
<path d="M0 0 C6.3988369 2.16943459 10.53811939 9.23979329 14.46875 14.44140625 C25.19632179 27.09706933 43.80667218 35.68261769 60.12792969 37.07470703 C92.03348435 38.84108536 122.53322366 26.31474772 147.3828125 6.5703125 C148.77693359 5.47203125 148.77693359 5.47203125 150.19921875 4.3515625 C151.00746094 3.68125 151.81570312 3.0109375 152.6484375 2.3203125 C157.25205134 -0.04115927 161.9076053 0.18775085 166.88887024 1.45751953 C169.45992131 2.3334528 171.97735788 3.29777938 174.5 4.3046875 C175.45488815 4.67172791 176.40977631 5.03876831 177.39360046 5.41693115 C180.54274736 6.63117808 183.68323749 7.86636376 186.82421875 9.1015625 C189.05607601 9.96630242 191.28850954 10.82955631 193.52148438 11.69140625 C198.18613726 13.49425474 202.84749083 15.30527379 207.50634766 17.12304688 C214.20251867 19.73432319 220.90787288 22.32114438 227.6171875 24.8984375 C228.68213943 25.30753357 229.74709137 25.71662964 230.84431458 26.13812256 C232.99101604 26.96264879 235.13774959 27.78709148 237.28451538 28.6114502 C240.53710292 29.86131683 243.78882279 31.11341532 247.0402832 32.36621094 C261.84805474 38.07058417 276.67419806 43.72506637 291.51171875 49.3515625 C308.52984225 55.80495913 325.52825946 62.30748891 342.51171875 68.8515625 C366.86125803 78.23273079 391.24604927 87.51920169 415.64697266 96.76580811 C418.46663957 97.83447724 421.28609179 98.9037107 424.10546875 99.97314453 C428.42651912 101.61213937 432.74789613 103.25026926 437.0696106 104.88751221 C438.62459256 105.47664048 440.1795068 106.06594758 441.73434448 106.65545654 C443.85646542 107.45986222 445.97888814 108.26346217 448.1015625 109.06640625 C448.75064575 109.31198776 449.399729 109.55756927 450.06848145 109.81059265 C454.76913578 111.5838868 459.48827952 113.30055581 464.22460938 114.97607422 C472.75195324 118.24027737 479.03597593 123.50911113 485.51171875 129.8515625 C486.06730469 130.37105469 486.62289063 130.89054688 487.1953125 131.42578125 C490.97529434 135.32868933 493.31678816 139.98875721 495.76171875 144.7890625 C496.10348145 145.45752197 496.44524414 146.12598145 496.79736328 146.81469727 C500.85637557 155.10563941 501.85583117 162.53367199 501.82421875 171.7265625 C501.84033203 172.65597656 501.85644531 173.58539063 501.87304688 174.54296875 C501.88221947 187.69646364 496.99399881 199.31838371 488.13671875 209.0390625 C479.47693641 217.29024019 467.73732317 223.0590999 455.69921875 222.9140625 C454.72339844 222.90503906 453.74757813 222.89601563 452.7421875 222.88671875 C451.63810547 222.86931641 451.63810547 222.86931641 450.51171875 222.8515625 C450.53790283 223.70387451 450.56408691 224.55618652 450.59106445 225.43432617 C450.67653367 228.61183377 450.73908664 231.7887536 450.78637695 234.96704102 C450.81144492 236.33963352 450.84550957 237.71209352 450.88891602 239.08422852 C450.94989406 241.06206946 450.97532884 243.04090434 451 245.01953125 C451.02618408 246.20828857 451.05236816 247.3970459 451.0793457 248.62182617 C450.51171875 251.8515625 450.51171875 251.8515625 448.57714844 254.73925781 C444.32552917 257.66893366 441.02953286 257.55656779 435.9765625 257.48046875 C434.60305382 257.48408669 434.60305382 257.48408669 433.20179749 257.48777771 C431.27112485 257.48680049 429.34042377 257.47343666 427.40991211 257.44848633 C424.45525028 257.41413263 421.50357289 257.42784431 418.54882812 257.44726562 C416.67056019 257.44036814 414.79229997 257.43069664 412.9140625 257.41796875 C412.03169418 257.42292862 411.14932587 257.42788849 410.24021912 257.43299866 C404.12498912 257.3155324 404.12498912 257.3155324 400.98657227 254.94116211 C398.38978463 251.26198559 398.393797 249.03019046 398.4140625 244.53125 C398.41728516 243.27441406 398.42050781 242.01757812 398.42382812 240.72265625 C398.43220703 239.40394531 398.44058594 238.08523438 398.44921875 236.7265625 C398.45423386 235.38672039 398.45879674 234.0468765 398.46289062 232.70703125 C398.4747078 229.42185593 398.49264374 226.13670369 398.51171875 222.8515625 C390.26171875 222.8515625 382.01171875 222.8515625 373.51171875 222.8515625 C373.558125 224.97078125 373.60453125 227.09 373.65234375 229.2734375 C373.68356243 231.3320069 373.70783672 233.39054967 373.73144531 235.44921875 C373.75152857 236.87707371 373.77880127 238.30484675 373.81347656 239.73242188 C373.86214544 241.78796618 373.88471842 243.84242105 373.90234375 245.8984375 C373.92329102 247.13432617 373.94423828 248.37021484 373.96582031 249.64355469 C373.51171875 252.8515625 373.51171875 252.8515625 372.09082031 255.25292969 C368.13400228 257.70552761 364.42467754 257.42358546 359.85546875 257.3828125 C358.9161853 257.3866394 357.97690186 257.39046631 357.00915527 257.39440918 C355.02546109 257.39712826 353.04173105 257.38976734 351.05810547 257.37304688 C348.02229859 257.35163711 344.98885829 257.37284857 341.953125 257.3984375 C340.02473436 257.39579422 338.09634519 257.39066925 336.16796875 257.3828125 C335.2605896 257.39090942 334.35321045 257.39900635 333.41833496 257.40734863 C327.14848806 257.31408902 327.14848806 257.31408902 323.97070312 255.00585938 C321.40025063 251.21039873 321.39308726 248.12007062 321.4140625 243.65234375 C321.41728516 242.44384766 321.42050781 241.23535156 321.42382812 239.99023438 C321.43220703 238.72759766 321.44058594 237.46496094 321.44921875 236.1640625 C321.45373047 234.88982422 321.45824219 233.61558594 321.46289062 232.30273438 C321.47468992 229.1523238 321.49262557 226.00193731 321.51171875 222.8515625 C313.59171875 222.8515625 305.67171875 222.8515625 297.51171875 222.8515625 C297.54652344 224.74261719 297.58132813 226.63367188 297.6171875 228.58203125 C297.64532714 231.06769945 297.67262711 233.55337726 297.69921875 236.0390625 C297.73692383 237.90788086 297.73692383 237.90788086 297.77539062 239.81445312 C297.78505859 241.01650391 297.79472656 242.21855469 297.8046875 243.45703125 C297.82039795 244.56199951 297.8361084 245.66696777 297.85229492 246.80541992 C297.36093257 251.20020706 295.59336651 253.76991474 292.51171875 256.8515625 C290.66567993 257.11898804 290.66567993 257.11898804 288.40087891 257.14208984 C287.5530484 257.15484955 286.7052179 257.16760925 285.83169556 257.18075562 C284.91399384 257.18298126 283.99629211 257.18520691 283.05078125 257.1875 C282.10866791 257.1941568 281.16655457 257.2008136 280.19589233 257.20767212 C278.20027624 257.21780928 276.20462619 257.22248881 274.20898438 257.22216797 C271.15568055 257.22653538 268.10382855 257.26282764 265.05078125 257.30078125 C263.1132862 257.30665032 261.17578427 257.31061911 259.23828125 257.3125 C258.32462799 257.32687103 257.41097473 257.34124207 256.46963501 257.35604858 C250.16866459 257.31065586 250.16866459 257.31065586 246.96630859 255.07275391 C241.15618442 246.20056362 244.51171875 230.86336621 244.51171875 222.8515625 C216.79171875 222.8515625 189.07171875 222.8515625 160.51171875 222.8515625 C160.51171875 232.4215625 160.51171875 241.9915625 160.51171875 251.8515625 C154.88558194 257.47769931 154.88558194 257.47769931 151.15209961 257.48266602 C150.32451645 257.49519913 149.49693329 257.50773224 148.64427185 257.52064514 C147.32375572 257.50075783 147.32375572 257.50075783 145.9765625 257.48046875 C145.06089005 257.48288071 144.14521759 257.48529266 143.20179749 257.48777771 C141.27112485 257.48680049 139.34042377 257.47343666 137.40991211 257.44848633 C134.45525028 257.41413263 131.50357289 257.42784431 128.54882812 257.44726562 C126.67056019 257.44036814 124.79229997 257.43069664 122.9140625 257.41796875 C122.03169418 257.42292862 121.14932587 257.42788849 120.24021912 257.43299866 C114.12498912 257.3155324 114.12498912 257.3155324 110.98657227 254.94116211 C108.38978463 251.26198559 108.393797 249.03019046 108.4140625 244.53125 C108.41889648 242.64599609 108.41889648 242.64599609 108.42382812 240.72265625 C108.43639648 238.74458984 108.43639648 238.74458984 108.44921875 236.7265625 C108.45423386 235.38672039 108.45879674 234.0468765 108.46289062 232.70703125 C108.4747078 229.42185593 108.49264374 226.13670369 108.51171875 222.8515625 C100.26171875 222.8515625 92.01171875 222.8515625 83.51171875 222.8515625 C83.558125 224.88699219 83.60453125 226.92242187 83.65234375 229.01953125 C83.68016808 231.00201459 83.70784648 232.98450287 83.73144531 234.96704102 C83.75149865 236.33956273 83.77874903 237.71199967 83.81347656 239.08422852 C83.86226427 241.06228294 83.88260751 243.04097369 83.90234375 245.01953125 C83.93376465 246.80266724 83.93376465 246.80266724 83.96582031 248.62182617 C83.39212178 252.70217989 82.7148698 254.22815632 79.51171875 256.8515625 C76.28988045 257.57359939 73.14582473 257.52854593 69.85546875 257.48046875 C68.44654358 257.48408669 68.44654358 257.48408669 67.00915527 257.48777771 C65.02542901 257.48679924 63.04167545 257.47340555 61.05810547 257.44848633 C58.02216816 257.41418058 54.98914188 257.42782606 51.953125 257.44726562 C50.0247272 257.44036705 48.0963369 257.43069456 46.16796875 257.41796875 C45.2605896 257.42292862 44.35321045 257.42788849 43.41833496 257.43299866 C37.15021812 257.3158978 37.15021812 257.3158978 33.97070312 255.00366211 C31.39888447 251.21005745 31.39309235 248.11898507 31.4140625 243.65234375 C31.41728516 242.44384766 31.42050781 241.23535156 31.42382812 239.99023438 C31.43639648 238.0962793 31.43639648 238.0962793 31.44921875 236.1640625 C31.45373047 234.88982422 31.45824219 233.61558594 31.46289062 232.30273438 C31.47469002 229.15229686 31.49115278 226.00195301 31.51171875 222.8515625 C30.70637695 222.8812915 29.90103516 222.91102051 29.07128906 222.94165039 C27.47172363 222.97633423 27.47172363 222.97633423 25.83984375 223.01171875 C24.78700195 223.04144775 23.73416016 223.07117676 22.64941406 223.10180664 C17.31653001 222.67648715 13.67358151 220.02920096 9.51171875 216.8515625 C8.78984375 216.31015625 8.06796875 215.76875 7.32421875 215.2109375 C-2.58811975 207.17593584 -8.65680167 195.40491362 -10.48828125 182.8515625 C-10.79223184 177.08566955 -10.78276247 171.32612013 -10.77880859 165.5534668 C-10.78479992 163.80495417 -10.79160685 162.05644418 -10.79916382 160.30793762 C-10.81675824 155.58106574 -10.8215161 150.85426634 -10.82279539 146.12736487 C-10.82421997 143.1732437 -10.82849513 140.2191408 -10.83378983 137.26502419 C-10.85226034 126.95751403 -10.86046318 116.65005546 -10.85888672 106.3425293 C-10.85768245 96.73397791 -10.87884824 87.1256501 -10.91037405 77.51715535 C-10.9364969 69.26134264 -10.94725587 61.00560322 -10.9459759 52.74974948 C-10.94546558 47.82117602 -10.95118884 42.89280192 -10.972332 37.96426964 C-10.99165004 33.33565714 -10.99188327 28.70743577 -10.97729874 24.07880974 C-10.97520231 22.37922852 -10.97996095 20.67962319 -10.99201965 18.98008347 C-11.00739948 16.66278726 -10.99821422 14.34685254 -10.98275757 12.02958679 C-10.9838471 10.73233012 -10.98493664 9.43507345 -10.98605919 8.09850597 C-10.01622631 1.77240693 -5.95797535 -0.21665365 0 0 Z M154.32421875 24.1640625 C125.13722739 46.26171728 88.71348193 58.91975756 52.03125 54.3828125 C34.99465188 51.36684993 21.67164211 43.29151141 7.51171875 33.8515625 C7.51171875 46.3915625 7.51171875 58.9315625 7.51171875 71.8515625 C13.42078125 74.4503125 13.42078125 74.4503125 19.44921875 77.1015625 C32.9399519 83.07654629 46.25876027 89.3657011 59.51171875 95.8515625 C60.4641748 96.3141748 61.41663086 96.77678711 62.39794922 97.25341797 C73.78284478 102.7896256 84.90835973 108.6193991 95.81347656 115.05664062 C96.63428711 115.53810547 97.45509766 116.01957031 98.30078125 116.515625 C99.01959473 116.94311035 99.7384082 117.3705957 100.47900391 117.81103516 C102.56223585 118.87742172 104.1808866 119.59847227 106.51171875 119.8515625 C108.24813002 119.01295535 108.24813002 119.01295535 109.8046875 117.5625 C110.42601563 117.03978516 111.04734375 116.51707031 111.6875 115.97851562 C112.35136719 115.40037109 113.01523438 114.82222656 113.69921875 114.2265625 C115.13869307 113.01332909 116.58016308 111.80246028 118.0234375 110.59375 C118.76513184 109.96952148 119.50682617 109.34529297 120.27099609 108.70214844 C123.77084277 105.81166709 127.38697748 103.08256634 131.01171875 100.3515625 C137.37268227 95.53441611 143.59640883 90.57554353 149.76904297 85.52001953 C154.87328249 81.34727524 160.06428929 77.30835514 165.3046875 73.30859375 C168.71026104 70.70753589 172.08206548 68.06458179 175.44921875 65.4140625 C176.03002197 64.95700928 176.6108252 64.49995605 177.20922852 64.02905273 C178.97714645 62.63708966 180.74453149 61.24445306 182.51171875 59.8515625 C191.46735784 52.79276037 200.45823104 45.78454894 209.51171875 38.8515625 C205.70943131 35.47418729 201.2425803 34.04540966 196.546875 32.3125 C195.67655136 31.98617584 194.80622772 31.65985168 193.90953064 31.32363892 C192.07245004 30.63644837 190.23416652 29.9524662 188.39477539 29.27148438 C185.58503179 28.23056837 182.77960789 27.1786268 179.97460938 26.125 C178.18644322 25.45767564 176.39803946 24.79098758 174.609375 24.125 C173.77277847 23.81146576 172.93618195 23.49793152 172.07423401 23.17489624 C162.73884723 19.60337681 162.73884723 19.60337681 154.32421875 24.1640625 Z M223.13671875 50.2265625 C222.0551717 51.15442995 220.9717779 52.08014834 219.88671875 53.00390625 C219.32855469 53.47940918 218.77039063 53.95491211 218.1953125 54.44482422 C215.569274 56.63902866 212.85998905 58.71761449 210.13671875 60.7890625 C205.58957103 64.25650972 201.06707088 67.75145754 196.57421875 71.2890625 C195.9930127 71.74659912 195.41180664 72.20413574 194.81298828 72.67553711 C193.63446244 73.60366286 192.45607726 74.53196726 191.27783203 75.46044922 C188.35800827 77.76030487 185.43469982 80.05572195 182.51171875 82.3515625 C181.34503514 83.2682076 180.17836848 84.18487427 179.01171875 85.1015625 C168.51171875 93.3515625 168.51171875 93.3515625 158.01171875 101.6015625 C157.14522705 102.2824292 157.14522705 102.2824292 156.26123047 102.97705078 C155.09632698 103.89226243 153.93128822 104.80730194 152.76611328 105.72216797 C149.8213283 108.03469271 146.8790669 110.35030484 143.94140625 112.671875 C136.54546502 118.51072272 129.08017807 124.23759542 121.51171875 129.8515625 C125.2899121 133.86092638 129.30756468 137.02426693 133.82421875 140.1640625 C134.79198242 140.8456543 134.79198242 140.8456543 135.77929688 141.54101562 C137.35369017 142.64892202 138.93227521 143.75086775 140.51171875 144.8515625 C145.83335803 140.91951107 151.02389604 136.86314782 156.13671875 132.6640625 C161.22254869 128.50810445 166.33392589 124.39238531 171.51171875 120.3515625 C176.56028889 116.40975545 181.54934533 112.40131552 186.51171875 108.3515625 C192.0351156 103.84396277 197.60356311 99.40313608 203.22265625 95.015625 C207.6960885 91.51379795 212.11029429 87.94333571 216.51171875 84.3515625 C221.52000503 80.2663297 226.55051882 76.21445889 231.63671875 72.2265625 C232.19633301 71.78707275 232.75594727 71.34758301 233.33251953 70.89477539 C236.37433904 68.51065843 239.42936768 66.14496655 242.49609375 63.79296875 C243.14690918 63.29039551 243.79772461 62.78782227 244.46826172 62.27001953 C245.72366882 61.30090532 246.9829779 60.33681973 248.24658203 59.37841797 C249.70536738 58.24913066 251.11418355 57.05582156 252.51171875 55.8515625 C252.51171875 55.1915625 252.51171875 54.5315625 252.51171875 53.8515625 C249.0773366 52.51009756 245.63873458 51.17980345 242.19921875 49.8515625 C241.22275391 49.47 240.24628906 49.0884375 239.24023438 48.6953125 C238.30244141 48.334375 237.36464844 47.9734375 236.3984375 47.6015625 C235.53436279 47.26640625 234.67028809 46.93125 233.7800293 46.5859375 C228.64112077 44.92219443 226.97718316 46.88031335 223.13671875 50.2265625 Z M267.89453125 65.52734375 C266.87153931 66.38984741 266.87153931 66.38984741 265.82788086 67.26977539 C265.10479736 67.89489014 264.38171387 68.52000488 263.63671875 69.1640625 C262.10007415 70.46225942 260.56229896 71.75911918 259.0234375 73.0546875 C258.25950684 73.70115234 257.49557617 74.34761719 256.70849609 75.01367188 C253.67566413 77.55103118 250.57344971 79.99080988 247.44921875 82.4140625 C242.41880037 86.33199842 237.4511575 90.31954845 232.51171875 94.3515625 C226.98838218 98.85923464 221.41987278 103.29999017 215.80078125 107.6875 C211.32735167 111.18932497 206.91304673 114.75967414 202.51171875 118.3515625 C196.99196107 122.85619233 191.42750092 127.29451929 185.81176758 131.67871094 C180.53738642 135.80707408 175.3459579 140.0343077 170.15625 144.26831055 C165.32952836 148.20134941 160.45982871 152.07175628 155.51171875 155.8515625 C157.10504929 159.71719966 159.61580644 162.18999347 162.51171875 165.1640625 C172.20929665 175.47799824 179.02133006 186.41781635 183.51171875 199.8515625 C184.50171875 202.3265625 184.50171875 202.3265625 185.51171875 204.8515625 C200.03171875 204.8515625 214.55171875 204.8515625 229.51171875 204.8515625 C230.83171875 199.9015625 232.15171875 194.9515625 233.51171875 189.8515625 C234.71436813 186.94536648 235.84865875 184.33284737 237.32421875 181.6015625 C237.84568481 180.60527832 237.84568481 180.60527832 238.37768555 179.58886719 C239.39997941 177.66306959 240.44832374 175.75491544 241.51171875 173.8515625 C242.06859375 172.85125 242.62546875 171.8509375 243.19921875 170.8203125 C247.70673135 163.27889719 253.44859262 157.14160203 259.51171875 150.8515625 C260.0840625 150.21605469 260.65640625 149.58054687 261.24609375 148.92578125 C271.22082389 138.15410102 284.61667872 130.55698332 297.51171875 123.8515625 C298.13111328 123.52091797 298.75050781 123.19027344 299.38867188 122.84960938 C321.07209124 111.38088178 345.66481769 104.99225016 369.51171875 99.8515625 C366.59145281 96.93129656 362.93325097 95.97578107 359.125 94.5703125 C357.8209874 94.08122658 357.8209874 94.08122658 356.4906311 93.58226013 C353.60365025 92.50041645 350.71397025 91.42598115 347.82421875 90.3515625 C343.73730624 88.82421404 339.65177866 87.29318123 335.56640625 85.76171875 C334.5074968 85.36529678 333.44858734 84.96887482 332.35758972 84.56044006 C324.62309241 81.65953648 316.91064253 78.7045226 309.20703125 75.72265625 C308.13235092 75.30742706 307.05767059 74.89219788 305.95042419 74.46438599 C301.74383801 72.83884847 297.53732521 71.21326906 293.33560181 69.57519531 C290.42648082 68.4414218 287.51436115 67.31569065 284.6015625 66.19140625 C283.73689362 65.8516124 282.87222473 65.51181854 281.98135376 65.16172791 C281.18434052 64.85562088 280.38732727 64.54951385 279.56616211 64.23413086 C278.53065468 63.83139198 278.53065468 63.83139198 277.47422791 63.42051697 C273.22985371 62.19002301 271.0802913 62.79468283 267.89453125 65.52734375 Z M7.51171875 91.8515625 C7.41885995 103.56098411 7.34787309 115.27031748 7.30447006 126.98003292 C7.28363416 132.4178923 7.25538947 137.85549894 7.20996094 143.29321289 C7.16636077 148.54520195 7.1425516 153.79694856 7.13220978 159.04910469 C7.12484383 161.04849626 7.11045995 163.04787521 7.08879852 165.04716301 C7.05957615 167.85716857 7.05577059 170.66618425 7.05761719 173.47631836 C7.04323608 174.29487808 7.02885498 175.11343781 7.01403809 175.95680237 C7.07279837 184.27138235 10.43727699 191.32728023 15.51171875 197.8515625 C20.36863746 202.50110715 23.28289813 204.97786657 30.14309692 204.97181702 C31.34065613 204.97319168 32.53821533 204.97456635 33.77206421 204.97598267 C35.10601831 204.97244331 36.43997217 204.9688085 37.77392578 204.96508789 C39.17321775 204.96480594 40.57250987 204.96496392 41.97180176 204.9655304 C45.77735997 204.96581804 49.58288684 204.95992656 53.38843775 204.95295644 C57.36295063 204.9467175 61.33746418 204.94611867 65.3119812 204.94493103 C72.84135619 204.94181931 80.37071672 204.93360806 87.90008533 204.92358154 C96.47070426 204.91241547 105.04132386 204.9069087 113.61194825 204.90188611 C131.2452133 204.89142533 148.87846486 204.87382896 166.51171875 204.8515625 C166.04354012 203.40963307 165.57213173 201.96875204 165.09936523 200.52832031 C164.83719711 199.72581848 164.57502899 198.92331665 164.30491638 198.09649658 C157.02860642 177.50284431 133.55522814 161.02064519 116.51171875 148.8515625 C115.94743164 148.44647461 115.38314453 148.04138672 114.80175781 147.62402344 C64.00516925 110.99508306 64.00516925 110.99508306 7.51171875 91.8515625 Z M267.26171875 168.1640625 C257.8202636 178.9564901 250.92873319 190.82007229 247.51171875 204.8515625 C274.84996072 204.94505069 302.18817869 205.01556379 329.52654839 205.05881119 C342.2205528 205.07942645 354.91445782 205.10752741 367.60839844 205.15332031 C378.67389306 205.19321959 389.7393157 205.21900284 400.80488026 205.22791648 C406.66270367 205.23312594 412.52032113 205.24534883 418.37807846 205.27448273 C423.89544122 205.30170045 429.41251384 205.30999455 434.92993736 205.30399323 C436.95112499 205.30509061 438.97232265 205.31300638 440.99345207 205.3283844 C454.72234528 205.42768904 465.09037421 204.96071175 475.53125 195.07421875 C483.57329613 186.04872714 484.1870653 176.56366909 483.68212891 164.97998047 C482.90466448 155.26947203 478.31475254 147.60775957 471.51171875 140.8515625 C463.19823788 133.87680641 453.74642575 130.14578288 443.57421875 126.7265625 C437.54247537 124.67084113 431.57115734 122.50920017 425.640625 120.17578125 C424.47845459 119.71896973 423.31628418 119.2621582 422.11889648 118.79150391 C419.83242412 117.88704642 417.54924307 116.97421482 415.26977539 116.05224609 C414.21781982 115.63668457 413.16586426 115.22112305 412.08203125 114.79296875 C411.15148926 114.41857666 410.22094727 114.04418457 409.26220703 113.65844727 C367.54675823 101.4207801 295.01258789 138.9526213 267.26171875 168.1640625 Z M49.51171875 222.8515625 C49.51171875 228.1315625 49.51171875 233.4115625 49.51171875 238.8515625 C54.79171875 238.8515625 60.07171875 238.8515625 65.51171875 238.8515625 C65.51171875 233.5715625 65.51171875 228.2915625 65.51171875 222.8515625 C60.23171875 222.8515625 54.95171875 222.8515625 49.51171875 222.8515625 Z M126.51171875 222.8515625 C126.51171875 228.1315625 126.51171875 233.4115625 126.51171875 238.8515625 C131.79171875 238.8515625 137.07171875 238.8515625 142.51171875 238.8515625 C142.51171875 233.5715625 142.51171875 228.2915625 142.51171875 222.8515625 C137.23171875 222.8515625 131.95171875 222.8515625 126.51171875 222.8515625 Z M263.51171875 222.8515625 C263.51171875 228.1315625 263.51171875 233.4115625 263.51171875 238.8515625 C268.79171875 238.8515625 274.07171875 238.8515625 279.51171875 238.8515625 C279.51171875 233.5715625 279.51171875 228.2915625 279.51171875 222.8515625 C274.23171875 222.8515625 268.95171875 222.8515625 263.51171875 222.8515625 Z M339.51171875 222.8515625 C339.51171875 228.1315625 339.51171875 233.4115625 339.51171875 238.8515625 C344.79171875 238.8515625 350.07171875 238.8515625 355.51171875 238.8515625 C355.51171875 233.5715625 355.51171875 228.2915625 355.51171875 222.8515625 C350.23171875 222.8515625 344.95171875 222.8515625 339.51171875 222.8515625 Z M416.51171875 222.8515625 C416.51171875 228.1315625 416.51171875 233.4115625 416.51171875 238.8515625 C421.79171875 238.8515625 427.07171875 238.8515625 432.51171875 238.8515625 C432.51171875 233.5715625 432.51171875 228.2915625 432.51171875 222.8515625 C427.23171875 222.8515625 421.95171875 222.8515625 416.51171875 222.8515625 Z " fill="#000000" transform="translate(10.48828125,127.1484375)"/>
</svg>
