<?xml version="1.0" standalone="no"?>
<!DOCTYPE svg PUBLIC "-//W3C//DTD SVG 20010904//EN"
 "http://www.w3.org/TR/2001/REC-SVG-20010904/DTD/svg10.dtd">
<svg version="1.0" xmlns="http://www.w3.org/2000/svg"
 width="512.000000pt" height="512.000000pt" viewBox="0 0 512.000000 512.000000"
 preserveAspectRatio="xMidYMid meet">

<g transform="translate(0.000000,512.000000) scale(0.100000,-0.100000)"
fill="#000000" stroke="none">
<path d="M2335 4306 c-43 -19 -84 -71 -91 -115 l-6 -38 -225 -7 c-431 -13
-822 -44 -1078 -87 -335 -56 -515 -132 -582 -246 l-28 -48 0 -1040 0 -1040 27
-50 c47 -89 155 -178 291 -239 380 -173 1078 -271 1922 -270 450 0 756 19
1120 70 604 84 976 234 1083 438 l27 51 0 1050 0 1050 -28 59 c-38 82 -84 135
-164 190 -161 109 -440 185 -843 230 -423 47 -1352 74 -1425 42z m935 -326
c682 -37 1074 -116 1181 -237 16 -19 29 -40 29 -47 0 -17 -61 -59 -133 -91
-96 -42 -281 -94 -462 -130 -232 -46 -421 -69 -792 -99 l-53 -5 0 310 0 309
23 0 c12 0 105 -5 207 -10z m-550 -382 l0 -241 -312 6 c-449 10 -801 42 -1128
103 -244 45 -471 113 -568 170 -52 31 -51 32 58 63 284 79 963 133 1763 139
l187 2 0 -242z m-1945 -333 c356 -129 942 -207 1655 -222 749 -15 1534 78
1941 231 53 20 100 36 103 36 3 0 6 -348 6 -774 l0 -773 -37 -26 c-157 -108
-604 -213 -1114 -262 -534 -50 -1202 -43 -1716 20 -432 53 -799 147 -935 242
l-38 26 0 775 c0 733 1 774 18 769 9 -3 62 -22 117 -42z"/>
<path d="M2335 2866 c-40 -18 -231 -213 -244 -249 -17 -46 -15 -719 3 -760 7
-18 63 -80 122 -139 84 -81 117 -108 144 -113 19 -3 157 -5 307 -3 256 3 273
4 299 24 61 45 69 66 72 192 4 137 -6 179 -53 221 -88 77 -228 36 -257 -75
l-12 -44 -126 0 -126 0 -32 33 -32 33 0 255 0 255 33 32 33 32 125 0 125 0 12
-44 c29 -111 169 -152 257 -75 47 42 57 84 53 221 -3 126 -11 147 -72 192 -26
20 -42 21 -314 23 -227 2 -293 0 -317 -11z"/>
</g>
</svg>
