<?xml version="1.0" encoding="UTF-8"?>
<svg version="1.1" xmlns="http://www.w3.org/2000/svg" width="120" height="120">
<path d="M0 0 C2.10000512 1.28636677 3.99464236 2.70495697 5.9296875 4.23046875 C8.02178436 5.85455992 10.11843581 7.46138147 12.2421875 9.04296875 C12.82403809 9.47697998 13.40588867 9.91099121 14.00537109 10.3581543 C19.6887608 14.40582575 25.80028078 16.95371378 32.35668945 19.27856445 C39.12135161 21.81166916 42.77750282 25.43852432 46.32421875 31.6875 C47.15037464 35.15735475 46.92787677 38.40373715 46.6171875 41.91796875 C46.56522217 42.63275391 46.51325684 43.34753906 46.4597168 44.08398438 C46.17754535 47.82370791 45.76108974 51.51588809 45.2421875 55.23046875 C44.59766018 60.99215236 45.60600638 66.6084957 46.45703125 72.30078125 C47.81901612 83.62439101 47.81901612 83.62439101 45.3046875 88.41796875 C45.00304687 89.03027344 44.70140625 89.64257812 44.390625 90.2734375 C40.0095422 96.14221419 34.69818229 98.33971603 28.0546875 100.79296875 C18.6825547 104.46147626 11.24229498 109.60515029 3.55102539 116.02880859 C-1.92094576 120.08437884 -7.46818819 120.02786818 -14.0703125 119.23046875 C-17.16302222 118.08091438 -19.48881588 116.26300036 -22.0703125 114.23046875 C-24.2049255 112.5871776 -26.34397134 110.95931709 -28.5078125 109.35546875 C-29.09554443 108.91960449 -29.68327637 108.48374023 -30.28881836 108.03466797 C-34.94195987 104.72393283 -39.68775942 102.51813306 -45.0078125 100.48046875 C-52.52976522 97.59093305 -57.79998191 95.18523817 -62.0078125 87.85546875 C-63.77871498 81.81356618 -63.13410352 76.07361423 -62.25732422 69.93896484 C-61.07533333 61.57254105 -61.18343273 54.20567952 -62.5625 45.87890625 C-63.30956906 40.51150237 -64.05176879 35.01218825 -61.4453125 30.04296875 C-61.14367188 29.43066406 -60.84203125 28.81835938 -60.53125 28.1875 C-56.1501672 22.31872331 -50.83880729 20.12122147 -44.1953125 17.66796875 C-34.8231797 13.99946124 -27.38291998 8.85578721 -19.69165039 2.43212891 C-14.05566347 -1.74500219 -6.59902552 -2.45284533 0 0 Z M-36.3828125 26.48046875 C-45.4194401 35.72725048 -51.20876519 47.11702124 -51.0703125 60.23046875 C-50.35688762 71.38721946 -46.15038917 82.33403019 -38.0703125 90.23046875 C-28.14363734 98.40643938 -17.13673211 102.87417177 -4.19921875 102.046875 C6.88256133 100.64904318 17.52942612 95.78707748 24.69921875 87.08203125 C32.54167519 76.61441571 36.00815324 65.36477447 34.3671875 52.35546875 C32.19912233 40.98777569 26.51075614 31.50275992 17.3046875 24.60546875 C0.10109124 13.06833891 -19.78994618 14.1128416 -36.3828125 26.48046875 Z " fill="#32B5FF" transform="translate(68.0703125,0.76953125)"/>
<path d="M0 0 C2.30907442 3.13374385 2.50854116 5.42576026 2.3203125 9.265625 C1.75 11.375 1.75 11.375 -1.1875 13.625 C-2.198125 14.2025 -3.20875 14.78 -4.25 15.375 C-5.21219702 18.00266389 -5.21219702 18.00266389 -5.25 20.375 C-1.785 18.395 -1.785 18.395 1.75 16.375 C2.24046322 21.77009537 2.24046322 21.77009537 -0.125 24.6875 C-2.25 26.375 -2.25 26.375 -4.25 27.375 C-4.90555119 29.90233235 -4.90555119 29.90233235 -5.25 32.375 C-1.785 30.395 -1.785 30.395 1.75 28.375 C2.0827958 32.03575376 2.21170299 33.77000988 -0.0625 36.75 C-2.25 38.375 -2.25 38.375 -5.25 38.375 C-4.755 40.85 -4.755 40.85 -4.25 43.375 C-2.27 42.385 -0.29 41.395 1.75 40.375 C2.0625 43.125 2.0625 43.125 1.75 46.375 C-2.29215778 51.42769723 -9.0868502 52.67265478 -15.25 53.375 C-28.08036206 54.22459749 -41.95221429 55.00261126 -53.5 48.5625 C-55.25 46.375 -55.25 46.375 -55.5625 43.125 C-55.459375 42.2175 -55.35625 41.31 -55.25 40.375 C-51.785 42.355 -51.785 42.355 -48.25 44.375 C-48.25 42.395 -48.25 40.415 -48.25 38.375 C-48.848125 38.271875 -49.44625 38.16875 -50.0625 38.0625 C-52.67368447 37.24184202 -53.69318272 36.63238505 -55.25 34.375 C-55.4375 31.1875 -55.4375 31.1875 -55.25 28.375 C-51.785 30.355 -51.785 30.355 -48.25 32.375 C-48.28780298 30.00266389 -48.28780298 30.00266389 -49.25 27.375 C-50.260625 26.75625 -51.27125 26.1375 -52.3125 25.5 C-53.281875 24.79875 -54.25125 24.0975 -55.25 23.375 C-55.625 19.625 -55.625 19.625 -55.25 16.375 C-51.785 18.355 -51.785 18.355 -48.25 20.375 C-48.28780298 18.00266389 -48.28780298 18.00266389 -49.25 15.375 C-50.260625 14.7975 -51.27125 14.22 -52.3125 13.625 C-55.25 11.375 -55.25 11.375 -55.8203125 9.265625 C-56.00854116 5.42576026 -55.80907442 3.13374385 -53.5 0 C-38.24075945 -7.62962027 -15.25924055 -7.62962027 0 0 Z M-50.25 7.375 C-39.55080744 14.50779504 -24.41014668 12.86117641 -12.36328125 11.0078125 C-9.21155623 10.36718583 -6.27657763 9.45494824 -3.25 8.375 C-3.25 8.045 -3.25 7.715 -3.25 7.375 C-18.76 7.375 -34.27 7.375 -50.25 7.375 Z M-36.5 23.5 C-38.87679537 27.40473525 -39.45086134 30.82749934 -39.25 35.375 C-37.65508207 40.07114723 -35.50556334 42.82166199 -31.25 45.375 C-25.05843896 46.87295831 -21.85173629 46.29257098 -16.25 43.375 C-16.25 42.385 -16.25 41.395 -16.25 40.375 C-16.91 39.715 -17.57 39.055 -18.25 38.375 C-20.23732886 38.66821246 -22.22458548 38.96196017 -24.2109375 39.26171875 C-26.25 39.375 -26.25 39.375 -29.1875 38.25 C-31.25 36.375 -31.25 36.375 -32.1875 34 C-32.2605151 30.93336563 -31.67631245 29.07748675 -30.25 26.375 C-27.5040274 25.0020137 -25.2910953 25.25087366 -22.25 25.375 C-21.26 25.705 -20.27 26.035 -19.25 26.375 C-18.26 25.385 -17.27 24.395 -16.25 23.375 C-17.04117904 21.37516466 -17.04117904 21.37516466 -18.25 19.375 C-25.81889142 16.85203619 -30.84169213 18.15604257 -36.5 23.5 Z " fill="#32B5FF" transform="translate(87.25,35.625)"/>
</svg>
