<?xml version="1.0" standalone="no"?>
<!DOCTYPE svg PUBLIC "-//W3C//DTD SVG 20010904//EN"
 "http://www.w3.org/TR/2001/REC-SVG-20010904/DTD/svg10.dtd">
<svg version="1.0" xmlns="http://www.w3.org/2000/svg"
 width="512.000000pt" height="512.000000pt" viewBox="0 0 512.000000 512.000000"
 preserveAspectRatio="xMidYMid meet">

<g transform="translate(0.000000,512.000000) scale(0.100000,-0.100000)"
fill="#000000" stroke="none">
<path d="M2885 3793 c-11 -3 -119 -32 -240 -64 -245 -66 -280 -84 -330 -164
-26 -42 -30 -58 -30 -119 1 -85 24 -136 85 -188 44 -39 97 -58 156 -58 22 0
128 18 238 40 l199 39 67 -46 c62 -44 67 -51 77 -98 5 -27 11 -56 14 -64 3
-10 -32 -28 -123 -62 l-126 -48 -334 -26 c-397 -31 -390 -30 -425 -59 -25 -21
-48 -25 -208 -40 -99 -9 -208 -23 -242 -30 l-62 -13 -12 56 c-25 123 -117 245
-229 301 -261 132 -574 -21 -630 -308 -7 -34 -10 -84 -8 -111 l5 -49 -56 -11
c-157 -31 -262 -155 -262 -311 -1 -118 58 -217 163 -276 51 -28 59 -29 198
-32 196 -5 315 8 382 41 40 19 114 36 293 66 205 34 276 41 482 49 218 9 247
8 305 -8 35 -10 87 -21 116 -25 29 -4 54 -10 57 -15 10 -17 -31 -111 -98 -220
-39 -63 -71 -116 -72 -118 -2 -2 -58 18 -126 44 -97 36 -130 53 -152 79 -15
18 -85 75 -155 127 -127 93 -127 93 -187 93 -46 0 -67 -5 -91 -22 -35 -25
-289 -421 -312 -487 -28 -82 2 -182 77 -249 48 -43 93 -57 187 -57 84 0 145
17 214 59 l51 31 207 -114 c114 -62 225 -119 247 -126 61 -20 180 -16 248 8
105 38 148 79 263 254 58 87 107 165 110 172 4 10 23 12 72 9 54 -3 71 0 89
14 12 10 71 104 132 208 l110 190 268 67 268 66 55 -52 c30 -28 65 -58 77 -66
21 -14 23 -24 29 -177 6 -136 5 -163 -7 -163 -52 0 -530 -52 -556 -61 -82 -26
-153 -114 -168 -206 -16 -100 54 -219 156 -262 49 -21 59 -22 432 -19 l382 3
57 27 c77 36 121 70 164 129 63 86 71 127 99 478 31 395 31 406 -1 571 -28
147 -51 210 -107 283 -21 26 -37 49 -37 52 0 2 54 40 119 85 65 44 136 99 156
122 77 84 116 219 96 330 -20 113 -50 158 -230 341 -91 93 -178 175 -193 183
-50 26 -109 18 -174 -24 -62 -41 -98 -85 -136 -167 -18 -39 -23 -69 -24 -138
l-1 -88 -47 -39 -47 -39 -70 80 c-75 85 -105 105 -184 124 -36 8 -107 49 -250
142 -129 84 -219 137 -254 147 -51 15 -161 20 -206 9z m170 -163 c15 -6 93
-53 173 -106 l146 -96 -90 -49 c-49 -27 -94 -49 -101 -49 -7 0 -49 25 -93 55
-47 32 -92 55 -108 55 -15 1 -124 -18 -242 -41 -135 -27 -225 -40 -242 -36
-29 8 -58 51 -58 86 0 11 10 32 23 46 18 21 59 36 237 84 217 60 301 72 355
51z m1467 -325 c15 -28 22 -59 22 -105 0 -75 -22 -126 -76 -176 -35 -33 -92
-74 -102 -74 -3 0 -6 29 -6 64 0 36 -5 77 -11 93 -5 15 -57 75 -114 133 -58
59 -111 121 -120 142 -31 75 -14 158 46 220 l40 42 150 -149 c83 -83 160 -168
171 -190z m-892 -5 c8 -10 32 -38 54 -64 l38 -46 -37 -41 c-20 -23 -51 -71
-69 -108 -27 -58 -31 -77 -31 -151 0 -76 3 -92 33 -152 39 -81 113 -149 190
-178 105 -39 255 -20 353 45 l38 24 29 -37 c48 -61 62 -98 88 -230 13 -69 24
-131 24 -138 0 -8 -54 -13 -174 -18 -202 -8 -200 -9 -286 78 -36 38 -65 58
-87 62 -24 5 -111 -13 -304 -61 -154 -39 -274 -64 -278 -59 -5 5 -55 143 -112
307 -84 246 -100 300 -88 307 8 5 55 24 104 41 136 49 174 69 190 100 27 51
19 83 -36 160 -7 9 -9 24 -6 33 4 10 75 50 159 91 161 77 171 79 208 35z m482
-167 l87 -88 6 -101 7 -100 -66 -52 c-91 -72 -124 -90 -171 -98 -118 -17 -234
82 -235 202 0 73 39 129 162 232 62 50 114 92 118 92 3 0 44 -39 92 -87z
m-2862 -109 c105 -31 190 -149 190 -264 0 -150 -130 -280 -280 -280 -150 0
-280 130 -280 280 0 149 126 277 276 279 22 1 64 -6 94 -15z m1578 -241 c5
-10 62 -163 127 -340 l117 -323 -87 -150 c-48 -82 -91 -152 -96 -156 -8 -5
-344 148 -361 165 -4 4 8 52 28 106 31 87 34 104 25 136 -18 61 -45 76 -192
110 -74 17 -135 32 -137 34 -5 4 -24 376 -20 381 2 2 132 14 289 28 156 13
287 24 291 25 4 0 11 -7 16 -16z m-754 -165 c3 -40 7 -111 8 -158 l3 -85 -214
-8 c-183 -8 -253 -16 -500 -57 -157 -26 -289 -46 -293 -43 -5 2 -8 17 -8 33
l0 29 55 -6 c169 -18 354 88 429 244 l29 61 86 17 c47 10 145 23 216 30 205
20 182 27 189 -57z m-1259 -129 c16 -22 41 -49 55 -59 23 -16 28 -30 34 -82 4
-35 10 -80 13 -100 l6 -38 -124 0 c-135 0 -170 11 -204 63 -65 101 -15 211
109 241 84 20 80 21 111 -25z m3515 -486 c0 -21 -9 -138 -20 -261 -15 -181
-23 -232 -40 -268 -26 -54 -86 -107 -139 -122 -51 -16 -714 -17 -743 -1 -28
15 -49 70 -39 104 15 59 32 63 356 95 312 32 328 35 361 86 15 22 16 48 11
215 l-6 189 129 0 130 0 0 -37z m-2602 -76 c50 -37 92 -71 92 -74 0 -3 -33
-61 -74 -127 -81 -132 -121 -177 -178 -200 -42 -18 -140 -21 -167 -6 -23 12
-45 65 -37 87 4 10 61 105 128 210 76 122 124 190 132 186 6 -4 53 -38 104
-76z m833 -143 c65 -32 119 -60 119 -63 0 -3 -42 -71 -93 -151 -61 -95 -108
-156 -135 -177 -54 -41 -134 -59 -194 -43 -37 10 -408 206 -408 216 0 4 100
164 109 176 4 4 65 -15 136 -42 71 -28 144 -50 161 -50 44 0 85 37 135 121 23
38 43 69 46 69 2 0 58 -25 124 -56z"/>
<path d="M995 3771 c-93 -23 -191 -68 -216 -99 -37 -47 -16 -114 40 -127 22
-5 45 2 90 25 155 78 329 81 490 9 35 -16 76 -29 91 -29 56 0 90 77 55 127
-18 26 -145 80 -234 99 -89 18 -230 16 -316 -5z"/>
</g>
</svg>
