<?xml version="1.0" encoding="UTF-8"?>
<svg version="1.1" xmlns="http://www.w3.org/2000/svg" width="512" height="512">
<path d="M0 0 C1.01823853 0.00215515 2.03647705 0.0043103 3.08557129 0.00653076 C17.7097884 0.05623391 32.00304638 0.37042012 46.375 3.3125 C47.37160645 3.50585938 48.36821289 3.69921875 49.39501953 3.8984375 C97.79648057 13.46213524 141.99059771 35.87987765 177.375 70.3125 C178.37877686 71.27760498 178.37877686 71.27760498 179.40283203 72.26220703 C188.33991207 80.87657599 196.74206664 89.58564609 204.10107422 99.59423828 C205.39750666 101.34285682 206.72788718 103.06078803 208.06640625 104.77734375 C215.93067241 114.9920598 222.3161092 125.94975258 228.375 137.3125 C229.03846436 138.55314209 229.03846436 138.55314209 229.71533203 139.81884766 C241.23204842 161.72199262 248.9030584 186.01309889 253.375 210.3125 C253.53581055 211.11316895 253.69662109 211.91383789 253.86230469 212.73876953 C259.3544441 240.81662453 259.10896692 274.30227935 253.375 302.3125 C253.18164062 303.30910645 252.98828125 304.30571289 252.7890625 305.33251953 C244.67028127 346.42132055 227.30084885 383.51549494 201.375 416.3125 C200.56289063 417.35019531 199.75078125 418.38789063 198.9140625 419.45703125 C186.24907313 435.01858759 171.69874403 449.61464417 155.375 461.3125 C154.02974408 462.30180622 152.68470229 463.29140366 151.33984375 464.28125 C120.03306909 487.08129792 84.47487825 502.30078684 46.375 509.3125 C45.57433105 509.47331055 44.77366211 509.63412109 43.94873047 509.79980469 C15.88172956 515.289821 -17.62684244 515.06193715 -45.625 509.3125 C-46.63755859 509.11382324 -47.65011719 508.91514648 -48.69335938 508.71044922 C-89.78600049 500.49315205 -126.72136417 483.05232803 -159.625 457.3125 C-160.16415039 456.89339355 -160.70330078 456.47428711 -161.25878906 456.04248047 C-177.49886305 443.27946125 -192.56962343 428.08823511 -204.625 411.3125 C-205.4887527 410.14261544 -206.35335469 408.9733575 -207.21875 407.8046875 C-222.36207742 387.1786757 -234.4442165 364.56952873 -242.625 340.3125 C-243.03806396 339.08998535 -243.03806396 339.08998535 -243.45947266 337.84277344 C-246.69755506 328.07192323 -249.22985473 318.19031263 -251.375 308.125 C-251.57375732 307.20033936 -251.77251465 306.27567871 -251.97729492 305.32299805 C-255.26999027 289.11638823 -256.00030278 273.1821298 -255.9375 256.6875 C-255.93534485 255.66926147 -255.9331897 254.65102295 -255.93096924 253.60192871 C-255.88126609 238.9777116 -255.56707988 224.68445362 -252.625 210.3125 C-252.33496094 208.81759033 -252.33496094 208.81759033 -252.0390625 207.29248047 C-242.60837882 159.56419789 -220.63885226 115.26845549 -186.625 80.3125 C-185.93245117 79.59416992 -185.23990234 78.87583984 -184.52636719 78.13574219 C-174.78805129 68.06884541 -165.02732714 58.47657992 -153.625 50.3125 C-153.08182129 49.9191748 -152.53864258 49.52584961 -151.97900391 49.12060547 C-121.06483319 26.8400395 -86.69185396 11.73917236 -49.375 4.0625 C-48.64442383 3.91127686 -47.91384766 3.76005371 -47.16113281 3.60424805 C-31.46684491 0.57387475 -15.9450952 -0.06071045 0 0 Z M-46.625 35.3125 C-45.18467463 39.63347611 -41.87836092 41.17076848 -38.25 43.625 C-36.70054721 44.69476921 -35.15242078 45.76646147 -33.60546875 46.83984375 C-32.38609619 47.68458252 -32.38609619 47.68458252 -31.14208984 48.54638672 C-26.89800284 51.52424563 -22.72999887 54.60378205 -18.5625 57.6875 C-17.40451904 58.54275269 -17.40451904 58.54275269 -16.22314453 59.4152832 C-15.10528564 60.24225708 -15.10528564 60.24225708 -13.96484375 61.0859375 C-12.87985596 61.88209473 -12.87985596 61.88209473 -11.77294922 62.69433594 C-10.31183561 63.79507031 -8.87627219 64.93037395 -7.46533203 66.09472656 C-6.77681152 66.65385742 -6.08829102 67.21298828 -5.37890625 67.7890625 C-4.77506104 68.29775879 -4.17121582 68.80645508 -3.54907227 69.33056641 C-1.61594447 70.52464162 -1.61594447 70.52464162 0.85009766 70.14575195 C3.53323618 69.26027992 5.28376326 68.21002587 7.52734375 66.50390625 C8.68169922 65.63789795 8.68169922 65.63789795 9.859375 64.75439453 C11.07367188 63.82409424 11.07367188 63.82409424 12.3125 62.875 C14.01889938 61.59160736 15.72593538 60.30906074 17.43359375 59.02734375 C18.2726123 58.39425293 19.11163086 57.76116211 19.97607422 57.10888672 C23.23890257 54.66558415 26.54893046 52.29360339 29.875 49.9375 C30.98180514 49.14848562 32.08857688 48.35942439 33.1953125 47.5703125 C35.35287253 46.03828585 37.51404476 44.51263578 39.6796875 42.9921875 C40.69289063 42.27289063 41.70609375 41.55359375 42.75 40.8125 C44.09191406 39.86890625 44.09191406 39.86890625 45.4609375 38.90625 C46.09257812 38.3803125 46.72421875 37.854375 47.375 37.3125 C47.375 36.6525 47.375 35.9925 47.375 35.3125 C16.67446718 28.7338144 -15.92446718 28.7338144 -46.625 35.3125 Z M81.75390625 49.91796875 C80.99263428 50.48265869 80.2313623 51.04734863 79.44702148 51.62915039 C78.20480835 52.55522095 78.20480835 52.55522095 76.9375 53.5 C75.19062013 54.79496714 73.44321207 56.08922203 71.6953125 57.3828125 C70.35968262 58.3713623 70.35968262 58.3713623 68.99707031 59.37988281 C65.12053986 62.23710954 61.21960574 65.05978923 57.3125 67.875 C56.57741211 68.40488525 55.84232422 68.93477051 55.08496094 69.48071289 C53.59754191 70.55237651 52.10991208 71.62374759 50.62207031 72.69482422 C46.80882438 75.4399967 42.99789069 78.18836635 39.1875 80.9375 C38.52419678 81.41517822 37.86089355 81.89285645 37.17749023 82.38500977 C35.76758478 83.402099 34.37670876 84.44589001 33.00195312 85.51000977 C30.84229398 86.99186511 28.91051354 88.02853196 26.56054688 89.12866211 C21.99464755 91.49113018 18.20203796 93.92568185 15.375 98.3125 C12.79789919 106.46063452 13.03501817 115.11728093 13.19970703 123.58081055 C13.25022244 126.27882217 13.22276312 128.95665282 13.11767578 131.65307617 C12.17947164 146.43110211 12.17947164 146.43110211 17.20370483 159.85806274 C21.56446506 164.15098879 26.49755217 167.13658136 31.89762878 169.94941711 C36.01400875 172.21430461 39.6879871 175.05834627 43.4375 177.875 C44.9261738 178.95228157 46.41680273 180.02687125 47.91015625 181.09765625 C51.65159828 183.79093768 55.38993201 186.48848285 59.12670898 189.18823242 C60.61427996 190.26292128 62.1020696 191.33730754 63.59008789 192.41137695 C67.54255978 195.26446855 71.49193924 198.12173191 75.4375 200.984375 C76.26378906 201.58314453 77.09007812 202.18191406 77.94140625 202.79882812 C79.53341453 203.95258693 81.12459487 205.10748926 82.71484375 206.26367188 C83.42769531 206.77994141 84.14054687 207.29621094 84.875 207.828125 C85.5040625 208.28477539 86.133125 208.74142578 86.78125 209.21191406 C88.39293675 210.37990722 88.39293675 210.37990722 90.375 211.3125 C92.79680725 210.82398968 92.79680725 210.82398968 95.58740234 209.93237305 C97.21952164 209.44011482 97.21952164 209.44011482 98.88461304 208.93791199 C103.86235512 207.38780719 108.83789158 205.83166555 113.8046875 204.24682617 C116.42503584 203.41314907 119.05085622 202.60267299 121.68457031 201.81225586 C125.47877688 200.67351939 129.25085827 199.47028317 133.0234375 198.26171875 C134.19957611 197.91646652 135.37571472 197.57121429 136.5874939 197.21549988 C142.47453656 195.35587528 142.47453656 195.35587528 146.86235046 191.2644043 C147.9504642 188.64361146 148.6717506 186.06142306 149.375 183.3125 C150.11150262 181.12729251 150.85975825 178.94602391 151.61743164 176.76806641 C152.42690304 174.31790609 153.23263492 171.86650802 154.03515625 169.4140625 C154.47049756 168.08941484 154.90600198 166.76482078 155.34165955 165.4402771 C156.24890419 162.67931533 157.15373007 159.91757568 158.05688477 157.15527344 C159.20372094 153.64854073 160.35730321 150.14407049 161.51282597 146.64019203 C162.41242148 143.9093707 163.30800144 141.17724457 164.20248222 138.44474411 C164.82870946 136.53436199 165.45849668 134.62514799 166.08839417 132.7159729 C167.93313417 127.05671708 169.70283328 121.38447281 171.26586914 115.64038086 C171.52348526 114.69400253 171.78110138 113.74762421 172.04652405 112.77256775 C172.64616087 110.0500947 172.64616087 110.0500947 170.6484375 106.90234375 C169.69195312 106.02707031 168.73546875 105.15179688 167.75 104.25 C167.23800049 103.76088135 166.72600098 103.2717627 166.19848633 102.76782227 C165.13384474 101.75343503 164.05486963 100.7538881 162.96240234 99.76953125 C160.54118942 97.5471691 158.32575605 95.13166257 156.0625 92.75 C149.9349155 86.69204715 143.27360093 81.46003374 136.375 76.3125 C135.80910156 75.88582031 135.24320312 75.45914063 134.66015625 75.01953125 C108.63642374 54.73462343 108.63642374 54.73462343 81.75390625 49.91796875 Z M-135.625 76.3125 C-136.44097656 76.93511719 -137.25695312 77.55773437 -138.09765625 78.19921875 C-156.74733421 92.49112139 -156.74733421 92.49112139 -171.625 110.3125 C-171.51357072 112.84433193 -171.51357072 112.84433193 -170.62329102 115.54101562 C-170.16866989 117.13973511 -170.16866989 117.13973511 -169.7048645 118.77075195 C-169.34850922 119.93952881 -168.99215393 121.10830566 -168.625 122.3125 C-168.07850296 124.16717896 -168.07850296 124.16717896 -167.52096558 126.05932617 C-165.09260281 134.23087402 -162.49898166 142.35275253 -159.90024471 150.47142792 C-158.59118184 154.56184891 -157.29822473 158.6559345 -156.04125977 162.76269531 C-154.81461081 166.76923869 -153.54975104 170.7617801 -152.25714302 174.74751282 C-151.77437286 176.25822981 -151.3051075 177.77333562 -150.85011101 179.29264832 C-148.62028736 187.56504246 -148.62028736 187.56504246 -143.4070282 194.00631714 C-140.82617946 195.06599875 -138.34653617 195.70927235 -135.625 196.3125 C-133.87867168 196.93259788 -132.1401908 197.57520368 -130.40991211 198.23876953 C-125.52606216 199.9890708 -120.6225901 201.67985408 -115.71166992 203.35253906 C-113.60505247 204.07831687 -111.50374038 204.81967281 -109.40795898 205.57617188 C-106.35557653 206.67564885 -103.28910213 207.72133576 -100.21484375 208.7578125 C-99.28647202 209.10433868 -98.35810028 209.45086487 -97.40159607 209.80789185 C-93.51320797 211.06835305 -90.96499834 211.88831461 -87.11193848 210.23260498 C-84.80956248 208.71327206 -82.73169259 207.09039276 -80.625 205.3125 C-79.24981883 204.32264419 -77.8679963 203.34187629 -76.4765625 202.375 C-75.06630217 201.35611013 -73.65749667 200.33520421 -72.25 199.3125 C-71.48107422 198.755625 -70.71214844 198.19875 -69.91992188 197.625 C-63.50456223 192.97061762 -57.12515178 188.26798948 -50.75048828 183.55810547 C-43.85865938 178.47104327 -36.92075224 173.44969778 -29.96875 168.4453125 C-29.32640411 167.96739258 -28.68405823 167.48947266 -28.02224731 166.99707031 C-25.625 165.3125 -25.625 165.3125 -22.85580444 163.72045898 C-16.99412796 160.13656975 -16.99412796 160.13656975 -13.52825928 154.41549683 C-13.03709571 150.9446671 -12.89104286 147.62276257 -12.8828125 144.1171875 C-12.85331512 142.85214386 -12.82381775 141.58710022 -12.79342651 140.28372192 C-12.75092865 137.60833433 -12.73259294 134.9449288 -12.75146484 132.27050781 C-12.76576548 129.55281899 -12.71072129 126.85162143 -12.58740234 124.13671875 C-11.50891774 109.27870957 -11.50891774 109.27870957 -16.44076538 95.75723267 C-20.79687924 91.45314992 -25.73486764 88.47677666 -31.14355469 85.67259216 C-35.26486636 83.41368133 -38.93781535 80.56845316 -42.6875 77.75 C-44.17224673 76.67529445 -45.65896631 75.60330438 -47.1484375 74.53515625 C-51.70488157 71.25503543 -56.25966536 67.97262919 -60.8125 64.6875 C-61.55048828 64.15543945 -62.28847656 63.62337891 -63.04882812 63.07519531 C-66.73025308 60.41747341 -70.40115299 57.74674269 -74.0546875 55.05078125 C-74.75182861 54.53660645 -75.44896973 54.02243164 -76.16723633 53.49267578 C-77.48641683 52.51799668 -78.80403637 51.54120035 -80.11987305 50.56201172 C-92.50065381 41.4100286 -124.57770228 67.85037335 -135.625 76.3125 Z M-194.625 142.3125 C-209.44048426 169.34185167 -224.35832765 201.69793029 -223.625 233.3125 C-217.98934566 230.25954288 -212.93374089 226.71978182 -207.8125 222.875 C-206.1386861 221.62801277 -204.46418874 220.3819425 -202.7890625 219.13671875 C-201.93860352 218.50427246 -201.08814453 217.87182617 -200.21191406 217.22021484 C-197.66342859 215.34083909 -195.09834096 213.4875102 -192.5234375 211.64453125 C-191.30491089 210.77235962 -191.30491089 210.77235962 -190.06176758 209.88256836 C-188.51415176 208.77767411 -186.96459862 207.67548689 -185.4128418 206.57641602 C-184.71070557 206.07424561 -184.00856934 205.5720752 -183.28515625 205.0546875 C-182.67293213 204.6201123 -182.06070801 204.18553711 -181.42993164 203.73779297 C-179.32720117 202.07733842 -177.50629943 200.21745276 -175.625 198.3125 C-178.00503999 190.97870798 -180.38997191 183.64652014 -182.77832031 176.31542969 C-183.59032255 173.82100553 -184.40120196 171.32621558 -185.2109375 168.83105469 C-186.37465516 165.24577749 -187.54239723 161.66183284 -188.7109375 158.078125 C-189.07246918 156.96133362 -189.43400085 155.84454224 -189.80648804 154.69390869 C-190.31679062 153.13274323 -190.31679062 153.13274323 -190.83740234 151.54003906 C-191.13496429 150.62514709 -191.43252625 149.71025513 -191.73910522 148.76763916 C-192.55459747 146.50761122 -193.49964023 144.43238443 -194.625 142.3125 Z M194.375 142.3125 C192.13142807 149.30459889 189.88958497 156.29725037 187.64892578 163.2902832 C186.8869514 165.66768862 186.12458573 168.04496866 185.36181641 170.42211914 C184.26361098 173.84488326 183.16682736 177.26810022 182.0703125 180.69140625 C181.7306546 181.74896622 181.3909967 182.80652618 181.04104614 183.89613342 C179.40303616 189.01462482 177.81094693 194.13351808 176.375 199.3125 C199.10433716 219.92733524 199.10433716 219.92733524 224.375 233.3125 C223.19807216 201.06467706 210.78156496 170.22111357 195.375 142.3125 C195.045 142.3125 194.715 142.3125 194.375 142.3125 Z M-7.5 189.6875 C-8.66891651 190.61797011 -9.83954422 191.54629385 -11.01171875 192.47265625 C-11.61161621 192.94848145 -12.21151367 193.42430664 -12.82958984 193.91455078 C-15.59759199 196.06978335 -18.44749336 198.10144937 -21.3125 200.125 C-22.48836216 200.95821917 -23.66414098 201.79155595 -24.83984375 202.625 C-25.44940918 203.05683594 -26.05897461 203.48867187 -26.68701172 203.93359375 C-30.2634442 206.47827637 -33.81829054 209.05286004 -37.375 211.625 C-38.49503418 212.43445068 -38.49503418 212.43445068 -39.63769531 213.26025391 C-42.80379742 215.54868495 -45.96922107 217.83805243 -49.13427734 220.12792969 C-50.80648726 221.33769574 -52.47884744 222.54725413 -54.15136719 223.7565918 C-55.72659357 224.89558447 -57.30147841 226.03504969 -58.87597656 227.17504883 C-59.94090332 227.94498169 -59.94090332 227.94498169 -61.02734375 228.73046875 C-61.65116943 229.18188232 -62.27499512 229.6332959 -62.91772461 230.09838867 C-64.46609387 231.19949554 -66.04412991 232.25858661 -67.625 233.3125 C-66.19045543 240.36036095 -64.18860485 247.07673301 -61.921875 253.8984375 C-61.56160217 254.99483551 -61.20132935 256.09123352 -60.83013916 257.22085571 C-59.6824722 260.71108505 -58.52901 264.19936337 -57.375 267.6875 C-55.86804738 272.25723895 -54.36364325 276.82781436 -52.859375 281.3984375 C-52.49557739 282.50121033 -52.13177979 283.60398315 -51.75695801 284.74017334 C-49.23135035 292.41226723 -46.77091465 300.10267539 -44.40081787 307.8243103 C-43.52962488 311.34834658 -43.52962488 311.34834658 -41.625 314.3125 C-39.00811559 314.40759559 -36.417711 314.43806 -33.80053711 314.42602539 C-32.57136818 314.42624443 -32.57136818 314.42624443 -31.31736755 314.4264679 C-28.59566647 314.42576852 -25.87403295 314.41797501 -23.15234375 314.41015625 C-21.27047259 314.40829216 -19.38860094 314.40686821 -17.50672913 314.40586853 C-12.54351471 314.40204267 -7.58032936 314.39221181 -2.61712646 314.38116455 C2.44339606 314.3709519 7.50392327 314.36637122 12.56445312 314.36132812 C22.50131488 314.3505896 32.43815503 314.33351236 42.375 314.3125 C45.24231811 307.39135291 47.75090166 300.41211308 50.0546875 293.28515625 C50.38993439 292.25676132 50.72518127 291.22836639 51.07058716 290.16880798 C52.13351782 286.90521282 53.1917386 283.64011178 54.25 280.375 C54.9515351 278.22060938 55.65335592 276.06631178 56.35546875 273.91210938 C58.05188589 268.7017704 59.73934147 263.48860416 61.42028809 258.27325439 C62.05018719 256.31981009 62.68142495 254.36679686 63.31408691 252.41424561 C64.17481078 249.75544534 65.02973995 247.09485719 65.8828125 244.43359375 C66.13771454 243.64904312 66.39261658 242.86449249 66.65524292 242.0561676 C67.61869998 239.03113308 68.375 236.50820475 68.375 233.3125 C66.45115025 231.71032288 64.57075963 230.32776364 62.5 228.9375 C61.20513512 228.0412222 59.91089398 227.14404279 58.6171875 226.24609375 C57.92592773 225.77026855 57.23466797 225.29444336 56.52246094 224.80419922 C52.85244067 222.25487864 49.24163754 219.62422905 45.625 217 C44.09134864 215.89034465 42.55749225 214.78097262 41.0234375 213.671875 C40.25612305 213.11693359 39.48880859 212.56199219 38.69824219 211.99023438 C36.39751719 210.32876084 34.09377934 208.67155568 31.7890625 207.015625 C30.2760062 205.92713263 28.76298511 204.83859132 27.25 203.75 C26.14422607 202.95625977 26.14422607 202.95625977 25.01611328 202.14648438 C21.24342496 199.42716051 17.51146112 196.66756154 13.828125 193.828125 C13.09996582 193.26939697 12.37180664 192.71066895 11.62158203 192.13500977 C10.24099119 191.07104925 8.86658251 189.99900186 7.49951172 188.91772461 C1.20859308 184.07406282 -1.74495271 184.95066008 -7.5 189.6875 Z M-162.875 227.6875 C-164.34017904 228.80205333 -165.80634131 229.91531519 -167.2734375 231.02734375 C-168.00916992 231.58534668 -168.74490234 232.14334961 -169.50292969 232.71826172 C-172.46725273 234.94525544 -175.4752357 237.10614444 -178.5 239.25 C-179.64975694 240.06638181 -180.7994961 240.88278865 -181.94921875 241.69921875 C-182.54009277 242.11864746 -183.1309668 242.53807617 -183.73974609 242.97021484 C-187.27424128 245.48674612 -190.79397536 248.02370706 -194.3125 250.5625 C-195.05612793 251.0989917 -195.79975586 251.6354834 -196.56591797 252.18823242 C-203.28307718 257.04524422 -209.95420395 261.96403033 -216.6081543 266.90722656 C-217.36652588 267.46893555 -218.12489746 268.03064453 -218.90625 268.609375 C-219.57720703 269.10791992 -220.24816406 269.60646484 -220.93945312 270.12011719 C-222.625 271.3125 -222.625 271.3125 -224.625 272.3125 C-224.22452489 292.33625538 -219.46348679 312.55641749 -212.625 331.3125 C-212.19429199 332.50552734 -212.19429199 332.50552734 -211.75488281 333.72265625 C-206.48962726 348.08968869 -200.1357063 362.54644056 -191.625 375.3125 C-188.88281331 375.68879753 -186.35596076 375.86717006 -183.60205078 375.92285156 C-182.7724736 375.95059662 -181.94289642 375.97834167 -181.08818054 376.00692749 C-178.33234374 376.09180754 -175.57695683 376.15102555 -172.8203125 376.203125 C-171.87729153 376.22159233 -170.93427055 376.24005966 -169.96267319 376.25908661 C-164.96286113 376.35109449 -159.9632541 376.41931682 -154.96289062 376.47265625 C-150.8362821 376.52147842 -146.71528598 376.61863076 -142.59082031 376.75976562 C-137.60159141 376.93034517 -132.61749405 377.015826 -127.62548447 377.0422287 C-125.73128476 377.06593949 -123.83720122 377.11853494 -121.94467545 377.20160675 C-111.66095128 377.82850534 -111.66095128 377.82850534 -102.6628418 373.64564133 C-99.05699306 369.57720934 -96.32845098 365.0825202 -93.74525833 360.31701851 C-92.2667339 357.67144158 -90.51248707 355.28634084 -88.671875 352.8828125 C-88.11886719 352.13628418 -87.56585938 351.38975586 -86.99609375 350.62060547 C-86.46113281 349.90018066 -85.92617187 349.17975586 -85.375 348.4375 C-84.50294922 347.24664795 -84.50294922 347.24664795 -83.61328125 346.03173828 C-81.10953314 342.61836008 -78.60072207 339.23730168 -75.890625 335.984375 C-75.14296875 335.06140625 -74.3953125 334.1384375 -73.625 333.1875 C-72.985625 332.44242187 -72.34625 331.69734375 -71.6875 330.9296875 C-69.04789019 324.42770746 -73.91197978 314.89933854 -75.96875 308.515625 C-76.45483734 306.98637894 -76.45483734 306.98637894 -76.95074463 305.42623901 C-78.72451608 299.86211521 -80.53484226 294.31122891 -82.37597656 288.76904297 C-83.12152932 286.51565871 -83.8660033 284.26191722 -84.609375 282.0078125 C-84.97395813 280.90279388 -85.33854126 279.79777527 -85.71417236 278.65927124 C-87.71667862 272.47783511 -89.38722475 266.36509039 -90.640625 259.9921875 C-92.86770958 248.12795414 -92.86770958 248.12795414 -100.3168335 239.15594482 C-109.58366413 234.00128669 -120.09842201 231.61691133 -130.36181641 229.30712891 C-135.77814467 228.08101965 -140.99770944 226.35251117 -146.25 224.5625 C-154.19257471 222.00205912 -156.2263712 222.56216072 -162.875 227.6875 Z M149.33032227 223.82543945 C148.27905655 224.15610916 147.22779083 224.48677887 146.14466858 224.82746887 C145.00509201 225.18991196 143.86551544 225.55235504 142.69140625 225.92578125 C141.52496078 226.29599899 140.35851532 226.66621674 139.15672302 227.0476532 C136.68557203 227.83372054 134.21497015 228.62151587 131.74487305 229.41088867 C127.95958205 230.61795838 124.17034079 231.81202119 120.38085938 233.00585938 C117.9841186 233.77002961 115.58762571 234.53497788 113.19140625 235.30078125 C112.05385391 235.65715164 110.91630157 236.01352203 109.74427795 236.38069153 C108.16265114 236.89088081 108.16265114 236.89088081 106.54907227 237.41137695 C105.15580467 237.85438896 105.15580467 237.85438896 103.73439026 238.30635071 C99.84476826 239.9650591 98.73120341 241.44032879 97.12329102 245.37733459 C96.69917321 246.64699902 96.28506059 247.92003231 95.87890625 249.19555664 C95.64920135 249.89194244 95.41949646 250.58832825 95.18283081 251.30581665 C94.42566309 253.60867459 93.68152553 255.91552203 92.9375 258.22265625 C92.41164697 259.83133836 91.8850239 261.43976895 91.35766602 263.04795837 C89.96977055 267.28789882 88.59303695 271.53138566 87.21838379 275.77563477 C86.10202409 279.21633 84.97805684 282.65451505 83.85359192 286.0925684 C79.67836511 298.84793987 79.67836511 298.84793987 75.55810547 311.62112427 C74.82865184 313.89707303 74.09003384 316.1701366 73.33642578 318.4382019 C73.05138184 319.32154205 72.76633789 320.2048822 72.47265625 321.11499023 C72.23168213 321.84475571 71.99070801 322.57452118 71.74243164 323.32640076 C71.17508359 326.3931196 71.88602088 328.50353676 73.47558594 331.13330078 C73.93223633 331.75188965 74.38888672 332.37047852 74.859375 333.0078125 C75.37612793 333.71486328 75.89288086 334.42191406 76.42529297 335.15039062 C77.26664795 336.28250977 77.26664795 336.28250977 78.125 337.4375 C79.31004303 339.05457964 80.49493446 340.67177039 81.6796875 342.2890625 C82.29038086 343.11825195 82.90107422 343.94744141 83.53027344 344.80175781 C86.4597143 348.78883693 89.35454305 352.80071201 92.25 356.8125 C92.76014648 357.51648926 93.27029297 358.22047852 93.79589844 358.94580078 C94.54274902 359.97809814 94.54274902 359.97809814 95.3046875 361.03125 C96.03517052 361.99430054 96.03517052 361.99430054 96.78041077 362.97680664 C98.375 365.3125 98.375 365.3125 99.51298523 367.88375854 C101.13704039 371.12181941 102.5355985 373.03022383 105.375 375.3125 C111.66101571 377.18998055 118.61439195 376.47169346 125.08984375 376.2890625 C127.03036346 376.27039697 128.97093049 376.25616909 130.91151428 376.2461853 C136.00419633 376.20811336 141.09399821 376.10998765 146.18554688 375.99914551 C151.38697343 375.89660333 156.58886833 375.85112478 161.79101562 375.80078125 C171.98693839 375.69372963 182.18072915 375.52319947 192.375 375.3125 C193.96752619 372.46763893 195.5563319 369.62071604 197.14453125 366.7734375 C197.59058716 365.97671631 198.03664307 365.17999512 198.49621582 364.35913086 C211.60658329 340.83140124 220.23487587 314.96587062 224.0390625 288.28515625 C224.36791288 286.35411622 224.87027983 284.45520064 225.375 282.5625 C226.20773264 278.60701994 226.49551092 276.21094424 225.375 272.3125 C221.46553631 267.77780958 215.95734329 264.91006301 210.88037109 261.87060547 C206.71920262 259.28274957 202.84817493 256.32218118 198.9375 253.375 C197.3411564 252.19093657 195.74349607 251.00864632 194.14453125 249.828125 C193.3551416 249.24482422 192.56575195 248.66152344 191.75244141 248.06054688 C187.15822694 244.68258677 182.52915059 241.35290909 177.89868164 238.02490234 C174.24114952 235.39349649 170.59870707 232.74521312 166.984375 230.0546875 C166.29118164 229.53994873 165.59798828 229.02520996 164.88378906 228.49487305 C163.57542071 227.52122946 162.26992249 226.54371331 160.96777344 225.56176758 C156.21505229 222.02907074 154.83164947 222.08885219 149.33032227 223.82543945 Z M-55.625 359.3125 C-56.73821537 360.92699487 -57.87501994 362.52619571 -59.05859375 364.08984375 C-60.60609732 366.23150271 -62.15125637 368.37441109 -63.68579102 370.52539062 C-66.35369356 374.24968986 -69.06537117 377.89672227 -71.96875 381.44140625 C-72.75100952 382.42282593 -72.75100952 382.42282593 -73.54907227 383.42407227 C-74.52473835 384.64149075 -75.52395403 385.84057906 -76.55053711 387.01538086 C-78.40804767 389.36740338 -79.67664079 391.18910838 -79.53538513 394.26197815 C-76.76985091 406.89997458 -72.62028758 419.21697992 -68.69484901 431.5324316 C-67.32556498 435.82880276 -65.97680367 440.1293936 -64.67431641 444.4465332 C-63.40620031 448.64844444 -62.08984001 452.83226288 -60.73801804 457.007967 C-60.23370563 458.59376401 -59.74652169 460.18511867 -59.27733231 461.78166008 C-56.9402493 470.70252034 -56.9402493 470.70252034 -50.7301178 476.92614746 C-47.63984345 477.72343939 -44.80435991 478.10738814 -41.625 478.3125 C-39.96964571 478.60038282 -38.316508 478.90192009 -36.66796875 479.2265625 C-10.06196872 483.30120856 29.48740562 487.75629719 54.375 475.3125 C55.30271481 472.99226159 56.11374241 470.70734403 56.88110352 468.33349609 C57.12362854 467.60332275 57.36615356 466.87314941 57.61602783 466.12084961 C58.41951514 463.6949583 59.2119422 461.26561297 60.00390625 458.8359375 C60.55866902 457.15003626 61.11392778 455.46429815 61.66966248 453.77871704 C62.83528585 450.23766198 63.99559039 446.69492081 65.15209961 443.15087891 C66.63145416 438.61856948 68.12262519 434.09025832 69.61770725 429.56311607 C70.76739877 426.07804138 71.91130678 422.59108977 73.05344963 419.1035347 C73.60080757 417.43412315 74.14980775 415.7652491 74.7005024 414.09693527 C75.47220964 411.75575725 76.23622697 409.41220297 76.99829102 407.06787109 C77.22532211 406.38395294 77.45235321 405.70003479 77.68626404 404.99539185 C80.32414655 397.54380743 80.32414655 397.54380743 79.40966797 390.05932617 C78.90064941 389.41455322 78.39163086 388.76978027 77.8671875 388.10546875 C77.2987915 387.36288818 76.73039551 386.62030762 76.14477539 385.85522461 C75.20686157 384.68938843 75.20686157 384.68938843 74.25 383.5 C72.95334002 381.81854607 71.65779398 380.13623261 70.36328125 378.453125 C69.69893066 377.60169922 69.03458008 376.75027344 68.35009766 375.87304688 C65.28504019 371.89945939 62.36084688 367.82835125 59.4375 363.75 C58.93138184 363.04963623 58.42526367 362.34927246 57.90380859 361.62768555 C57.41090332 360.94488525 56.91799805 360.26208496 56.41015625 359.55859375 C55.68733963 358.60373077 55.68733963 358.60373077 54.94992065 357.62957764 C53.375 355.3125 53.375 355.3125 52.26654053 352.76197815 C50.64378663 349.49440203 49.23814245 347.60897263 46.375 345.3125 C39.8682648 343.28106318 32.6556103 343.80658187 25.91796875 343.84375 C23.88924616 343.82683871 21.86054209 343.80755479 19.8318634 343.78601074 C15.58374688 343.75326152 11.33771516 343.75860769 7.08959961 343.7890625 C1.6632923 343.82360361 -3.75526331 343.74943895 -9.18043995 343.64453888 C-13.37012051 343.57813203 -17.55795889 343.57721285 -21.7480526 343.59483337 C-23.74670804 343.59411674 -25.74548463 343.5717234 -27.74363136 343.52662659 C-42.79950058 343.23196526 -48.68722987 345.86576415 -55.625 359.3125 Z M-167.625 406.3125 C-166.68243267 407.41896948 -165.7388793 408.52459902 -164.79492188 409.62988281 C-164.006922 410.55356659 -164.006922 410.55356659 -163.20300293 411.49591064 C-154.96760596 420.97645988 -145.64349695 428.81944958 -135.625 436.3125 C-134.67625 437.03308594 -133.7275 437.75367188 -132.75 438.49609375 C-122.84132597 445.88439284 -112.33854365 452.03232603 -101.4375 457.8125 C-100.59896484 458.25835449 -99.76042969 458.70420898 -98.89648438 459.16357422 C-98.11208984 459.57365723 -97.32769531 459.98374023 -96.51953125 460.40625 C-95.81675049 460.77427734 -95.11396973 461.14230469 -94.38989258 461.52148438 C-92.64316278 462.44883143 -92.64316278 462.44883143 -90.625 462.3125 C-92.02342846 455.50956962 -93.89739199 449.00059206 -96.06640625 442.40625 C-96.39414536 441.40033813 -96.72188446 440.39442627 -97.05955505 439.35803223 C-97.74754528 437.24974087 -98.4376034 435.1421233 -99.12963867 433.03515625 C-100.19289667 429.79605965 -101.24826326 426.55446644 -102.30273438 423.3125 C-102.97349498 421.26026517 -103.64470278 419.20817643 -104.31640625 417.15625 C-104.63307755 416.18345093 -104.94974884 415.21065186 -105.27601624 414.20837402 C-105.71668678 412.87062927 -105.71668678 412.87062927 -106.16625977 411.50585938 C-106.55359032 410.32413147 -106.55359032 410.32413147 -106.94874573 409.11853027 C-107.4803782 407.31903912 -107.4803782 407.31903912 -108.625 406.3125 C-110.46618029 406.21868698 -112.31097641 406.19506046 -114.15454102 406.19897461 C-115.92626427 406.19908791 -115.92626427 406.19908791 -117.73377991 406.19920349 C-119.66186745 406.20694542 -119.66186745 406.20694542 -121.62890625 406.21484375 C-122.93705795 406.2162587 -124.24520966 406.21767365 -125.59300232 406.21913147 C-129.07662859 406.2229559 -132.56021339 406.23278554 -136.04382324 406.24383545 C-139.59626708 406.25405118 -143.14871759 406.25862944 -146.70117188 406.26367188 C-153.67579832 406.27440788 -160.65039717 406.2914834 -167.625 406.3125 Z M109.375 406.3125 C106.67847242 413.05381895 104.15812933 419.70266459 101.921875 426.58984375 C101.61679016 427.52300919 101.31170532 428.45617462 100.99737549 429.4176178 C100.36049957 431.36909061 99.72532311 433.32111882 99.09179688 435.27368164 C98.11903922 438.26835046 97.13793763 441.26020139 96.15625 444.25195312 C95.5359559 446.1560864 94.91614657 448.06037768 94.296875 449.96484375 C94.00319031 450.85856186 93.70950562 451.75227997 93.40692139 452.67308044 C93.13954163 453.50146927 92.87216187 454.32985809 92.59667969 455.18334961 C92.36003601 455.91041611 92.12339233 456.6374826 91.87957764 457.38658142 C91.24828026 459.46435568 91.24828026 459.46435568 91.375 462.3125 C96.78044151 460.73084348 101.5479559 458.31468244 106.5 455.6875 C107.34312744 455.24092041 108.18625488 454.79434082 109.05493164 454.33422852 C115.80239058 450.71151413 122.15754196 446.7964989 128.375 442.3125 C129.33277344 441.62800781 130.29054688 440.94351563 131.27734375 440.23828125 C144.67918971 430.42904577 157.00987018 419.42033587 168.375 407.3125 C168.375 406.9825 168.375 406.6525 168.375 406.3125 C148.905 406.3125 129.435 406.3125 109.375 406.3125 Z " fill="#10c227" transform="translate(255.625,-0.3125)"/>
</svg>
