<?xml version="1.0" encoding="UTF-8"?>
<svg xmlns="http://www.w3.org/2000/svg" viewBox="0 0 1157 912" width="1157" height="912">
<path d="M0.23 0.23C385.74 0.23 771.26 0.23 1156.77 0.23C1156.77 304.17 1156.77 608.11 1156.77 912.05C771.26 912.05 385.74 912.05 0.23 912.05C0.23 608.11 0.23 304.17 0.23 0.23ZM572.61 22C528.93 23.86 495.87 50.87 462.51 75.77C443.18 90.19 424.08 105.17 403.89 118.41C389.05 128.13 373.34 136.39 357.32 143.98C308.37 167.16 255.43 177.87 223.15 225.54C217.83 233.41 213.46 241.99 210.11 250.88C198.34 282.14 199.91 315.68 203.64 348.32C207.8 384.73 214.19 421.2 212.44 458C211.09 486.34 206.7 514.35 202.78 542.43C200.31 560.16 197.21 578.85 198.7 596.78C200.21 614.97 205.8 632.56 214.42 648.61C225.84 669.88 242.71 688.21 262.7 701.64C280.84 713.83 301.77 720.68 321.92 728.68C350.78 740.13 380.4 751.81 406.63 768.66C426.82 781.64 445.84 796.13 464.82 810.77C481.83 823.89 497.93 837.89 517.56 847.11C537 856.23 558.5 860.17 579.91 860.04C598.05 859.92 616.06 856.71 632.9 849.94C649.44 843.3 663.9 832.54 678.1 821.99C704.11 802.67 729.45 782.16 756.89 764.86C778.54 751.2 802.03 740.23 825.69 730.55C849.79 720.69 875.3 712.22 897.34 698.09C922.26 682.12 942.07 658.16 952.36 630.33C968.12 587.72 959.23 542.15 953.16 498.53C949.72 473.85 947.09 449.23 948.16 424.26C949.48 393.4 955.94 363.03 959.23 332.38C960.9 316.89 963.18 301.12 961.88 285.5C960.28 266.41 954.38 247.82 945.2 231.02C934.35 211.15 918.32 193.61 899.46 181.1C876.16 165.65 848.36 157.12 822.3 147.63C797.66 138.65 773.09 127.97 750.81 114.08C725.86 98.53 703.28 79.05 679.98 61.22C667.24 51.47 654.71 41.36 640.05 34.54C618.67 24.58 596.07 21 572.61 22ZM567.01 148.57C602.44 146.19 638.31 152.33 672.01 162.87C766.27 192.33 842.49 273.02 867.81 368.29C880.23 415.02 881.5 463.98 871.67 511.32C853.95 596.72 793.84 670.88 717.62 711.53C680.75 731.19 639.44 742.85 597.72 745.21C559.37 747.38 520.48 742.02 484.16 729.57C450.74 718.13 420.27 700.42 392.7 678.49C312.69 614.85 271.71 510.3 284.32 409.29C289 371.79 301.27 335.19 319.43 302.09C346.81 252.18 388.64 212.18 438.02 184.41C477.62 162.13 521.99 151.6 567.01 148.57ZM584.59 197.06C580.55 200.98 578.77 208.97 576.62 214.23C571.55 226.61 567.41 239.84 561.15 251.66C541.09 253.25 521.02 254.84 500.95 256.43C516.09 269.56 531.23 282.69 546.37 295.81C541.81 315.19 537.25 334.57 532.69 353.94C537.3 353.48 542.42 348.69 546.37 346.22C551.39 343.09 556.55 340.19 561.5 336.97C568.71 332.29 576.32 325.77 584.59 323.29C601.47 333.59 618.35 343.88 635.22 354.18C630.8 334.73 626.37 315.27 621.94 295.81C637.16 282.69 652.38 269.56 667.6 256.43C647.53 254.87 627.45 253.31 607.37 251.75C599.78 233.52 592.19 215.29 584.59 197.06ZM544.46 382.98C503.03 384.67 461.4 386.52 420.48 393.61C410.22 395.39 400.03 397.27 390.23 400.93C386.29 402.4 380.72 404.05 378.29 407.8C376.61 410.4 377.12 413.83 377.14 416.76C377.18 423.33 377.21 429.89 377.19 436.45C377.12 461.14 377.28 485.83 377.19 510.52C377.12 530.21 377.21 549.9 377.16 569.59C377.14 575.83 374.77 586.4 379.84 591.06C386.06 596.77 396.48 598.49 404.38 600.42C424.11 605.22 445.28 607.96 465.52 609.45C539.97 614.92 615.48 618.2 689.9 609.88C711.16 607.5 732.78 605.54 753.61 600.45C760.46 598.78 773.64 595.96 778.21 590.22C781.6 585.97 779.81 573.24 779.79 567.72C779.71 548.34 779.77 528.96 779.81 509.59C779.86 484.9 779.86 460.21 779.81 435.52C779.8 429.26 779.85 423.01 779.86 416.76C779.87 413.8 780.42 410.45 778.66 407.87C775.62 403.4 768.93 401.52 764.11 399.88C749.79 395.02 734.56 392.82 719.61 390.87C661.79 383.33 602.78 380.61 544.46 382.98ZM648.92 451.46C643.09 456.55 636.44 461.07 630.1 465.53C626.63 467.97 623.39 471.36 619.29 472.47C613.7 464.98 609.85 458.44 601 454.29C596.74 452.28 592.1 451.27 587.41 451.04C560.01 449.7 544.49 474.16 544.78 499.27C545.03 520.72 557.97 543.15 580.84 545.72C587.18 546.43 593.99 545.77 599.88 543.21C609.22 539.16 613.72 532.34 619.29 524.37C623.12 524.93 626.46 527.57 629.89 529.44C636.76 533.2 644.43 536.8 650.7 541.46C649.34 549.27 643.13 555.84 637.56 561.15C620.81 577.14 597.01 583.27 574.28 581.1C533.91 577.25 505.51 539.09 504.69 500.21C503.79 457.48 532.88 420.24 576.16 416.09C597.43 414.04 620.22 419.38 636.23 434.06C641.31 438.71 647.33 444.62 648.92 451.46ZM473.24 447.7C465.05 470.64 459.16 488.25 462.37 513.34C463.42 521.56 465.69 529.59 468.17 537.49C469.47 541.6 471.85 545.69 472.35 549.9C467.28 550.25 462.13 549.26 457.08 548.71C446.27 547.55 435.64 545.85 424.89 544.24C415.47 542.82 404.77 542.52 395.83 539.15C395.83 512.1 395.83 485.06 395.83 458.02C411.84 453.36 429.33 452.05 445.83 449.99C453.83 448.98 465.51 446.14 473.24 447.7ZM761.25 458.02C761.25 485.12 761.25 512.23 761.25 539.33C752.45 542.01 742.98 542.82 733.9 544.2C726.93 545.25 720.03 546.55 713.05 547.48C704.83 548.56 693.86 551.03 685.78 549.9C686.44 546.18 688.42 542.83 689.68 539.25C692.21 532.05 694.66 524.66 695.79 517.09C698.02 502.12 697.43 486.79 693.71 472.14C691.57 463.7 687.54 455.97 685.21 447.7C693.51 446.56 702.87 448.88 711.17 449.91C720.59 451.08 729.91 452.66 739.3 453.97C746.66 455 754.18 455.65 761.25 458.02Z" fill="#ffffff" fill-rule="evenodd" stroke="#ffffff" stroke-width="0.25" stroke-linejoin="round"/>
<path d="M572.61 22C596.07 21 618.67 24.58 640.05 34.54C654.71 41.36 667.24 51.47 679.98 61.22C703.28 79.05 725.86 98.53 750.81 114.08C773.09 127.97 797.66 138.65 822.3 147.63C848.36 157.12 876.16 165.65 899.46 181.1C918.32 193.61 934.35 211.15 945.2 231.02C954.38 247.82 960.28 266.41 961.88 285.5C963.18 301.12 960.9 316.89 959.23 332.38C955.94 363.03 949.48 393.4 948.16 424.26C947.09 449.23 949.72 473.85 953.16 498.53C959.23 542.15 968.12 587.72 952.36 630.33C942.07 658.16 922.26 682.12 897.34 698.09C875.3 712.22 849.79 720.69 825.69 730.55C802.03 740.23 778.54 751.2 756.89 764.86C729.45 782.16 704.11 802.67 678.1 821.99C663.9 832.54 649.44 843.3 632.9 849.94C616.06 856.71 598.05 859.92 579.91 860.04C558.5 860.17 537 856.23 517.56 847.11C497.93 837.89 481.83 823.89 464.82 810.77C445.84 796.13 426.82 781.64 406.63 768.66C380.4 751.81 350.78 740.13 321.92 728.68C301.77 720.68 280.84 713.83 262.7 701.64C242.71 688.21 225.84 669.88 214.42 648.61C205.8 632.56 200.21 614.97 198.7 596.78C197.21 578.85 200.31 560.16 202.78 542.43C206.7 514.35 211.09 486.34 212.44 458C214.19 421.2 207.8 384.73 203.64 348.32C199.91 315.68 198.34 282.14 210.11 250.88C213.46 241.99 217.83 233.41 223.15 225.54C255.43 177.87 308.37 167.16 357.32 143.98C373.34 136.39 389.05 128.13 403.89 118.41C424.08 105.17 443.18 90.19 462.51 75.77C495.87 50.87 528.93 23.86 572.61 22ZM567.01 148.57C521.99 151.6 477.62 162.13 438.02 184.41C388.64 212.18 346.81 252.18 319.43 302.09C301.27 335.19 289 371.79 284.32 409.29C271.71 510.3 312.69 614.85 392.7 678.49C420.27 700.42 450.74 718.13 484.16 729.57C520.48 742.02 559.37 747.38 597.72 745.21C639.44 742.85 680.75 731.19 717.62 711.53C793.84 670.88 853.95 596.72 871.67 511.32C881.5 463.98 880.23 415.02 867.81 368.29C842.49 273.02 766.27 192.33 672.01 162.87C638.31 152.33 602.44 146.19 567.01 148.57ZM584.59 197.06C592.19 215.29 599.78 233.52 607.37 251.75C627.45 253.31 647.53 254.87 667.6 256.43C652.38 269.56 637.16 282.69 621.94 295.81C626.37 315.27 630.8 334.73 635.22 354.18C618.35 343.88 601.47 333.59 584.59 323.29C576.32 325.77 568.71 332.29 561.5 336.97C556.55 340.19 551.39 343.09 546.37 346.22C542.42 348.69 537.3 353.48 532.69 353.94C537.25 334.57 541.81 315.19 546.37 295.81C531.23 282.69 516.09 269.56 500.95 256.43C521.02 254.84 541.09 253.25 561.15 251.66C567.41 239.84 571.55 226.61 576.62 214.23C578.77 208.97 580.55 200.98 584.59 197.06ZM544.46 382.98C602.78 380.61 661.79 383.33 719.61 390.87C734.56 392.82 749.79 395.02 764.11 399.88C768.93 401.52 775.62 403.4 778.66 407.87C780.42 410.45 779.87 413.8 779.86 416.76C779.85 423.01 779.8 429.26 779.81 435.52C779.86 460.21 779.86 484.9 779.81 509.59C779.77 528.96 779.71 548.34 779.79 567.72C779.81 573.24 781.6 585.97 778.21 590.22C773.64 595.96 760.46 598.78 753.61 600.45C732.78 605.54 711.16 607.5 689.9 609.88C615.48 618.2 539.97 614.92 465.52 609.45C445.28 607.96 424.11 605.22 404.38 600.42C396.48 598.49 386.06 596.77 379.84 591.06C374.77 586.4 377.14 575.83 377.16 569.59C377.21 549.9 377.12 530.21 377.19 510.52C377.28 485.83 377.12 461.14 377.19 436.45C377.21 429.89 377.18 423.33 377.14 416.76C377.12 413.83 376.61 410.4 378.29 407.8C380.72 404.05 386.29 402.4 390.23 400.93C400.03 397.27 410.22 395.39 420.48 393.61C461.4 386.52 503.03 384.67 544.46 382.98ZM648.92 451.46C647.33 444.62 641.31 438.71 636.23 434.06C620.22 419.38 597.43 414.04 576.16 416.09C532.88 420.24 503.79 457.48 504.69 500.21C505.51 539.09 533.91 577.25 574.28 581.1C597.01 583.27 620.81 577.14 637.56 561.15C643.13 555.84 649.34 549.27 650.7 541.46C644.43 536.8 636.76 533.2 629.89 529.44C626.46 527.57 623.12 524.93 619.29 524.37C613.72 532.34 609.22 539.16 599.88 543.21C593.99 545.77 587.18 546.43 580.84 545.72C557.97 543.15 545.03 520.72 544.78 499.27C544.49 474.16 560.01 449.7 587.41 451.04C592.1 451.27 596.74 452.28 601 454.29C609.85 458.44 613.7 464.98 619.29 472.47C623.39 471.36 626.63 467.97 630.1 465.53C636.44 461.07 643.09 456.55 648.92 451.46ZM473.24 447.7C465.51 446.14 453.83 448.98 445.83 449.99C429.33 452.05 411.84 453.36 395.83 458.02C395.83 485.06 395.83 512.1 395.83 539.15C404.77 542.52 415.47 542.82 424.89 544.24C435.64 545.85 446.27 547.55 457.08 548.71C462.13 549.26 467.28 550.25 472.35 549.9C471.85 545.69 469.47 541.6 468.17 537.49C465.69 529.59 463.42 521.56 462.37 513.34C459.16 488.25 465.05 470.64 473.24 447.7ZM761.25 458.02C754.18 455.65 746.66 455 739.3 453.97C729.91 452.66 720.59 451.08 711.17 449.91C702.87 448.88 693.51 446.56 685.21 447.7C687.54 455.97 691.57 463.7 693.71 472.14C697.43 486.79 698.02 502.12 695.79 517.09C694.66 524.66 692.21 532.05 689.68 539.25C688.42 542.83 686.44 546.18 685.78 549.9C693.86 551.03 704.83 548.56 713.05 547.48C720.03 546.55 726.93 545.25 733.9 544.2C742.98 542.82 752.45 542.01 761.25 539.33C761.25 512.23 761.25 485.12 761.25 458.02Z" fill="#3ab5fb" fill-rule="evenodd" stroke="#3ab5fb" stroke-width="0.25" stroke-linejoin="round"/>
</svg>

