<?xml version="1.0" encoding="UTF-8"?>
<svg version="1.1" xmlns="http://www.w3.org/2000/svg" width="512" height="512">
<path d="M0 0 C7.21925911 5.22040681 11.71665729 10.72252023 15 19 C15.56847656 18.60167969 16.13695312 18.20335938 16.72265625 17.79296875 C26.9431443 10.78024657 36.05650006 7.36524662 48.58984375 9.42578125 C59.00447349 12.10758954 65.74737001 17.82918494 71.29110718 26.85961914 C74.18712771 32.18154884 76.16296181 37.75559418 78.14453125 43.46875 C78.60257597 44.75642312 79.06189233 46.04364449 79.52238464 47.33044434 C80.72556909 50.70243068 81.91279328 54.079807 83.09613037 57.45880127 C84.26959772 60.80243837 85.4561471 64.14141402 86.64257812 67.48046875 C87.11297179 68.80467818 87.58333926 70.12889692 88.05368042 71.453125 C88.28574062 72.10643799 88.51780083 72.75975098 88.75689316 73.43286133 C89.45390368 75.39743473 90.14893732 77.36269785 90.84353638 79.328125 C95.42249578 92.27088637 100.18835673 105.14198029 105 118 C105.01213028 116.96215866 105.01213028 116.96215866 105.02450562 115.90335083 C105.1028518 109.34291732 105.1902586 102.78267201 105.28752708 96.22249031 C105.33720775 92.85084164 105.38353692 89.4792201 105.421875 86.10742188 C105.4678135 82.21987599 105.52576047 78.33266096 105.5859375 74.4453125 C105.59748871 73.25011993 105.60903992 72.05492737 105.62094116 70.82351685 C105.84011433 58.24399896 107.45452538 47.78624351 116.1875 38.25 C124.23980221 30.64013198 133.44032133 28.63073498 144.16796875 28.765625 C148.97812543 29.05982419 152.58053564 30.1391729 157 32 C157.12955078 30.76636719 157.12955078 30.76636719 157.26171875 29.5078125 C158.55955593 19.19655565 161.19543249 10.75814738 168.96484375 3.53515625 C178.75411705 -3.84907486 189.12455859 -5.03440585 201 -4 C204.46267382 -3.19943753 207.05169571 -1.959721 210 0 C210.76699219 0.48597656 211.53398437 0.97195312 212.32421875 1.47265625 C221.74915302 8.06232104 225.28637132 16.2014579 227.23974609 27.17382812 C227.50654089 28.7803878 227.75526959 30.38993153 228 32 C229.19625 31.505 230.3925 31.01 231.625 30.5 C240.54635938 27.56367856 250.22700508 27.73241878 258.7578125 31.74609375 C268.76920119 37.34479718 274.74794914 44.88667701 278 56 C278.39215941 58.83544931 278.41728091 61.61943122 278.39872742 64.47888184 C278.40537424 65.2942606 278.41202107 66.10963937 278.41886932 66.94972658 C278.43740949 69.66127548 278.43490013 72.37237963 278.43237305 75.08398438 C278.4413957 77.03588479 278.45172415 78.98777955 278.46325684 80.93966675 C278.49079379 86.22416349 278.5001069 91.50855262 278.50611091 96.7931118 C278.51550313 102.32114283 278.54170725 107.84909375 278.56611633 113.3770752 C278.6097616 123.8386696 278.63832073 134.30024844 278.66143972 144.76190615 C278.68850192 156.67484951 278.73241284 168.58771221 278.77772844 180.50059795 C278.8705465 205.00035488 278.94224028 229.50013711 279 254 C279.86165771 253.12263184 280.72331543 252.24526367 281.61108398 251.34130859 C284.84054068 248.05714139 288.08025228 244.78324901 291.32299805 241.51220703 C292.71932733 240.10088426 294.11294106 238.68686898 295.50366211 237.27001953 C297.51470984 235.22217115 299.53565048 233.184528 301.55859375 231.1484375 C302.16835556 230.52319183 302.77811737 229.89794617 303.40635681 229.25375366 C313.45410609 219.20220944 324.31994783 213.57480781 338.6171875 212.97265625 C350.48193715 213.06856069 361.59394471 217.86368389 370.25390625 226.01953125 C373.46974307 229.66702402 375.80208754 233.67972832 378 238 C378.33 238.63550781 378.66 239.27101562 379 239.92578125 C383.58767572 250.22599549 382.83259681 262.54150768 378.9140625 272.859375 C373.46546615 285.01635876 363.66238051 293.50655696 354.04736328 302.3605957 C345.61899783 310.17355979 337.57344446 318.37660627 329.4921875 326.54516602 C320.16232573 335.95551539 320.16232573 335.95551539 316.109375 339.390625 C309.43087664 345.07400608 303.41384465 351.52218661 297.25 357.75 C294.6539521 360.37270007 292.054564 362.9920235 289.453125 365.609375 C288.57022797 366.50471954 288.57022797 366.50471954 287.66949463 367.41815186 C287.11501648 367.97593323 286.56053833 368.5337146 285.98925781 369.10839844 C285.47329041 369.629935 284.957323 370.15147156 284.42572021 370.68881226 C283 372 283 372 280.63867188 373.34521484 C277.80134588 376.21044065 278.34824983 380.05234773 278.328125 383.8671875 C278.3148114 384.73892609 278.3014978 385.61066467 278.28778076 386.50881958 C278.26753291 388.35296186 278.25814658 390.19725059 278.25878906 392.04150391 C278.25004788 394.85956303 278.17746975 397.67133377 278.1015625 400.48828125 C278.08982386 402.28122859 278.0818866 404.07420568 278.078125 405.8671875 C278.0350119 407.12678787 278.0350119 407.12678787 277.99102783 408.41183472 C278.02903702 410.85415815 278.1477461 412.70753228 279 415 C280.89390825 416.71093251 282.72533227 417.81341412 285.00775146 418.94656372 C289.66141305 421.40726873 292.40454794 425.99536793 294.37792969 430.77523804 C295.72398952 435.58926413 295.46788638 440.61925649 295.46875 445.58203125 C295.47636353 446.7913884 295.48397705 448.00074554 295.49182129 449.24674988 C295.5026015 451.79932598 295.50548389 454.35194612 295.50097656 456.90454102 C295.50000579 460.78933137 295.54162475 464.67213582 295.5859375 468.55664062 C295.5911462 471.04426674 295.59383267 473.53189968 295.59375 476.01953125 C295.61014526 477.17089066 295.62654053 478.32225006 295.64343262 479.50849915 C295.57327627 487.78523988 293.9737036 494.67160999 288.24450684 500.91218567 C282.29289399 506.51764541 275.98127495 508.45393919 267.92298889 508.39440918 C267.13861039 508.40050028 266.35423189 508.40659139 265.54608434 508.41286707 C262.93299839 508.42943894 260.32040282 508.42472968 257.70727539 508.41992188 C255.82761634 508.42726553 253.94796179 508.43585262 252.0683136 508.44558716 C246.97327209 508.46777913 241.87839242 508.47073504 236.78330922 508.46883965 C232.52633019 508.46871985 228.26938533 508.47728747 224.01241583 508.48561716 C213.96829628 508.5048424 203.92425985 508.50773803 193.88012695 508.50097656 C183.52524661 508.49433413 173.17072234 508.51721042 162.81591421 508.55429029 C153.91803628 508.58499451 145.02027285 508.5963466 136.122343 508.59245348 C130.81128645 508.59038698 125.5005071 508.59585041 120.18950081 508.62034607 C115.19477014 508.64262285 110.20061835 508.64072747 105.20588493 508.62041855 C103.37575709 508.61701032 101.54559019 508.62208952 99.71551514 508.63640213 C82.5736935 508.76118648 82.5736935 508.76118648 76 503 C74 500.6875 74 500.6875 73 499 C71.95827637 499.40895508 71.95827637 499.40895508 70.89550781 499.82617188 C67.68802282 501.07169376 64.46948687 502.28585603 61.25 503.5 C60.15816406 503.92925781 59.06632813 504.35851562 57.94140625 504.80078125 C50.5564117 507.55376739 43.89997147 509.0202716 36 508 C29.6017642 504.91513631 26.08926799 500.01711674 23.72583008 493.43115234 C23.32894485 492.34007172 22.93205963 491.24899109 22.52314758 490.12484741 C22.10945419 488.95700714 21.6957608 487.78916687 21.26953125 486.5859375 C20.83364182 485.37934479 20.39775238 484.17275208 19.94865417 482.92959595 C18.79463356 479.73464596 17.65231285 476.53563465 16.51239014 473.33563232 C15.34947929 470.07792018 14.17514126 466.82433429 13.00195312 463.5703125 C2.80206749 435.24879405 2.80206749 435.24879405 6.046875 427.5 C7.25873202 425.50400021 8.39519564 423.69720218 10 422 C10.66 422 11.32 422 12 422 C9.77678441 417.65023037 7.26353507 413.99637054 4.125 410.25 C-0.10778389 405.18739522 -4.0434103 399.9517961 -7.9375 394.625 C-11.88528079 389.22804049 -15.84396669 383.84998052 -19.9375 378.5625 C-21.15252191 376.98776766 -22.3675207 375.41301739 -23.58203125 373.83789062 C-24.62249264 372.48930362 -25.66436191 371.14180252 -26.70703125 369.79492188 C-37.40545469 355.9320174 -47.9189875 342.00354986 -54.66796875 325.73046875 C-55.00257111 324.92868195 -55.33717346 324.12689514 -55.68191528 323.30081177 C-60.40243248 311.79919893 -64.49999118 300.05833516 -68.67078781 288.34944153 C-70.60740202 282.91964129 -72.55820308 277.49490314 -74.50617027 272.06916809 C-75.24562949 270.00910587 -75.98450572 267.94883519 -76.7233429 265.8885498 C-81.23295997 253.31961063 -85.82238707 240.78056973 -90.4375 228.25 C-91.16725173 226.26541644 -91.89690751 224.2807976 -92.62646484 222.29614258 C-95.8357748 213.56993599 -99.05430719 204.8472809 -102.29298401 196.13192749 C-103.70093703 192.3396518 -105.10326933 188.54531188 -106.50466919 184.75061035 C-107.15721599 182.9882638 -107.81245654 181.22691181 -108.47067261 179.4666748 C-114.1105597 164.38314907 -119.42573963 150.08891739 -112.33984375 134.37890625 C-107.40403673 125.61533053 -100.49275142 120.25365804 -91 117 C-80.77288136 115.11355932 -80.77288136 115.11355932 -77 117 C-77.29245605 116.23445801 -77.58491211 115.46891602 -77.88623047 114.68017578 C-78.98462677 111.79367222 -80.0758721 108.90458748 -81.16259766 106.01367188 C-81.85955708 104.16594121 -82.56445655 102.32121171 -83.26953125 100.4765625 C-87.80674491 88.37732607 -91.45836226 76.84342817 -86.3125 64.3125 C-81.39585195 54.51419783 -75.4250943 49.60299658 -65.6171875 44.84375 C-62.36624129 43.79568376 -59.59575345 43.80614639 -56.1875 43.875 C-54.44533203 43.90207031 -54.44533203 43.90207031 -52.66796875 43.9296875 C-51.78753906 43.95289063 -50.90710938 43.97609375 -50 44 C-50.32226562 43.16984375 -50.64453125 42.3396875 -50.9765625 41.484375 C-53.45767378 33.03723276 -53.27892692 22.29697594 -49.453125 14.30859375 C-44.24326243 6.03163467 -37.58597406 -0.44367614 -28.21484375 -3.6015625 C-18.85641433 -5.28508949 -8.197145 -5.14575431 0 0 Z M-31.3125 20.625 C-34.49478174 25.1037669 -34.44280738 28.61688798 -34 34 C-33.32811264 37.00739427 -32.31749395 39.83546479 -31.23828125 42.71875 C-30.94060852 43.54889618 -30.64293579 44.37904236 -30.33624268 45.23434448 C-29.3421656 47.99479275 -28.32751942 50.74719026 -27.3125 53.5 C-26.59450797 55.47957686 -25.877659 57.45956862 -25.16186523 59.43994141 C-22.79588454 65.96783173 -20.39882854 72.4841242 -18 79 C-17.15153432 81.30951213 -16.30322871 83.61908307 -15.45507812 85.92871094 C-11.50181171 96.68916421 -7.53741774 107.44548647 -3.5655365 118.19908142 C1.52642163 131.98687681 6.60302698 145.78009178 11.6242981 159.59381104 C12.36791003 161.63742846 13.11337922 163.68037115 13.86080933 165.72259521 C14.88621734 168.52549554 15.90495922 171.3307282 16.921875 174.13671875 C17.37183586 175.36072136 17.37183586 175.36072136 17.83088684 176.60945129 C21.53017275 186.87930901 21.53017275 186.87930901 20.3125 191.75 C18.73500827 194.45427154 18.02061646 195.18361717 15 196 C8.85434917 195.67654469 8.85434917 195.67654469 6.40510559 193.73703003 C4.75522717 191.69740512 3.98053692 189.85975067 3.08081055 187.39501953 C2.7308049 186.44874191 2.38079926 185.50246429 2.02018738 184.5275116 C1.64614273 183.48976089 1.27209808 182.45201019 0.88671875 181.3828125 C0.28305229 179.73826836 0.28305229 179.73826836 -0.33280945 178.0605011 C-1.43668553 175.04762668 -2.5329363 172.03210538 -3.62609863 169.01533127 C-4.54380325 166.48799696 -5.46861579 163.96329197 -6.39367867 161.43864346 C-11.44069762 147.66392988 -16.41666104 133.86416086 -21.34782982 120.04758453 C-22.10059425 117.93943253 -22.854455 115.83167601 -23.60871887 113.72406006 C-24.1039772 112.33996718 -24.59923174 110.95587295 -25.09448242 109.57177734 C-25.33703797 108.89403763 -25.57959352 108.21629791 -25.82949924 107.51802063 C-27.26672533 103.4988994 -28.69414099 99.47645646 -30.11427021 95.45126438 C-30.78960856 93.54139637 -31.46919524 91.63310276 -32.15058899 89.72538757 C-32.9797328 87.40317735 -33.80196458 85.07848175 -34.61564636 82.75080872 C-38.5851793 71.27748028 -38.5851793 71.27748028 -47 63 C-51.60131537 61.46622821 -56.34779492 61.09525168 -61.00390625 62.68359375 C-65.3518207 64.94676304 -67.79907301 67.68279706 -70 72 C-71.7910705 78.68292169 -69.90881061 83.53546201 -67.66015625 89.8125 C-67.29624283 90.8636499 -66.93232941 91.9147998 -66.55738831 92.99780273 C-65.39188341 96.33946596 -64.200764 99.67085519 -63 103 C-62.62462097 104.04220703 -62.24924194 105.08441406 -61.86248779 106.15820312 C-59.521602 112.62584177 -57.13440388 119.0757576 -54.73278809 125.52105713 C-52.44971923 131.65302591 -50.1836943 137.79129474 -47.91796875 143.9296875 C-47.68156803 144.5699374 -47.44516731 145.2101873 -47.20160294 145.86983871 C-41.67600073 160.83904128 -36.21567331 175.83170118 -30.79812622 190.84033203 C-29.77078622 193.68590337 -28.74013625 196.53024046 -27.70651245 199.37353516 C-26.48744578 202.72746024 -25.27503884 206.08371799 -24.06772423 209.44189072 C-23.41076111 211.26445053 -22.74732851 213.08467429 -22.08369446 214.90481567 C-17.20008323 228.54692189 -17.20008323 228.54692189 -18.9375 233.875 C-21.57334137 236.59071535 -23.37567739 236.78616238 -27.06640625 236.99609375 C-31.25875721 237.00456315 -31.25875721 237.00456315 -33 236 C-33.71346866 234.01621399 -34.37296355 232.01277662 -35 230 C-35.65195765 228.18456443 -36.31227779 226.37211381 -36.98022461 224.5625 C-37.36536728 223.51764938 -37.75050995 222.47279877 -38.14732361 221.39628601 C-38.76855858 219.71512444 -38.76855858 219.71512444 -39.40234375 218 C-39.83627945 216.82303055 -40.27021515 215.6460611 -40.71730042 214.4334259 C-42.84308641 208.6686697 -44.97236846 202.90520878 -47.10273552 197.1421442 C-48.29689526 193.91136856 -49.49039015 190.68034763 -50.68359375 187.44921875 C-50.91810116 186.81433722 -51.15260857 186.17945568 -51.39422226 185.52533531 C-54.18971173 177.95405967 -56.957616 170.37447613 -59.66015625 162.76953125 C-60.16076892 161.36909781 -60.66149436 159.96870468 -61.16235352 158.56835938 C-62.02358226 156.15019128 -62.87511895 153.72853818 -63.71459961 151.30273438 C-66.00768213 144.88904454 -68.11045794 139.65627263 -73.921875 135.6875 C-79.36210145 133.64160287 -83.59708585 133.81882355 -89 136 C-93.59089085 138.8905609 -95.73374648 141.72747048 -97.65234375 146.64453125 C-98.82305223 154.57641004 -95.40681529 162.11422979 -92.72265625 169.40234375 C-92.28424911 170.61304535 -91.84584198 171.82374695 -91.39414978 173.07113647 C-90.20640506 176.35033818 -89.00830158 179.62566382 -87.80804443 182.90030289 C-86.55691311 186.3190141 -85.31522266 189.74115221 -84.07226562 193.1628418 C-81.30025757 200.78753472 -78.51331624 208.40672018 -75.72318268 216.02479553 C-74.57850477 219.15121572 -73.43557743 222.27827486 -72.29248047 225.40527344 C-65.26297312 244.62885976 -58.21565343 263.84537833 -51 283 C-49.70707031 282.7834375 -48.41414063 282.566875 -47.08203125 282.34375 C-19.58115851 277.87648204 7.76079191 280.27337656 31.359375 296.203125 C42.84525192 304.54058896 51.22854043 314.27191548 59 326 C59.60585937 326.91007812 60.21171875 327.82015625 60.8359375 328.7578125 C70.87796122 344.92877088 77.10219725 363.45703917 83.42089844 381.32373047 C83.85950195 382.55365723 84.29810547 383.78358398 84.75 385.05078125 C85.13671875 386.15075439 85.5234375 387.25072754 85.921875 388.3840332 C86.84617352 391.10239025 86.84617352 391.10239025 89 393 C96.5396046 390.28890592 104.07855121 387.57599218 111.616745 384.86097813 C115.12001094 383.59927403 118.62347073 382.33811489 122.12744141 381.07836914 C139.46641506 374.84416143 156.77019633 368.53173694 174 362 C172.58481243 357.89532185 171.16757401 353.79135453 169.75 349.6875 C169.35425781 348.53958984 168.95851563 347.39167969 168.55078125 346.20898438 C168.15761719 345.07138672 167.76445312 343.93378906 167.359375 342.76171875 C166.77446289 341.05508057 166.77446289 341.05508057 166.17773438 339.31396484 C165.42065763 337.18366639 164.62284135 335.06717899 163.77539062 332.97119141 C163.40091797 332.03839355 163.02644531 331.1055957 162.640625 330.14453125 C162.30063477 329.33991455 161.96064453 328.53529785 161.61035156 327.70629883 C160.08727474 320.95297619 162.4148998 315.27521492 165.359375 309.328125 C165.87013832 308.26094742 165.87013832 308.26094742 166.39122009 307.17221069 C167.50055538 304.85970741 168.62532049 302.55507365 169.75 300.25 C170.52970301 298.63002022 171.30809014 297.00940648 172.08520508 295.38818359 C173.65076087 292.12312332 175.22067326 288.86021678 176.79345703 285.59863281 C179.82205098 279.30357589 182.75980286 272.96757779 185.6875 266.625 C186.73016082 264.37225329 187.77312998 262.11964926 188.81640625 259.8671875 C189.33348145 258.75053711 189.85055664 257.63388672 190.38330078 256.48339844 C192.98752599 250.87224089 195.6094742 245.26938591 198.22955322 239.6656189 C202.95280047 229.56123089 207.65593181 219.44783825 212.3125 209.3125 C213.00593506 207.80671387 213.00593506 207.80671387 213.71337891 206.27050781 C214.13409668 205.35237305 214.55481445 204.43423828 214.98828125 203.48828125 C215.35477783 202.68946533 215.72127441 201.89064941 216.09887695 201.06762695 C218.86494708 194.72087867 219.11083358 187.32305299 217.38671875 180.61328125 C214.42968316 173.98274771 208.69476026 168.89544151 202.0625 166.0625 C194.89474502 163.82257657 189.00218311 164.54137383 182.23828125 167.63671875 C176.48299573 171.14211953 173.38488968 174.33432536 170.5 180.4375 C170.18667725 181.09129639 169.87335449 181.74509277 169.55053711 182.41870117 C168.35060393 184.93831081 167.17659482 187.46940426 166 190 C165.12242314 191.86619485 164.24261861 193.73133131 163.36282349 195.59648132 C160.52001473 201.62637403 157.6895492 207.66207629 154.87890625 213.70703125 C154.08335327 215.41596558 154.08335327 215.41596558 153.27172852 217.15942383 C151.94866947 219.98894621 151.94866947 219.98894621 151 223 C149.1875 224.0625 149.1875 224.0625 147 225 C146.39542969 225.34289062 145.79085937 225.68578125 145.16796875 226.0390625 C140.26648944 228.21161008 134.6432837 227.55809635 129.6875 225.875 C122.61241992 220.93889762 120.39497237 214.61917707 117.65625 206.73046875 C117.05333885 205.04463181 117.05333885 205.04463181 116.43824768 203.32473755 C115.34301084 200.2568712 114.25866965 197.18540712 113.17848587 194.11221695 C112.03295397 190.86259192 110.87270817 187.61824014 109.71264648 184.3737793 C109.23673646 183.042436 108.76083011 181.71109138 108.28492737 180.37974548 C107.92828601 179.38219899 107.92828601 179.38219899 107.56443977 178.36450005 C106.83482549 176.3218885 106.10685805 174.27869636 105.3792572 172.23536682 C100.81405029 159.42349593 96.11656108 146.66238396 91.39373779 133.90774536 C85.26408072 117.35351195 79.16971846 100.78886379 73.23651123 84.16311646 C70.83558014 77.43804299 68.42006938 70.71820642 66 64 C65.74132141 63.28074341 65.48264282 62.56148682 65.21612549 61.82043457 C63.70912331 57.63518864 62.18709771 53.45600458 60.6416626 49.28479004 C59.96397712 47.44680974 59.29982186 45.60385793 58.63623047 43.76074219 C55.91472773 36.48258013 53.77167567 32.37779553 47.125 28.1875 C42.91955677 26.58943157 39.4353339 26.04837793 35.140625 27.7265625 C30.17623519 30.33604945 26.80810227 33.57569318 25 39 C24.10811516 46.91888465 26.07365216 53.3201381 28.85546875 60.66015625 C29.26507339 61.78001923 29.67467804 62.8998822 30.09669495 64.05368042 C31.21320069 67.09680432 32.34372107 70.13424548 33.4808197 73.1697197 C34.67054252 76.35628641 35.84165157 79.54967897 37.01464844 82.74243164 C38.98289444 88.09268689 40.96193072 93.43883492 42.94873047 98.78222656 C45.9966625 106.98061892 49.01833116 115.18855645 52.03515625 123.3984375 C53.00286075 126.0312239 53.97072604 128.66395113 54.9387207 131.29663086 C55.29021132 132.25262066 55.29021132 132.25262066 55.64880276 133.22792339 C58.49708429 140.97231826 61.35744946 148.71225777 64.22132874 156.45089722 C64.57464767 157.40674713 64.92796661 158.36259705 65.29199219 159.34741211 C65.59949402 160.17840927 65.90699585 161.00940643 66.22381592 161.86558533 C68.03507739 166.84634073 69.19839531 171.321234 66.9375 176.375 C64.03326481 178.81081016 61.74042509 178.93550991 58 179 C55.04040165 177.63094347 53.37955665 176.65020415 51.72261047 173.81175232 C51.41494247 172.95662552 51.10727448 172.10149872 50.7902832 171.22045898 C50.24628624 169.7481633 50.24628624 169.7481633 49.69129944 168.24612427 C49.12674294 166.63735916 49.12674294 166.63735916 48.55078125 164.99609375 C48.14077377 163.87137665 47.7307663 162.74665955 47.30833435 161.58786011 C46.19283836 158.51756437 45.09281533 155.44225086 43.99937439 152.364048 C42.84389219 149.12314697 41.66844187 145.88950346 40.49511719 142.6550293 C38.33328933 136.68645634 36.18828001 130.71200726 34.05138969 124.7344656 C31.78295811 118.3895317 29.49984613 112.04992144 27.21484375 105.7109375 C26.46208205 103.62095842 25.70939556 101.53095224 24.95678711 99.44091797 C24.59132782 98.42608337 24.22586853 97.41124878 23.84933472 96.36566162 C22.38722871 92.30498213 20.92567365 88.24410455 19.46437073 84.18313599 C18.7406973 82.17236326 18.01677129 80.16168142 17.29258728 78.15109253 C15.41216127 72.92952248 13.53645298 67.70632495 11.66796875 62.48046875 C9.7452309 57.10620784 7.80668216 51.73787788 5.85754395 46.37313843 C5.12834791 44.3580442 4.40448863 42.3410095 3.68640137 40.32192993 C2.69572203 37.5386863 1.68614261 34.76300024 0.671875 31.98828125 C0.24636353 30.77156738 0.24636353 30.77156738 -0.18774414 29.53027344 C-2.38867082 23.60151543 -5.39332319 18.06849716 -11.04083252 14.82954407 C-19.00528815 11.4572612 -25.91400111 14.49697423 -31.3125 20.625 Z M178.6875 20.625 C176.23138723 24.08175131 175.87557196 25.82539105 175.87974548 30.0239563 C175.87837082 31.08688904 175.87699615 32.14982178 175.87557983 33.2449646 C175.87917511 34.4159671 175.88277039 35.5869696 175.88647461 36.79345703 C175.88632858 38.02269897 175.88618256 39.25194092 175.8860321 40.51843262 C175.88661046 43.89426342 175.89163463 47.27003348 175.89860606 50.64585352 C175.90484642 54.17193073 175.90544394 57.6980087 175.90663147 61.22409058 C175.90974277 67.90348324 175.91795345 74.58285959 175.92798096 81.26224506 C175.93914834 88.86553025 175.94465412 96.46881621 175.94967639 104.07210755 C175.96013622 119.71474783 175.97773178 135.35737181 176 151 C176.87825439 150.78706299 177.75650879 150.57412598 178.66137695 150.35473633 C179.82113037 150.07911865 180.98088379 149.80350098 182.17578125 149.51953125 C183.32216064 149.24471924 184.46854004 148.96990723 185.6496582 148.68676758 C192.11263433 147.36195873 197.87466708 147.67875431 204.30078125 149.01953125 C205.18548096 149.20233643 206.07018066 149.3851416 206.98168945 149.57348633 C207.98075317 149.7846106 207.98075317 149.7846106 209 150 C209.09356599 134.10100141 209.1640391 118.20207751 209.20724869 102.3028717 C209.22784763 94.92008239 209.25591683 87.53746445 209.30175781 80.15478516 C209.34170773 73.71777605 209.3674522 67.28089109 209.37635398 60.84376144 C209.38155505 57.43733087 209.39372278 54.03125539 209.42292023 50.62493896 C209.45199164 46.81615211 209.45595423 43.00809885 209.45410156 39.19921875 C209.46848267 38.07784012 209.48286377 36.95646149 209.49768066 35.80110168 C209.46380374 29.35713307 208.80078343 24.34222657 205 19 C200.11883485 14.35694046 196.03299394 13.64271987 189.50390625 13.71875 C184.54953445 14.2752473 181.86074694 17.02293591 178.6875 20.625 Z M128.25 52.75 C123.76367497 59.23024726 123.67348715 65.67660672 123.56665039 73.32104492 C123.54547653 74.33713333 123.52430267 75.35322174 123.50248718 76.40010071 C123.2957551 87.11455362 123.21140077 97.83156293 123.13500977 108.54760742 C123.09535629 113.59019474 123.01946924 118.63009787 122.90942383 123.67163086 C122.2509773 154.53186111 123.23574035 180.93237325 137 209 C139.79023049 205.42682468 141.64266989 201.69482839 143.46875 197.56640625 C143.79033081 196.85145493 144.11191162 196.1365036 144.4432373 195.39988708 C145.4668732 193.12283755 146.48395308 190.84294481 147.5 188.5625 C148.51668478 186.28592633 149.53485273 184.01005786 150.5567627 181.73582458 C151.19106406 180.32373333 151.82232972 178.91027324 152.45007324 177.49525452 C153.66305636 174.79113421 154.79092617 172.27754766 156.58010864 169.90238953 C158.66640001 165.63781661 158.41845767 161.71628393 158.38818359 157.02832031 C158.39344055 156.02767548 158.39869751 155.02703064 158.40411377 153.99606323 C158.4173106 150.68992471 158.40857387 147.3842684 158.3984375 144.078125 C158.40045896 141.7751252 158.40337099 139.47212603 158.40713501 137.16912842 C158.41155848 132.34055491 158.40512876 127.5121479 158.39111328 122.68359375 C158.37406 116.5088836 158.38383821 110.33456576 158.40183067 104.15987015 C158.41270058 99.40192745 158.40920677 94.64407684 158.4014473 89.88613129 C158.39945216 87.61046044 158.40188033 85.33478112 158.40888596 83.05912018 C158.41654877 79.86894288 158.40482659 76.67938899 158.38818359 73.48925781 C158.39425629 72.55699371 158.40032898 71.62472961 158.40658569 70.66421509 C158.34231391 63.97665986 157.57040074 57.22468456 153.28125 51.84375 C152.6934375 51.4003125 152.105625 50.956875 151.5 50.5 C150.9121875 50.0359375 150.324375 49.571875 149.71875 49.09375 C142.18238988 44.29788447 134.09023625 46.90976375 128.25 52.75 Z M231.25 52.875 C226.95102065 58.84580466 226.69514125 63.6049445 226.67773438 70.75634766 C226.66780457 71.73427277 226.65787476 72.71219788 226.64764404 73.71975708 C226.61846504 76.95122105 226.60480595 80.18248849 226.59375 83.4140625 C226.58223946 85.66742963 226.57072409 87.92079674 226.5592041 90.17416382 C226.53820079 94.90013539 226.52650535 99.62603911 226.51953125 104.35205078 C226.50858109 110.38782066 226.46056226 116.42268378 226.40358734 122.45816994 C226.36620686 127.11496538 226.35591655 131.77154549 226.3528595 136.42847824 C226.34683139 138.65230629 226.33085888 140.87613168 226.30448914 143.09981155 C225.92162687 159.56644396 225.92162687 159.56644396 233 174 C237.80664041 184.75771902 236.34040049 197.2614667 232.23123169 208.0111084 C230.06091252 213.14319822 227.58873129 218.12922644 225.125 223.125 C224.35476426 224.71598413 223.58623399 226.30779495 222.81933594 227.90039062 C221.27795844 231.09937986 219.73056052 234.29533676 218.17871094 237.48925781 C215.12521248 243.79066224 212.18338136 250.14190958 209.25 256.5 C208.20590286 258.75528875 207.16163317 261.01049763 206.1171875 263.265625 C205.60639648 264.36970703 205.09560547 265.47378906 204.56933594 266.61132812 C202.39476496 271.30688586 200.21236644 275.99878434 198.02832031 280.68994141 C196.93733302 283.03914057 195.8506491 285.39034368 194.76855469 287.74365234 C192.13945482 293.4551173 189.45595144 299.12379653 186.6328125 304.7421875 C185.84124756 306.35625488 185.84124756 306.35625488 185.03369141 308.00292969 C184.04333316 310.01895981 183.02891087 312.02342667 181.98583984 314.01269531 C179.73151194 318.6670587 178.47784962 321.8042359 179.9765625 326.875 C180.64116042 328.58720166 181.31636608 330.29530953 182 332 C182.61606323 334.0973575 183.2168972 336.19923151 183.8046875 338.3046875 C186.85252573 350.16618928 186.85252573 350.16618928 194.19921875 359.265625 C197.53416226 360.18869045 197.53416226 360.18869045 200.91015625 360.56640625 C206.08012629 361.29190141 208.78680139 364.0828733 212 368 C216.8802313 376.78539631 219.8907717 386.68229119 223.25 396.125 C224.06004025 398.39542161 224.87143862 400.6653262 225.68621826 402.93405151 C226.18884726 404.33415228 226.68866664 405.73526558 227.18536377 407.13748169 C228.16196222 410.31676234 228.16196222 410.31676234 230 413 C232.21855264 413.08783542 234.43988496 413.10694609 236.66015625 413.09765625 C237.32462265 413.0962413 237.98908905 413.09482635 238.6736908 413.09336853 C240.80333899 413.08775518 242.93288339 413.07520054 245.0625 413.0625 C246.50325369 413.05748671 247.94400903 413.05292351 249.38476562 413.04882812 C252.92321102 413.03778145 256.46159539 413.02050792 260 413 C259.99547569 412.1810022 259.99547569 412.1810022 259.99085999 411.34545898 C259.96619237 405.63414494 259.99056628 399.92449691 260.04272461 394.21337891 C260.05581981 392.08548941 260.05663957 389.95748601 260.04467773 387.82958984 C260.02959683 384.76026612 260.05945565 381.6940683 260.09765625 378.625 C260.08340103 377.68197021 260.06914581 376.73894043 260.05445862 375.76733398 C260.19169805 369.42829725 261.70638931 366.20306527 266.15562439 361.67858887 C268.58573974 359.46691108 271.05470398 357.31117638 273.55859375 355.18359375 C276.77194243 352.30957469 279.80402175 349.27456572 282.84375 346.21875 C283.46169434 345.59758301 284.07963867 344.97641602 284.71630859 344.33642578 C286.64608259 342.39280055 288.57346711 340.44683762 290.5 338.5 C304.7294143 324.12061446 304.7294143 324.12061446 310.82226562 318.95507812 C316.6295148 313.74157461 322.01241336 308.04542319 327.5 302.5 C342.84083118 286.99748378 342.84083118 286.99748378 350 281 C356.76614561 275.01931076 362.18478027 268.99511147 363.44140625 259.75390625 C363.74841421 251.18739369 362.18773828 245.69106538 356.625 239.25 C350.2124021 233.75348751 344.27477023 230.68415586 335.671875 231.1171875 C326.11885115 232.75389438 319.04044281 239.50842019 312.55078125 246.26171875 C311.88966843 246.93419144 311.2285556 247.60666412 310.54740906 248.29951477 C308.46156104 250.42161401 306.38586301 252.5532055 304.3125 254.6875 C301.56738024 257.51267649 298.81228099 260.32756141 296.05078125 263.13671875 C295.43189529 263.78049973 294.81300934 264.4242807 294.17536926 265.08757019 C290.13393815 269.19675036 286.33608018 272.48128022 280.4375 273.3984375 C275.23200114 273.34838463 271.41988959 273.05182853 267 270 C261.49294686 264.33997317 260.70133319 258.36971239 260.7484436 250.73280334 C260.74547346 249.91590528 260.74250333 249.09900722 260.73944318 248.25735468 C260.73182306 245.52835001 260.73828902 242.79956184 260.74462891 240.07055664 C260.74187811 238.11060948 260.73819766 236.15066344 260.73365784 234.1907196 C260.72555251 229.97392838 260.72337569 225.75719017 260.72560501 221.54039192 C260.72843939 214.8715647 260.71408178 208.20284332 260.69662476 201.53404236 C260.64960864 182.57194604 260.62565401 163.6098571 260.61914062 144.64770508 C260.61539046 134.17214245 260.5973658 123.69669972 260.56404626 113.22118849 C260.54382657 106.59293589 260.54146471 99.96499241 260.55232644 93.33672154 C260.55493362 89.21183287 260.54092931 85.08712419 260.52224541 80.96228218 C260.51692337 79.05111853 260.5184204 77.13992173 260.52728081 75.22877121 C260.53841264 72.61681077 260.52495864 70.00606666 260.50552368 67.3941803 C260.51464834 66.64047325 260.523773 65.8867662 260.53317416 65.11021954 C260.45274692 59.54391296 259.05791387 56.48768676 256 52 C251.5407457 47.8670326 248.17556913 46.67695844 242.0546875 46.7890625 C237.24063365 47.28328096 234.51506994 49.46151779 231.25 52.875 Z M-44 300 C-40.72889327 322.2616986 -25.2433575 341.39481969 -11.92333984 358.51513672 C-9.24144844 361.98001241 -6.61720397 365.48616552 -4 369 C1.30078692 376.0947313 6.66953126 383.13671979 12.04296875 390.17651367 C18.0741983 398.08375309 24.04935879 406.03200125 30 414 C37.97038413 411.76155457 45.74675851 409.02646122 53.5168457 406.18383789 C55.58743471 405.42840281 57.66176663 404.68389901 59.73632812 403.93945312 C61.05492861 403.45899453 62.37329715 402.97789878 63.69140625 402.49609375 C64.87935791 402.06482178 66.06730957 401.6335498 67.29125977 401.18920898 C70.12074204 400.29118266 70.12074204 400.29118266 71 398 C70.35476329 395.43658688 70.35476329 395.43658688 69.26171875 392.48828125 C68.85872559 391.34891113 68.45573242 390.20954102 68.04052734 389.03564453 C67.37077881 387.19268799 67.37077881 387.19268799 66.6875 385.3125 C66.4616925 384.68696228 66.23588501 384.06142456 66.00323486 383.41693115 C58.30928086 362.14780569 50.2460263 340.11288666 35 323 C33.91138672 321.75283203 33.91138672 321.75283203 32.80078125 320.48046875 C18.06132052 304.62032175 -1.09262885 298.55902885 -22.2265625 296.81640625 C-28.83356461 296.57742958 -38.03171229 297.01585614 -44 300 Z M181.671875 377.6640625 C180.83683945 377.96287827 180.00180389 378.26169403 179.14146423 378.56956482 C176.3397937 379.5759759 173.54505753 380.60037923 170.75 381.625 C168.73966473 382.35173124 166.72899531 383.07753868 164.71801758 383.80249023 C146.64829749 390.33395297 128.62927497 397.0079962 110.61230469 403.68334961 C97.16063102 408.66151326 83.68521003 413.56370527 70.17578125 418.3828125 C68.68160111 418.91639835 67.18743498 419.45002343 65.69328308 419.98368835 C59.14467625 422.3216952 52.5946876 424.6555237 46.03875256 426.97291183 C43.353476 427.92362282 40.6702639 428.88005939 37.98752403 429.83790207 C36.13209258 430.49807622 34.27393222 431.15056469 32.41572571 431.80288696 C30.76651375 432.39292007 30.76651375 432.39292007 29.08398438 432.99487305 C28.12117554 433.33568405 27.1583667 433.67649506 26.16638184 434.02763367 C23.83699187 434.79862293 23.83699187 434.79862293 23 437 C23.45582945 438.99071999 23.45582945 438.99071999 24.30761719 441.23095703 C24.61834167 442.10591827 24.92906616 442.98087952 25.24920654 443.88235474 C25.59493713 444.8312558 25.94066772 445.78015686 26.296875 446.7578125 C26.64631165 447.73483124 26.99574829 448.71184998 27.35577393 449.71847534 C28.48011258 452.85657399 29.61498619 455.99074866 30.75 459.125 C31.50067974 461.21590192 32.25068807 463.30704502 33 465.3984375 C35.94999286 473.61811974 38.91618847 481.82945211 42 490 C45.56929316 489.36292367 48.85423777 488.4311733 52.26269531 487.20019531 C53.30181564 486.82678009 54.34093597 486.45336487 55.4115448 486.06863403 C56.53901627 485.65926605 57.66648773 485.24989807 58.828125 484.828125 C60.01992874 484.39837372 61.21173248 483.96862244 62.43965149 483.52584839 C65.6975211 482.35069746 68.95364873 481.17078893 72.20940018 479.98978424 C74.25744725 479.24730013 76.30598778 478.50619455 78.35470581 477.76556396 C100.47300938 469.7693527 122.5573809 461.68244092 144.61303711 453.51489258 C155.79053622 449.37779585 166.97759311 445.27469808 178.203125 441.26953125 C180.27404158 440.52792813 182.34492461 439.78623133 184.41577148 439.04443359 C188.24178368 437.67435699 192.07248999 436.318715 195.90649414 434.97119141 C197.6006225 434.36546605 199.29456351 433.75921633 200.98828125 433.15234375 C201.74888855 432.88976273 202.50949585 432.6271817 203.29315186 432.35664368 C207.35217691 430.8868041 210.55724147 429.65041443 213 426 C213.78635524 420.18576392 212.09405821 415.52963218 210.078125 410.1796875 C209.77686707 409.35800079 209.47560913 408.53631409 209.16522217 407.68972778 C208.5284242 405.96151963 207.88600429 404.23537372 207.23828125 402.51123047 C206.25244502 399.88152205 205.28914168 397.24433407 204.328125 394.60546875 C203.70445445 392.92138206 203.07949736 391.23777115 202.453125 389.5546875 C202.16753723 388.77124969 201.88194946 387.98781189 201.58770752 387.18063354 C199.95676012 382.88280967 198.36759631 379.25701618 195 376 C190.32902208 373.9489026 186.18344035 375.9902688 181.671875 377.6640625 Z M226.06420898 435.87792969 C225.55530373 436.92917023 225.55530373 436.92917023 225.03611755 438.00164795 C222.57248093 442.75324518 217.98984229 445.38563926 213 447 C213 447.33 213 447.66 213 448 C214.05388916 448.0093457 215.10777832 448.01869141 216.19360352 448.02832031 C220.1282679 448.06839089 224.06216434 448.13419552 227.99633789 448.20751953 C229.69447922 448.23563071 231.39274901 448.25689402 233.09106445 448.27099609 C235.54184257 448.29256352 237.99109236 448.33928006 240.44140625 448.390625 C241.56839684 448.39246796 241.56839684 448.39246796 242.71815491 448.39434814 C248.20836788 448.54466293 251.47101686 449.86001859 256 453 C260.07819021 458.36708339 260.60570043 462.63049928 260.4375 469.25 C260.44458984 470.05179687 260.45167969 470.85359375 260.45898438 471.6796875 C260.39582398 477.49044362 260.39582398 477.49044362 258.68383789 479.69433594 C255.9242571 481.83414137 253.42487389 481.8819009 250 482 C247.35546875 480.92578125 247.35546875 480.92578125 245 479 C244.07421875 475.86328125 244.07421875 475.86328125 243.6875 472.3125 C243.47673828 470.54326172 243.47673828 470.54326172 243.26171875 468.73828125 C243.17535156 467.83464844 243.08898437 466.93101562 243 466 C193.06762322 463.40849067 151.00874588 464.11168713 105.25138855 485.96224976 C102.86481642 487.06231123 100.44710137 488.04317437 98 489 C98 489.33 98 489.66 98 490 C120.74804337 490.0933806 143.4960552 490.16394843 166.24425125 490.20724869 C176.80629121 490.22788682 187.36821219 490.25603134 197.93017578 490.30175781 C207.13441093 490.34158726 216.33855993 490.36742371 225.54287887 490.37635398 C230.41795881 490.38157533 235.29279223 490.39387334 240.16779327 490.42292023 C244.75439309 490.45002785 249.34064435 490.45845445 253.92731667 490.45243073 C255.6123907 490.45353305 257.29747614 490.46151469 258.982481 490.4768219 C261.28051982 490.49667777 263.57723679 490.49195633 265.87530518 490.48101807 C267.16212818 490.48470524 268.44895119 490.48839241 269.77476883 490.49219131 C273.55538801 489.91524417 274.73438347 489.02322814 277 486 C277.59891692 483.62062356 277.59891692 483.62062356 277.51757812 481.01953125 C277.53649109 479.53779419 277.53649109 479.53779419 277.55578613 478.02612305 C277.54768921 476.96562744 277.53959229 475.90513184 277.53125 474.8125 C277.5350769 473.71784424 277.53890381 472.62318848 277.54284668 471.49536133 C277.54556736 469.18211955 277.53819534 466.86884708 277.52148438 464.55566406 C277.5000784 461.01297478 277.52128226 457.47231364 277.546875 453.9296875 C277.54423175 451.68228719 277.53910684 449.43488813 277.53125 447.1875 C277.53934692 446.12700439 277.54744385 445.06650879 277.55578613 443.97387695 C277.50006367 438.43665895 277.50006367 438.43665895 275.58178711 433.34277344 C271.53593793 431.23854928 267.66117732 431.34975876 263.16015625 431.328125 C261.72149452 431.3081546 261.72149452 431.3081546 260.25376892 431.28778076 C258.22728131 431.26754957 256.20066076 431.25814606 254.17407227 431.25878906 C251.07540359 431.25003645 247.9824263 431.17739745 244.88476562 431.1015625 C242.91408196 431.0898261 240.94337127 431.08188735 238.97265625 431.078125 C238.04856461 431.04938293 237.12447296 431.02064087 236.17237854 430.99102783 C231.13414709 431.06249086 228.78965986 431.44428126 226.06420898 435.87792969 Z " fill="#000000" transform="translate(123,4)"/>
<path d="M0 0 C6.16462887 4.37884352 9.14255463 10.60615867 10.6875 17.875 C10.62259075 21.83446435 10.25411175 23.99108567 8.125 27.3125 C5.28152874 29.13523799 3.01901203 29.50826275 -0.3515625 29.3203125 C-3.81517929 28.53375411 -5.24247295 26.65475061 -7.3125 23.875 C-8.41185122 21.57725413 -9.34331166 19.23271032 -10.3125 16.875 C-17.49264648 19.4650875 -24.67174579 22.05806609 -31.85015869 24.6529541 C-34.44695687 25.59164768 -37.04393569 26.52983904 -39.64105225 27.46765137 C-53.97559774 32.64472753 -68.29872618 37.8494011 -82.58138466 43.16819191 C-84.55788385 43.9040745 -86.53476372 44.63892506 -88.51176453 45.37345886 C-89.80350772 45.85351816 -91.09524059 46.3336052 -92.38696289 46.8137207 C-93.01740981 47.04804778 -93.64785673 47.28237486 -94.2974081 47.52380276 C-98.6280397 49.13468759 -102.95379142 50.75830868 -107.27905273 52.38354492 C-109.55307848 53.23004238 -111.82724113 54.07617214 -114.1015625 54.921875 C-115.12307907 55.30944473 -116.14459564 55.69701447 -117.19706726 56.09632874 C-130.52666798 61.02566975 -130.52666798 61.02566975 -136.1875 58.6875 C-138.48487593 56.72797347 -139.50569388 55.77950203 -140.3125 52.875 C-140.25 49.375 -140.25 49.375 -139.3125 45.875 C-135.74637306 42.45398006 -132.16506642 40.82562335 -127.55078125 39.16015625 C-126.87222076 38.91221817 -126.19366028 38.66428009 -125.49453735 38.40882874 C-123.20788845 37.57593567 -120.9165239 36.75687579 -118.625 35.9375 C-116.98023351 35.34120466 -115.33579346 34.74400823 -113.69165039 34.14599609 C-108.98114473 32.43557739 -104.26621427 30.73763812 -99.55065918 29.04119873 C-92.29436425 26.42789856 -85.04300648 23.80090936 -77.79100037 21.17573547 C-76.50479379 20.71016758 -75.21858468 20.24460668 -73.93237305 19.77905273 C-73.29463172 19.54820008 -72.65689039 19.31734743 -71.99982357 19.07949924 C-67.62072874 17.49477972 -63.23997542 15.91470579 -58.85864258 14.33618164 C-47.09965774 10.09440651 -35.36141866 5.81708046 -23.70799255 1.29177856 C-22.91820511 0.98650238 -22.12841766 0.6812262 -21.31469727 0.36669922 C-20.63367447 0.10122284 -19.95265167 -0.16425354 -19.25099182 -0.43777466 C-12.70699102 -2.75772419 -6.19832271 -3.61472278 0 0 Z " fill="#000000" transform="translate(308.3125,404.125)"/>
</svg>
