<?xml version="1.0" encoding="UTF-8"?>
<svg version="1.1" xmlns="http://www.w3.org/2000/svg" width="120" height="120">

    <path d="M0 0 C2.09984986 1.28627167 3.99380511 2.70625907 5.9296875 4.23046875 C8.0643005 5.8737599 10.20334634 7.50162041 12.3671875 9.10546875 C12.95491943 9.54133301 13.54265137 9.97719727 14.14819336 10.42626953 C18.80133487 13.73700467 23.54713442 15.94280444 28.8671875 17.98046875 C36.18572549 20.79186328 41.7582594 23.09465569 45.609375 30.4296875 C47.22701871 34.39932057 47.06538998 37.77089454 46.6796875 42.04296875 C46.62321045 42.74873047 46.5667334 43.45449219 46.50854492 44.18164062 C46.20187371 47.88375172 45.7480727 51.5518714 45.2421875 55.23046875 C44.59766018 60.99215236 45.60600638 66.6084957 46.45703125 72.30078125 C47.81901612 83.62439101 47.81901612 83.62439101 45.3046875 88.41796875 C45.00304687 89.03027344 44.70140625 89.64257812 44.390625 90.2734375 C40.0095422 96.14221419 34.69818229 98.33971603 28.0546875 100.79296875 C18.6825547 104.46147626 11.24229498 109.60515029 3.55102539 116.02880859 C-1.92094576 120.08437884 -7.46818819 120.02786818 -14.0703125 119.23046875 C-17.16250007 118.08110847 -19.49044496 116.26433258 -22.0703125 114.23046875 C-24.16240936 112.60637758 -26.25906081 110.99955603 -28.3828125 109.41796875 C-28.96466309 108.98395752 -29.54651367 108.54994629 -30.14599609 108.1027832 C-35.8293858 104.05511175 -41.94090578 101.50722372 -48.49731445 99.18237305 C-55.26197661 96.64926834 -58.91812782 93.02241318 -62.46484375 86.7734375 C-63.29099964 83.30358275 -63.06850177 80.05720035 -62.7578125 76.54296875 C-62.70584717 75.82818359 -62.65388184 75.11339844 -62.6003418 74.37695312 C-62.31817035 70.63722959 -61.90171474 66.94504941 -61.3828125 63.23046875 C-60.73828518 57.46878514 -61.74663138 51.8524418 -62.59765625 46.16015625 C-63.95964112 34.83654649 -63.95964112 34.83654649 -61.4453125 30.04296875 C-61.14367188 29.43066406 -60.84203125 28.81835938 -60.53125 28.1875 C-56.1501672 22.31872331 -50.83880729 20.12122147 -44.1953125 17.66796875 C-34.8231797 13.99946124 -27.38291998 8.85578721 -19.69165039 2.43212891 C-14.05566347 -1.74500219 -6.59902552 -2.45284533 0 0 Z M-36.3828125 26.48046875 C-45.4194401 35.72725048 -51.20876519 47.11702124 -51.0703125 60.23046875 C-50.35688762 71.38721946 -46.15038917 82.33403019 -38.0703125 90.23046875 C-28.14363734 98.40643938 -17.13673211 102.87417177 -4.19921875 102.046875 C6.88256133 100.64904318 17.52942612 95.78707748 24.69921875 87.08203125 C32.54167519 76.61441571 36.00815324 65.36477447 34.3671875 52.35546875 C32.19912233 40.98777569 26.51075614 31.50275992 17.3046875 24.60546875 C0.10109124 13.06833891 -19.78994618 14.1128416 -36.3828125 26.48046875 Z"
          fill="#32B5FF" transform="translate(68.0703125,0.76953125)"/>

  <g transform="translate(70,50) scale(0.05) translate(-1200,-800)">
    <path d="M0 0 C0.66 0 1.32 0 2 0 C2.11994635 75.10788302 2.23124684 150.21577758 2.29640198 225.32373047 C2.29736838 226.43490893 2.29833478 227.5460874 2.29933046 228.69093794 C2.3202796 252.83838698 2.33967104 276.98583704 2.35745731 301.13328862 C2.36618885 312.97476425 2.3752647 324.81623961 2.38452148 336.65771484 C2.3854368 337.83609966 2.38635211 339.01448447 2.38729516 340.22857791 C2.41713791 378.44062605 2.46972697 416.65260184 2.53408055 454.86460613 C2.60007851 494.12422035 2.64319109 533.38379452 2.65740493 572.64346329 C2.65942209 578.18543518 2.66170155 583.72740694 2.6641407 589.26937866 C2.66484864 590.90552818 2.66484864 590.90552818 2.66557089 592.57473122 C2.67385097 610.15077482 2.70633899 627.72669478 2.74782424 645.30268791 C2.78899107 662.96180221 2.80478691 680.62079363 2.79450964 698.27995425 C2.78917547 708.77860444 2.8034691 719.27680572 2.8455828 729.77537505 C2.87178119 736.78366518 2.87268194 743.79166048 2.8528227 750.79997076 C2.84222776 754.79648663 2.84281196 758.79215209 2.87418228 762.78857768 C2.90250672 766.42452884 2.89859808 770.05896608 2.86897983 773.69489392 C2.86162158 775.61853893 2.88864502 777.54222167 2.91705933 779.46567088 C2.83632245 785.36242788 2.53732165 789.11135128 -1.4152531 793.66017723 C-2.59429469 794.79024974 -3.78762163 795.90576893 -5 797 C-6.39755161 798.72932008 -7.78678925 800.46542415 -9.1640625 802.2109375 C-14.01936959 808.17262122 -19.30375188 813.60734618 -24.75585938 819.01660156 C-26.37346287 820.62347307 -27.98006913 822.24078494 -29.5859375 823.859375 C-36.06496184 830.34811812 -42.75390552 836.36128996 -50 842 C-50.82226074 842.64001953 -51.64452148 843.28003906 -52.49169922 843.93945312 C-91.07614603 873.61621873 -133.48772781 895.14183412 -179 912 C-179.76795898 912.28987793 -180.53591797 912.57975586 -181.32714844 912.87841797 C-193.972749 917.64799269 -206.65286643 921.8151127 -219.69189453 925.36816406 C-222.94856162 926.25966548 -226.19256847 927.19167521 -229.4375 928.125 C-230.54609375 928.43953125 -231.6546875 928.7540625 -232.796875 929.078125 C-234.87463904 929.67611563 -236.94797608 930.2897958 -239.015625 930.921875 C-250.29033754 934.30984281 -261.79332899 936.69759949 -273.29272461 939.18774414 C-275.90323636 939.75970151 -278.51008744 940.34104427 -281.11547852 940.93530273 C-291.9285384 943.39322749 -302.78085824 945.5453374 -313.68579102 947.55493164 C-316.43262436 948.06160066 -319.17826335 948.57439686 -321.92382812 949.08789062 C-363.78717871 956.87457676 -406.17258068 962.14278306 -448.58892822 965.79101562 C-451.15255963 966.01322341 -453.71569274 966.2406754 -456.27880859 966.46875 C-518.14643109 971.94704552 -580.38010764 974.47431357 -642.48046875 975.23828125 C-643.16377762 975.2467017 -643.84708649 975.25512215 -644.55110168 975.26379776 C-647.99627895 975.30590023 -651.44146763 975.34702408 -654.88665771 975.38806152 C-694.25697059 975.85975791 -733.67415667 977.09491114 -772.81347656 981.63818359 C-776.01660651 982.0018856 -779.22151968 982.32856797 -782.4296875 982.64453125 C-797.40844401 984.13785139 -812.32771269 986.03017977 -827.25 988 C-828.6916301 988.18848007 -828.6916301 988.18848007 -830.16238403 988.38076782 C-841.14187461 989.82120728 -852.01796779 991.45348459 -862.88543701 993.59173584 C-866.94666847 994.37584833 -871.01932932 995.09796553 -875.08984375 995.83203125 C-893.52443203 999.1802524 -911.8755359 1002.56525483 -930.02734375 1007.24365234 C-933.28269183 1008.07192668 -936.54624005 1008.86042769 -939.8125 1009.64453125 C-953.5933073 1012.97564412 -967.14887912 1016.75599072 -980.66796875 1021.0234375 C-986.93612946 1022.99919729 -993.2438287 1024.81873276 -999.5625 1026.625 C-1009.18571048 1029.39471375 -1018.60779354 1032.53334869 -1028 1036 C-1030.02073598 1036.7294364 -1032.04155765 1037.45863554 -1034.0625 1038.1875 C-1041.67576213 1040.96171698 -1049.22939171 1043.8597716 -1056.75 1046.875 C-1057.56726562 1047.20113281 -1058.38453125 1047.52726562 -1059.2265625 1047.86328125 C-1070.67330658 1052.44554485 -1082.00023547 1057.26561639 -1093.25 1062.3125 C-1094.19779327 1062.73712021 -1094.19779327 1062.73712021 -1095.16473389 1063.1703186 C-1111.54170943 1070.22220851 -1111.54170943 1070.22220851 -1127 1079 C-1127.99 1079 -1128.98 1079 -1130 1079 C-1131.48963014 1068.40898282 -1132.40833646 1057.89402292 -1132.89111328 1047.21133423 C-1133.08016338 1043.0464566 -1133.29095543 1038.88266413 -1133.5 1034.71875 C-1133.54133057 1033.88793411 -1133.58266113 1033.05711823 -1133.62524414 1032.2011261 C-1134.00179496 1024.73214667 -1134.47502123 1017.27264346 -1135 1009.8125 C-1135.0810498 1008.65854736 -1135.16209961 1007.50459473 -1135.24560547 1006.31567383 C-1135.66588252 1000.431379 -1136.11052887 994.54930273 -1136.5703125 988.66796875 C-1136.663125 987.46487061 -1136.7559375 986.26177246 -1136.8515625 985.0222168 C-1137.02645383 982.76939792 -1137.20571845 980.51691155 -1137.390625 978.26489258 C-1138.75613364 960.7376532 -1138.77176183 945.69047974 -1127.8046875 931.07421875 C-1122.80628188 925.26417492 -1117.52922918 921.15440948 -1111.08203125 917.07421875 C-1094.28452244 905.76943145 -1081.86543049 887.61020188 -1077.69140625 867.75 C-1073.85712873 845.2242317 -1077.69147606 823.18429917 -1090.6875 804.375 C-1091.77089466 802.90116956 -1092.87499266 801.4423171 -1094 800 C-1094.59296875 799.19691406 -1095.1859375 798.39382813 -1095.796875 797.56640625 C-1109.78460027 781.27219437 -1130.32693711 773.99156634 -1151 771 C-1151.90997692 764.42710888 -1152.28922737 757.92852264 -1152.51757812 751.30078125 C-1152.75497332 745.68392146 -1153.30638069 740.14580097 -1153.96484375 734.56640625 C-1155.0043643 725.65454833 -1155.57333825 716.751052 -1156.00537109 707.79125977 C-1156.12679848 705.27523482 -1156.25614718 702.75970621 -1156.38671875 700.24414062 C-1156.46919794 698.61721015 -1156.55124562 696.99025772 -1156.6328125 695.36328125 C-1156.67028595 694.62467361 -1156.7077594 693.88606598 -1156.74636841 693.12507629 C-1157.34949001 680.5160371 -1157.34949001 680.5160371 -1155.41796875 677.6640625 C-1154.68191406 676.99117187 -1153.94585938 676.31828125 -1153.1875 675.625 C-1152.36894531 674.86703125 -1151.55039063 674.1090625 -1150.70703125 673.328125 C-1147.05246014 670.18508837 -1143.32816687 667.13859404 -1139.56640625 664.125 C-1136.74654218 661.79013538 -1134.20700906 659.29918471 -1131.6640625 656.671875 C-1129.27591618 654.27251672 -1126.72170625 652.08612601 -1124.16015625 649.875 C-1120.05329258 646.31027204 -1116.03593424 642.64457092 -1112 639 C-1106.72014424 634.23213025 -1101.42708194 629.48487782 -1096.0625 624.8125 C-1092.82348414 621.96609213 -1089.63036144 619.06904969 -1086.4296875 616.1796875 C-1084.3439382 614.30854906 -1082.24182372 612.46075169 -1080.125 610.625 C-1076.69667808 607.64083314 -1073.34379199 604.57811516 -1070 601.5 C-1066.04823252 597.86221528 -1062.05948595 594.27614259 -1058.0078125 590.75 C-1055.58024093 588.63413996 -1053.15995111 586.51093335 -1050.75 584.375 C-1049.94046875 583.66085937 -1049.1309375 582.94671875 -1048.296875 582.2109375 C-1043.6609431 577.87395243 -1043.6609431 577.87395243 -1041.46875 572.09765625 C-1041.53218631 565.93640474 -1041.62123254 561.74366475 -1046 557 C-1052.9869249 550.85997508 -1063.28109514 552.5349571 -1072 553 C-1101.89388474 555.31113721 -1131.46396487 560.94800769 -1160.17944336 569.56030273 C-1162 570 -1162 570 -1165 570 C-1165.06731323 568.84443604 -1165.06731323 568.84443604 -1165.13598633 567.66552734 C-1166.00783188 552.85826747 -1166.96469394 538.06612063 -1168.19100952 523.28378296 C-1169.72815971 504.72605351 -1170.8836825 486.14929387 -1172 467.5625 C-1173.11369522 449.03280908 -1174.24396237 430.50765501 -1175.6875 412 C-1175.7481665 411.217388 -1175.80883301 410.434776 -1175.87133789 409.62844849 C-1176.55706162 400.84031407 -1177.32766125 392.08049523 -1178.484375 383.33984375 C-1179.17695121 374.4687573 -1179.17695121 374.4687573 -1176.109375 370.640625 C-1173.18775062 368.4537804 -1170.21443658 366.7291703 -1167 365 C-1165.75380668 364.2715328 -1164.51040266 363.53827728 -1163.26953125 362.80078125 C-1150.18866967 355.12608656 -1136.49435027 348.63191187 -1122.75 342.25 C-1121.76837891 341.78996582 -1120.78675781 341.32993164 -1119.77539062 340.85595703 C-1113.82827754 338.12239618 -1107.87032961 335.84164728 -1101.62695312 333.87353516 C-1099.25053043 333.08330835 -1097.01985239 332.17763067 -1094.75 331.125 C-1071.52949856 320.44938485 -1046.25636412 312.98675384 -1021.64453125 306.27734375 C-1017.56313364 305.1628116 -1013.49804557 303.9966217 -1009.43408203 302.8203125 C-997.34502218 299.32576587 -985.19997005 296.08412673 -973 293 C-971.53916992 292.62875 -971.53916992 292.62875 -970.04882812 292.25 C-953.17298548 287.98943223 -936.17240733 284.53854474 -919.05975342 281.38146973 C-916.98462435 280.9971524 -914.9104418 280.60804951 -912.83642578 280.21777344 C-893.17101777 276.52572908 -873.52496351 273.6577288 -853.64306641 271.42480469 C-850.44671592 271.05208991 -847.26117744 270.64015767 -844.07421875 270.1953125 C-798.84801095 263.91056949 -752.669058 263.20617021 -707.08105469 264.37231445 C-704.47339405 264.43817194 -701.86563427 264.4975488 -699.2578125 264.55664062 C-685.36275143 264.89186337 -685.36275143 264.89186337 -679.44921875 265.515625 C-618.33931949 271.76056087 -549.16640712 262.92456861 -489.25683594 249.70996094 C-486.39059092 249.08514531 -483.52316451 248.50837115 -480.640625 247.96484375 C-452.38239812 242.60860618 -424.26384836 235.87125578 -396.66601562 227.77490234 C-394.00677153 227.00196821 -391.34126162 226.25660802 -388.671875 225.51953125 C-375.28806017 221.80829333 -362.1358038 217.50557169 -349 213 C-347.72672852 212.56518311 -347.72672852 212.56518311 -346.42773438 212.12158203 C-334.74625463 208.12270617 -323.16175548 203.87246255 -311.59350586 199.55786133 C-305.83243194 197.41007628 -300.06467851 195.31005962 -294.25 193.3125 C-289.03028732 191.46532671 -284.04879964 189.24105887 -279.06176758 186.85107422 C-273.91470517 184.39205915 -268.6944842 182.15019964 -263.4375 179.9375 C-232.64389591 166.87415112 -202.40249659 152.14900273 -173.44970703 135.40625 C-171.28869988 134.16572765 -169.11754618 132.94950482 -166.93359375 131.75 C-113.41034746 102.34679028 -63.61125953 65.42760018 -20.25 22.4375 C-18.93696899 21.14404663 -18.93696899 21.14404663 -17.59741211 19.82446289 C-11.61495616 13.84992697 -6.27171509 7.60322298 -1 1 C-0.67 0.67 -0.34 0.34 0 0 Z " fill="#32B5FF" transform="translate(1565,575)"/>
    <path d="M0 0 C1.20576187 0.12314575 1.20576187 0.12314575 2.43588257 0.2487793 C12.99655533 1.32753022 23.53507172 2.50503512 34.0625 3.875 C35.04239395 4.00189209 35.04239395 4.00189209 36.04208374 4.13134766 C48.35689093 5.73028319 60.62776143 7.57043842 72.89208984 9.51757812 C75.92130265 9.98778429 78.95323842 10.42856271 81.98828125 10.859375 C110.36278055 14.93892149 138.46076234 21.02016446 166.39599609 27.40795898 C168.86705483 27.96977386 171.34106189 28.51602769 173.81640625 29.05859375 C179.45648708 30.30984704 185.02284613 31.81994122 190.59423828 33.34326172 C192.30802959 33.81110205 194.02263891 34.27595018 195.73779297 34.73876953 C208.53612578 38.19875309 221.17527914 41.94540977 233.7253418 46.22290039 C239.03741819 48.0302204 244.33595885 49.71364467 249.75 51.1875 C254.8799302 52.60837995 259.6720541 54.39623889 264.546875 56.52734375 C267.25233478 57.68114277 269.95745573 58.76578975 272.703125 59.81640625 C291.4792044 67.03079854 306.21327058 76.27475533 321 90 C321.92619141 90.82757813 321.92619141 90.82757813 322.87109375 91.671875 C337.09721041 104.94520325 346.16497362 124.45218871 351 143 C351.36738281 144.31677734 351.36738281 144.31677734 351.7421875 145.66015625 C352.34066206 148.11554162 352.7127677 150.48855857 353 153 C353.14179687 154.18851563 353.28359375 155.37703125 353.4296875 156.6015625 C354.87531948 174.47001519 342.50993884 187.73252096 332 201 C331.21496094 201.99902344 330.42992187 202.99804688 329.62109375 204.02734375 C320.71503701 215.13203346 310.85020128 225.24277788 300.8125 235.3125 C300.33914215 235.78853668 299.8657843 236.26457336 299.37808228 236.7550354 C293.76363522 242.39354177 288.08164617 247.86727505 282 253 C281.46640869 253.45528076 280.93281738 253.91056152 280.38305664 254.37963867 C278.97260783 255.5761675 277.54920916 256.75738334 276.125 257.9375 C274.73667969 259.09572266 274.73667969 259.09572266 273.3203125 260.27734375 C271 262 271 262 269 262 C269.18103271 261.39776611 269.36206543 260.79553223 269.54858398 260.17504883 C270.36690303 257.45038551 271.18341843 254.7251845 272 252 C272.38502686 250.72068604 272.38502686 250.72068604 272.77783203 249.41552734 C281.23807812 221.1656147 285.1650286 190.27521464 271 163 C266.2987159 154.38097915 260.94209542 146.94209542 254 140 C253.30261719 139.30261719 252.60523438 138.60523438 251.88671875 137.88671875 C236.87323946 123.75154173 216.20221079 115.83432751 197.43896484 108.01660156 C195.26440819 107.11020978 193.09489446 106.19274643 190.92578125 105.2734375 C183.31181265 102.11780758 175.67879838 99.59006355 167.75390625 97.37109375 C164.34088445 96.41244071 160.96550069 95.35552706 157.58943176 94.27430725 C148.27122165 91.30154092 138.87196135 88.82977252 129.375 86.5 C127.77447561 86.10449106 126.1739713 85.70890085 124.57348633 85.31323242 C120.05150414 84.198399 115.52656939 83.09604529 111 82 C109.91283691 81.73654785 108.82567383 81.4730957 107.70556641 81.20166016 C83.03761762 75.28152196 58.16508455 70.82411789 33.03417969 67.42480469 C28.80233115 66.83231865 24.59009621 66.13757568 20.375 65.4375 C8.64022682 63.52304229 -3.18202904 62.27740243 -15 61 C-15.67740234 60.92565735 -16.35480469 60.8513147 -17.05273438 60.77471924 C-29.3564816 59.42641525 -41.67124675 58.27177183 -54.00634766 57.25 C-55.95944797 57.08689653 -57.91226783 56.92038842 -59.86474609 56.75 C-95.54291324 53.63750697 -131.28841937 52.61300198 -167.08991623 52.68234634 C-169.99713101 52.68760792 -172.904335 52.68950503 -175.81155396 52.69100952 C-209.28864702 52.72106097 -242.5988708 53.62912978 -276 56 C-276.89696594 56.06272095 -277.79393188 56.12544189 -278.71807861 56.19006348 C-289.49778246 56.9495814 -300.25140461 57.87875405 -311 59 C-311.71214661 59.07412109 -312.42429321 59.14824219 -313.15802002 59.22460938 C-322.23962591 60.17481559 -331.31374289 61.18479221 -340.38395691 62.23794556 C-344.65689745 62.7335239 -348.93102189 63.21416876 -353.20756531 63.6776123 C-386.33304689 67.27284535 -419.18329823 72.60613506 -451.9375 78.6875 C-452.94911194 78.87363861 -453.96072388 79.05977722 -455.00299072 79.2515564 C-476.30935471 82.96759642 -476.30935471 82.96759642 -496.3125 90.875 C-496.98200684 91.22087158 -497.65151367 91.56674316 -498.34130859 91.9230957 C-504.82743285 95.32811439 -510.85464205 99.11824513 -516.4375 103.875 C-519 106 -519 106 -521 106 C-521 106.66 -521 107.32 -521 108 C-521.66 108 -522.32 108 -523 108 C-523.33 108.99 -523.66 109.98 -524 111 C-525.16096081 112.12681491 -526.32213853 113.25340714 -527.484375 114.37890625 C-543.31945934 131.31591656 -550.87380508 155.41608305 -550.2890625 178.30078125 C-548.0956509 206.37052162 -537.44874452 230.1546893 -516 249 C-490.06437224 270.18696232 -458.69455525 287.02019908 -426.9921875 297.61328125 C-424.04993294 298.60486164 -421.18481055 299.72370797 -418.3125 300.90234375 C-401.18079511 307.81847647 -383.19825891 312.42271895 -365.1875 316.375 C-364.07414276 316.61941833 -364.07414276 316.61941833 -362.93829346 316.86877441 C-348.34866481 320.04889198 -333.70510975 322.83844186 -318.9375 325.0625 C-317.81335693 325.23313965 -316.68921387 325.4037793 -315.53100586 325.57958984 C-233.60725986 337.93762876 -143.76061898 340.61734042 -61.47998047 329.4375 C-56.02162364 328.75128031 -50.55298453 328.48751982 -45.0625 328.1875 C-33.48155678 327.45530867 -21.96235323 326.34983447 -10.43746948 325.00064087 C-8.67546169 324.79533374 -6.91287267 324.59494215 -5.14968872 324.3999939 C6.68849961 323.08032282 17.69293463 320.7379515 29 317 C30.44926932 316.53156156 31.89856958 316.06321885 33.34790039 315.5949707 C59.92417926 306.91691441 89.00501655 292.62042479 102.375 266.8125 C108.93444666 253.41876952 108.59510995 238.06500141 104 224 C100.06426991 213.74793903 94.45776949 205.06906207 87 197 C86.42636719 196.35804688 85.85273437 195.71609375 85.26171875 195.0546875 C77.01469752 186.27623531 66.30107781 180.05157881 56 174 C54.97132813 173.39027344 53.94265625 172.78054688 52.8828125 172.15234375 C45.52836381 167.97993209 38.08559028 165.06811353 30.1015625 162.3984375 C26.6288122 161.23660411 23.25900463 159.90181722 19.875 158.5 C-12.94154208 145.7876514 -50.08673289 140.8412869 -84.90039062 137.31591797 C-87.63827555 137.03686763 -90.37382367 136.74227337 -93.109375 136.44140625 C-122.22508237 133.33655687 -151.46211563 132.66194681 -180.7175293 132.73925781 C-185.0638631 132.7506423 -189.4099516 132.74385199 -193.75627708 132.7323904 C-225.52647665 132.6612088 -257.09206672 134.06349185 -288.72119141 137.12231445 C-292.08783717 137.44594362 -295.45583625 137.75167131 -298.82421875 138.05664062 C-319.96911371 140.02790633 -339.21726409 142.36884403 -353.91796875 159.1953125 C-355.49542785 161.3932118 -356.76100084 163.59579786 -358 166 C-358.48339844 166.84949219 -358.96679688 167.69898438 -359.46484375 168.57421875 C-363.133836 176.18661541 -363.49043963 183.33338221 -363.5625 191.6875 C-363.58449463 193.27304687 -363.58449463 193.27304687 -363.60693359 194.890625 C-363.51405566 202.0433452 -362.14775184 207.58956074 -359 214 C-358.54238281 214.93972656 -358.08476563 215.87945313 -357.61328125 216.84765625 C-345.76975651 237.01365783 -325.41476733 242.42141144 -304 248 C-289.79088019 251.39166547 -275.48834964 254.13311431 -261 256 C-259.71440186 256.18377197 -258.42880371 256.36754395 -257.10424805 256.55688477 C-242.20525928 258.52806035 -227.19656885 258.34001546 -212.19750977 258.31567383 C-209.12346687 258.31106289 -206.04982157 258.31790018 -202.97583008 258.33618164 C-184.07759311 258.44761698 -165.69937762 257.74563835 -146.92227173 255.347229 C-141.60274576 254.71515441 -136.26459032 254.32862822 -130.92077637 253.96766663 C-124.85174776 253.51316721 -119.64614896 250.93750071 -115.54541016 246.38525391 C-112.42490243 242.1315164 -112.57719779 237.7319815 -113.25390625 232.66015625 C-114.62996137 227.75390736 -117.59525652 224.51372274 -121.85546875 221.83203125 C-128.80247488 219.13674472 -137.39343863 221.12007803 -144.49609375 222.42578125 C-148.83943644 223.13756651 -153.18466778 223.61877786 -157.5625 224.0625 C-158.31015625 224.14161621 -159.0578125 224.22073242 -159.828125 224.30224609 C-174.53177283 225.75134527 -189.28547782 226.16868041 -204.05224609 226.13037109 C-206.4997374 226.12500058 -208.94704532 226.13036926 -211.39453125 226.13671875 C-227.24757831 226.14542199 -242.9914101 225.61609212 -258.6875 223.25 C-259.86957031 223.0751709 -261.05164063 222.9003418 -262.26953125 222.72021484 C-317.1110739 214.3604026 -317.1110739 214.3604026 -328 202 C-331.83493336 196.51753459 -332.03039648 191.51176789 -331 185 C-328.29494083 179.0622992 -323.87169981 175.67397821 -318 173 C-315.21341373 172.43385978 -312.68991884 172.04202849 -309.8828125 171.8046875 C-309.11784958 171.72694092 -308.35288666 171.64919434 -307.56474304 171.5690918 C-305.08610196 171.32148275 -302.60600445 171.09756906 -300.125 170.875 C-298.3875091 170.70828294 -296.65012329 170.54046724 -294.9128418 170.37158203 C-290.6793042 169.96456965 -286.44422962 169.57784115 -282.20806885 169.19921875 C-279.28737146 168.93570447 -276.36844099 168.65432432 -273.44921875 168.375 C-267.30557555 167.81199902 -261.1571973 167.38456583 -255 167 C-253.96622223 166.93425781 -253.96622223 166.93425781 -252.91156006 166.8671875 C-199.7234928 163.51373248 -146.01952945 163.33244199 -93 169 C-91.19547363 169.18997559 -91.19547363 169.18997559 -89.35449219 169.38378906 C-77.13055481 170.68319734 -64.97987745 172.17280153 -52.875 174.32421875 C-49.48374402 174.91563738 -46.09762314 175.40958779 -42.6875 175.875 C-29.02292082 177.97592905 -15.63541174 181.7201765 -2.375 185.5625 C-1.40457764 185.84311279 -0.43415527 186.12372559 0.56567383 186.4128418 C19.84490126 192.10555959 39.65152772 199.71720631 55 213 C55.87527344 213.68191406 56.75054688 214.36382813 57.65234375 215.06640625 C66.86944334 222.59254922 73.99701776 233.59704148 75.28125 245.63671875 C74.32338707 253.68542806 67.02513977 261.09466417 61 266 C33.17544716 285.62084637 0.38066762 291.77593092 -32.91833496 294.4246521 C-38.94860389 294.90506601 -44.97204918 295.44748454 -50.99609375 296 C-93.89733539 299.89504123 -136.5980145 301.18197382 -179.65797806 301.24497986 C-182.58017142 301.24992415 -185.50234478 301.25783735 -188.42453003 301.26623535 C-211.36935622 301.32281279 -234.1263715 300.94949223 -257 299 C-257.92889038 298.92203186 -258.85778076 298.84406372 -259.81481934 298.76373291 C-265.15521001 298.30524759 -270.48447277 297.77125529 -275.8125 297.1875 C-276.58830414 297.10418427 -277.36410828 297.02086853 -278.16342163 296.93502808 C-324.87507696 291.89531079 -370.87317247 283.43395375 -415 267 C-415.93231445 266.65469238 -416.86462891 266.30938477 -417.82519531 265.95361328 C-452.20991552 253.08016883 -495.30481965 234.69162164 -512.59375 200.1953125 C-518.7400433 186.22956829 -519.1426167 169.66494028 -514.31640625 155.203125 C-507.39097535 138.35192815 -495.21066033 125.57005767 -478.4609375 118.5078125 C-467.11076718 114.66070214 -455.22249427 112.73335239 -443.453125 110.62060547 C-440.11237482 110.02019632 -436.7748012 109.40441325 -433.4375 108.78515625 C-405.77344665 103.6979356 -377.95719562 99.13236709 -350 96 C-348.95924316 95.88060059 -347.91848633 95.76120117 -346.84619141 95.63818359 C-331.12140893 93.84179786 -315.37820076 92.37068059 -299.60424805 91.08984375 C-298.21269956 90.97560472 -296.82117926 90.86102174 -295.4296875 90.74609375 C-294.72804474 90.68858948 -294.02640198 90.63108521 -293.30349731 90.57183838 C-289.26050818 90.22916399 -285.24534829 89.78697483 -281.22013855 89.26939392 C-265.42575751 87.29373625 -249.45511087 86.98875758 -233.5625 86.375 C-231.87945538 86.30897497 -230.19641094 86.24294507 -228.5133667 86.1769104 C-174.05261714 84.0585735 -119.82757839 84.89261874 -65.4375 88.5 C-64.53590149 88.55966949 -63.63430298 88.61933899 -62.7053833 88.68081665 C-45.05916625 89.86748147 -27.48369314 91.59333756 -9.9375 93.8125 C-9.2818808 93.89481873 -8.6262616 93.97713745 -7.95077515 94.06195068 C46.328643 100.89102448 46.328643 100.89102448 61.56640625 104.44921875 C64.47170773 105.10675889 67.38922983 105.67740069 70.3125 106.25 C88.14395113 109.80053069 105.89079889 113.59581303 123.5 118.125 C124.7684375 118.44944092 126.036875 118.77388184 127.34375 119.1081543 C134.12048172 120.876368 140.7647534 122.85518318 147.39013672 125.12451172 C150.66313118 126.2224498 153.97764517 127.10971618 157.3125 128 C181.53429066 134.92665772 207.3058607 144.57281149 227.06445312 160.44897461 C228.71076587 161.76822598 230.41291835 163.01730122 232.125 164.25 C240.1541471 171.93005375 246.46229847 183.56587334 247.17700195 194.77636719 C248.03412212 237.0245373 231.51333219 272.60793997 202.73535156 303.24560547 C197.85018402 308.30619091 192.57990536 312.72102763 187 317 C186.0409375 317.78632812 185.081875 318.57265625 184.09375 319.3828125 C175.67645931 326.16340778 166.66555226 331.53276016 157.22265625 336.76757812 C155.23514046 337.86961895 153.25719372 338.9867784 151.28125 340.109375 C144.69021075 343.78152544 138.14867876 346.61335449 131 349 C129.66409974 349.49310066 128.33054003 349.99261354 127 350.5 C126.40429199 350.72333008 125.80858398 350.94666016 125.19482422 351.17675781 C123.66171798 351.75180055 122.13052875 352.33196867 120.60083008 352.91601562 C114.04499048 355.37150417 107.4762252 357.30641412 100.6875 359 C98.64810975 359.51954851 96.60904481 360.04037568 94.5703125 360.5625 C93.60254883 360.81 92.63478516 361.0575 91.63769531 361.3125 C88.42775434 362.14915252 85.24417001 363.06191548 82.0625 364 C73.71781366 366.42754512 65.27638516 368.47105418 56.83984375 370.55078125 C53.40784902 371.39704921 49.98237762 372.25922001 46.56640625 373.16796875 C38.95241449 375.18089551 31.3837719 376.64568825 23.60131836 377.7902832 C17.25802172 378.74376018 11.01741896 380.01484781 4.75 381.375 C-9.74031873 384.48182954 -24.35086206 386.79335073 -39 389 C-40.83618896 389.27674561 -40.83618896 389.27674561 -42.70947266 389.55908203 C-60.23789332 392.16507313 -77.7863337 394.10158961 -95.43212891 395.6796875 C-99.58531785 396.05254804 -103.73649426 396.44494243 -107.88745117 396.84179688 C-127.72270757 398.61103159 -147.50250291 399.16694467 -167.41259766 399.13037109 C-170.86495371 399.12501558 -174.31717911 399.13035361 -177.76953125 399.13671875 C-196.59318001 399.14290939 -215.4246023 398.73781224 -234.1875 397.125 C-235.71455566 396.99702026 -235.71455566 396.99702026 -237.27246094 396.86645508 C-240.51601157 396.58813466 -243.75810859 396.29700033 -247 396 C-248.09844238 395.89961426 -249.19688477 395.79922852 -250.32861328 395.69580078 C-265.38785319 394.28975177 -280.38480901 392.49933361 -295.375 390.5 C-296.14678589 390.39835541 -296.91857178 390.29671082 -297.71374512 390.19198608 C-306.79251666 388.98991328 -315.75439001 387.53536795 -324.72167969 385.67382812 C-328.77865759 384.8399542 -332.84724931 384.14645913 -336.9375 383.5 C-350.46114696 381.35001883 -363.87632712 378.68554093 -377.25 375.75 C-377.9302121 375.60071045 -378.61042419 375.4514209 -379.31124878 375.29760742 C-399.45032686 370.86511377 -419.42506353 365.99713995 -439.109375 359.828125 C-443.41907349 358.47820573 -447.74256931 357.18631469 -452.078125 355.921875 C-453.28138428 355.5705249 -454.48464355 355.2191748 -455.72436523 354.85717773 C-458.04577455 354.1813044 -460.36814475 353.50871898 -462.69165039 352.84008789 C-468.54191268 351.12965792 -474.18643289 349.21371391 -479.81762695 346.8815918 C-482.64320869 345.74016931 -485.51287206 344.85190723 -488.4375 344 C-494.3824985 342.21302384 -500.19491994 340.19608036 -506 338 C-507.04027344 337.608125 -508.08054687 337.21625 -509.15234375 336.8125 C-516.49769267 334.0175991 -523.75164213 331.03608835 -531 328 C-532.09610596 327.54278564 -533.19221191 327.08557129 -534.3215332 326.61450195 C-537.69548519 325.20597316 -541.06668394 323.79101505 -544.4375 322.375 C-545.58154297 321.89804687 -546.72558594 321.42109375 -547.90429688 320.9296875 C-549.55848633 320.23359375 -549.55848633 320.23359375 -551.24609375 319.5234375 C-552.23279053 319.11013184 -553.2194873 318.69682617 -554.23608398 318.27099609 C-556.96087244 317.01799294 -559.43162924 315.54242112 -562 314 C-563.48145601 313.36938794 -564.97853065 312.77434051 -566.48828125 312.21484375 C-572.91044366 309.70791059 -579.03062935 306.65544819 -585.1875 303.5625 C-585.79505127 303.25797913 -586.40260254 302.95345825 -587.02856445 302.63970947 C-599.25497527 296.49979318 -611.18884329 289.90603522 -623 283 C-623.90282715 282.47631836 -624.8056543 281.95263672 -625.73583984 281.41308594 C-648.64005537 268.10003642 -668.3545157 253.24898773 -682 230 C-682.67160156 228.87980469 -683.34320312 227.75960937 -684.03515625 226.60546875 C-693.70680127 209.90523502 -697.4090363 190.99564235 -697.3125 171.8125 C-697.30686035 170.62994629 -697.3012207 169.44739258 -697.29541016 168.22900391 C-696.86307543 136.87403498 -684.15453407 109.19115313 -662 87 C-648.37033288 74.53255256 -631.74499223 64.44001896 -614.07250977 59.01464844 C-611.2352148 58.07767602 -608.57182838 56.98985664 -605.83984375 55.78515625 C-597.30002546 52.18944329 -588.49949067 49.40440004 -579.6875 46.5625 C-578.8024881 46.27553253 -577.9174762 45.98856506 -577.00564575 45.69290161 C-564.17184373 41.53823429 -551.33599002 37.70590877 -538.21777344 34.54248047 C-534.98316484 33.75127612 -531.7754033 32.87528766 -528.5625 32 C-526.04252258 31.32985216 -523.52187551 30.66291303 -521 30 C-520.18112305 29.78375977 -519.36224609 29.56751953 -518.51855469 29.34472656 C-492.30760541 22.46895038 -465.69075035 17.60130591 -439 13 C-437.97213379 12.82227051 -436.94426758 12.64454102 -435.88525391 12.46142578 C-403.01036131 6.80433084 -369.94449678 1.85066223 -336.66015625 -0.5703125 C-331.49040919 -0.94835298 -326.34169715 -1.45303255 -321.1875 -2 C-308.48217088 -3.31793223 -295.74507598 -4.16935394 -283 -5 C-281.66243415 -5.08869311 -280.32486905 -5.17739769 -278.98730469 -5.26611328 C-193.86302167 -10.85980801 -107.02935294 -10.1264391 0 0 Z " fill="#32B5FF" transform="translate(1213,347)"/>
    <path d="M0 0 C0.0501123 1.17763916 0.10022461 2.35527832 0.15185547 3.56860352 C0.18553726 4.35957428 0.21921906 5.15054504 0.25392151 5.96548462 C0.33104457 7.77901422 0.40797167 9.59255216 0.48472595 11.40609741 C0.70366381 16.57180142 0.92624886 21.73730988 1.1550293 26.90258789 C1.59610636 36.94229489 2.01557103 46.98012827 2.30645752 57.02546692 C2.43152106 61.30252456 2.5734793 65.57895199 2.71661377 69.85543823 C2.78020368 71.89940249 2.83542893 73.94364523 2.88201904 75.98806763 C2.94817736 78.85642749 3.04339492 81.72253406 3.14453125 84.58984375 C3.15612778 85.42752289 3.1677243 86.26520203 3.17967224 87.12826538 C3.43399173 93.16797801 5.20661984 97.28548962 9 102 C12.96807184 105.52717497 15.55352766 106.2603737 20.80749512 106.15353394 C24.4477278 105.89862036 27.93141608 105.15427369 31.484375 104.34765625 C32.28593018 104.17227325 33.08748535 103.99689026 33.91333008 103.81619263 C36.5276905 103.24082624 39.13888018 102.65238506 41.75 102.0625 C43.57452007 101.65589724 45.39906467 101.24940454 47.22363281 100.84301758 C59.43532177 98.10617109 71.60718804 95.21479697 83.75 92.1875 C84.48359741 92.00526886 85.21719482 91.82303772 85.97302246 91.63528442 C94.08165594 89.61316048 102.10027357 87.43780104 110.04394531 84.82543945 C113 84 113 84 120 83 C120 132.17 120 181.34 120 232 C91.11111111 240.88888889 91.11111111 240.88888889 77.65625 243.89453125 C74.57079713 244.59412673 71.57998383 245.42566158 68.56640625 246.38671875 C59.86056003 249.0617325 50.84566718 250.66566926 41.93774414 252.52050781 C26.19290751 254.67071289 26.19290751 254.67071289 13.5 262.5 C13.0359375 263.0878125 12.571875 263.675625 12.09375 264.28125 C9.33802075 268.61168168 9.85239041 273.07110836 9.875 278 C9.87113281 278.78117187 9.86726563 279.56234375 9.86328125 280.3671875 C9.87227477 286.14102532 10.14318037 291.88238906 10.47265625 297.64453125 C11.13184235 309.31884984 11.34218301 320.99810978 11.5625 332.6875 C11.6058373 334.86524001 11.64945553 337.04297446 11.69335938 339.22070312 C11.79879928 344.48040917 11.90081831 349.74017241 12 355 C-7.64162601 361.64414452 -7.64162601 361.64414452 -16.6875 364.0625 C-17.59556396 364.30726074 -18.50362793 364.55202148 -19.43920898 364.80419922 C-29.88102406 367.56828802 -40.42024035 369.83510921 -51 372 C-52.27230469 372.26659424 -52.27230469 372.26659424 -53.5703125 372.53857422 C-67.25035071 375.39304928 -81.00701291 377.27573503 -94.86328125 379.05859375 C-100.6982607 379.8143962 -106.50705049 380.67059562 -112.3125 381.625 C-118.29991945 382.60272485 -124.28844443 383.46620462 -130.3125 384.1875 C-131.00061768 384.2714502 -131.68873535 384.35540039 -132.39770508 384.44189453 C-136.2899144 384.88956387 -140.08589238 385.02929463 -144 385 C-144.27039779 378.39036892 -144.53513472 371.78052499 -144.79653931 365.17053223 C-144.89035947 362.81070839 -144.98522502 360.45092589 -145.08114624 358.09118652 C-145.58941198 345.55331952 -146.04824029 333.02468102 -146.1796875 320.4765625 C-146.19216019 319.51299835 -146.20463287 318.5494342 -146.21748352 317.55667114 C-146.27573588 313.03800457 -146.31188891 308.52148032 -146.30639648 304.00244141 C-146.21201315 293.57185801 -146.21201315 293.57185801 -150.62524414 284.35253906 C-154.69385436 280.34967978 -158.04490804 278.78558203 -163.80859375 278.7734375 C-170.94452212 278.87962691 -177.90725213 279.97797732 -184.9375 281.125 C-185.6311969 281.23570831 -186.3248938 281.34641663 -187.03961182 281.46047974 C-201.47851995 283.77076268 -215.74486015 286.74651277 -230 290 C-231.12696289 290.25426758 -232.25392578 290.50853516 -233.41503906 290.77050781 C-245.63400002 293.52827159 -257.82475908 296.37744397 -269.94921875 299.52758789 C-273.04248086 300.32161723 -275.79196511 301 -279 301 C-279 251.83 -279 202.66 -279 152 C-267.586897 148.39586221 -256.31973192 144.84223891 -244.75 141.875 C-244.08990936 141.70535736 -243.42981873 141.53571472 -242.74972534 141.3609314 C-230.59011047 138.25214021 -218.40837193 135.87743408 -206 134 C-201.86347969 133.36719732 -197.72724315 132.73268292 -193.59155273 132.09448242 C-190.81628617 131.66638467 -188.03982553 131.24804553 -185.26196289 130.8371582 C-169.18800724 129.13773438 -169.18800724 129.13773438 -156 121 C-146.47384128 104.21581558 -153.16635431 70.3067883 -154.5625 51.9375 C-155.43796114 39.66736498 -155.08101875 27.29490763 -155 15 C-154.02804687 14.93006836 -153.05609375 14.86013672 -152.0546875 14.78808594 C-132.90879164 13.40147222 -113.78682866 11.86906789 -94.6875 9.9375 C-93.87676025 9.85568481 -93.06602051 9.77386963 -92.23071289 9.6895752 C-82.41886559 8.69521886 -72.6149063 7.63625499 -62.81420898 6.5378418 C-58.38826476 6.0420423 -53.96133269 5.55552523 -49.53419495 5.07051086 C-45.58618657 4.63780418 -41.6384257 4.20286212 -37.69067383 3.76782227 C-35.6653667 3.54505659 -33.63997391 3.32306857 -31.61450195 3.10180664 C-28.64251012 2.77696378 -25.67084025 2.44930486 -22.69921875 2.12109375 C-21.79717209 2.02316025 -20.89512543 1.92522675 -19.96574402 1.82432556 C-15.15309263 1.29516302 -15.15309263 1.29516302 -10.39379883 0.42993164 C-6.90896073 -0.1959531 -3.53813656 -0.05996842 0 0 Z " fill="#ffffff" transform="translate(1108,974)"/>
    <path d="M0 0 C6.13416524 6.33640255 5.70163567 14.04809044 5.69046021 22.30307007 C5.6853475 26.42132933 5.75920608 30.53853592 5.8203125 34.65625 C5.83065018 35.50660324 5.84098785 36.35695648 5.85163879 37.233078 C5.98966097 47.151808 6.58395759 57.04128537 7.20346069 66.93978882 C7.89196803 77.97506128 8.1094728 88.94324699 8 100 C34.24644772 94.06212298 60.21764074 87.85209165 85.91137695 79.80249023 C109.72801589 72.34748277 109.72801589 72.34748277 115.3203125 75.171875 C119.7595778 77.941063 122.68157964 80.21788772 125 85 C125.2914462 87.73970572 125.42247801 90.25103639 125.40786743 92.98835754 C125.41912078 94.18686333 125.41912078 94.18686333 125.43060148 95.40958136 C125.45191566 98.08412844 125.45181803 100.75823567 125.45166016 103.43286133 C125.46227486 105.35163555 125.47410521 107.27040337 125.48706055 109.18916321 C125.51784174 114.40000047 125.52898239 119.6107004 125.53470278 124.82161927 C125.53905704 128.07794585 125.54743189 131.33423683 125.55720139 134.59055138 C125.59094811 145.95304562 125.60808289 157.31543598 125.61083984 168.67797852 C125.61387462 179.26582078 125.65432042 189.85307914 125.71198809 200.44075185 C125.75976972 209.53391873 125.78057191 218.62689285 125.78063047 227.7201845 C125.78116851 233.14988481 125.79275522 238.57901329 125.83180618 244.00858498 C125.86767439 249.11669875 125.86994907 254.22374668 125.84663391 259.33192253 C125.84377438 261.20399197 125.85282393 263.07612423 125.87481308 264.94806671 C126.04997998 280.84930122 126.04997998 280.84930122 121.60580444 286.0723114 C113.09105124 293.76277137 100.55453112 295.60838075 89.74609375 298.45703125 C84.31407739 299.89623653 78.93656691 301.48423816 73.5625 303.125 C61.15045257 306.89482736 48.66220518 310.17224681 36 313 C34.43091178 313.35773185 32.86190676 313.71582871 31.29296875 314.07421875 C29.65371185 314.44560401 28.01438924 314.81669937 26.375 315.1875 C25.59213623 315.36667969 24.80927246 315.54585937 24.00268555 315.73046875 C20.94155349 316.41705274 18.14780588 317 15 317 C15.03758423 317.75738464 15.07516846 318.51476929 15.1138916 319.29510498 C15.47197914 326.52898759 15.82524348 333.76308375 16.17345428 340.99744797 C16.35251537 344.71424913 16.53326529 348.43095009 16.71826172 352.14746094 C17.1348712 360.53697923 17.51974095 368.92669746 17.85058594 377.32006836 C17.94471332 379.63833968 18.04707001 381.95630563 18.16113281 384.27368164 C18.29420941 387.04181071 18.38863482 389.80803953 18.46875 392.578125 C18.53564026 393.71686066 18.53564026 393.71686066 18.60388184 394.87860107 C18.70296637 400.95665477 16.16792026 404.69275113 12 409 C9.76801686 410.65855152 7.53023461 411.85462631 5 413 C4.33226562 413.32484375 3.66453125 413.6496875 2.9765625 413.984375 C-3.16663801 416.86746549 -9.55060581 418.92133496 -16 421 C-16.62479248 421.21599854 -17.24958496 421.43199707 -17.89331055 421.65454102 C-60.55877962 436.32217894 -105.84742496 442.10134712 -150.42773438 447.56201172 C-152.83055915 447.85661722 -155.23290059 448.15518913 -157.63476562 448.45751953 C-161.13049718 448.89709402 -164.62741976 449.32541333 -168.125 449.75 C-169.64359619 449.94178833 -169.64359619 449.94178833 -171.19287109 450.13745117 C-190.10865785 452.36958312 -190.10865785 452.36958312 -196.5625 449.3125 C-202.07595996 444.08178157 -205.14335047 439.45841015 -205.41064453 431.75537109 C-205.4505249 430.7264122 -205.49040527 429.69745331 -205.53149414 428.63731384 C-205.5649292 427.52723465 -205.59836426 426.41715546 -205.6328125 425.2734375 C-205.69529175 423.5259597 -205.69529175 423.5259597 -205.7590332 421.74317932 C-205.89097497 417.95404728 -206.00865256 414.16464052 -206.125 410.375 C-206.21067704 407.78458336 -206.29645202 405.19416995 -206.38232422 402.60375977 C-206.99596628 383.39793893 -207.26417827 364.21388884 -207 345 C-215.20867393 346.45780097 -223.4156457 347.92481886 -231.62158203 349.39794922 C-234.21370154 349.85987773 -236.80667165 350.31262272 -239.40234375 350.75390625 C-248.22719441 352.30434963 -256.91389144 354.34744899 -265.625 356.4375 C-266.82890381 356.72608887 -268.03280762 357.01467773 -269.27319336 357.31201172 C-281.72445452 360.34476074 -293.99402736 363.95211392 -306.25 367.6875 C-307.77560547 368.14866211 -307.77560547 368.14866211 -309.33203125 368.61914062 C-310.78416016 369.0609668 -310.78416016 369.0609668 -312.265625 369.51171875 C-313.56161621 369.90556763 -313.56161621 369.90556763 -314.88378906 370.30737305 C-317.0222566 370.94995825 -317.0222566 370.94995825 -319 372 C-323.95482094 372.54360446 -327.87125852 372.56437074 -332.375 370.3125 C-335.92034678 367.18921832 -338.49393863 364.51818411 -340 360 C-340.10839587 357.42148572 -340.16090848 354.86918482 -340.1673584 352.29011536 C-340.17315178 351.4969039 -340.17894517 350.70369244 -340.18491411 349.88644427 C-340.20299969 347.21963087 -340.2138529 344.55283866 -340.22460938 341.88598633 C-340.23578332 339.97736416 -340.2472966 338.06874396 -340.25912476 336.16012573 C-340.29569805 329.88412205 -340.32090277 323.60809821 -340.34375 317.33203125 C-340.34769587 316.26443125 -340.35164173 315.19683124 -340.35570717 314.09687972 C-340.39212463 304.0291284 -340.42357003 293.96137008 -340.44481659 283.89357471 C-340.47239745 271.01438534 -340.52317667 258.13574633 -340.60529089 245.25678617 C-340.66106954 236.20190397 -340.69005074 227.14717117 -340.6992898 218.09212321 C-340.70554898 212.68358772 -340.7236864 207.27569751 -340.77067566 201.86734962 C-340.81435115 196.77737321 -340.82482761 191.68839474 -340.81004715 186.59826279 C-340.81037574 184.73262402 -340.82264767 182.86694231 -340.84789658 181.00147438 C-341.05099181 165.15676792 -341.05099181 165.15676792 -336.71643066 159.97099304 C-330.31621082 154.06991415 -321.54481461 152.06767298 -313.375 149.75 C-311.85398682 149.31264526 -311.85398682 149.31264526 -310.30224609 148.86645508 C-301.44272355 146.34892614 -292.5404056 143.99762723 -283.625 141.6875 C-282.96796082 141.5167395 -282.31092163 141.345979 -281.63397217 141.17004395 C-274.12293203 139.22377398 -266.6232563 137.44186696 -259 136 C-257.41490436 135.68066138 -255.83026899 135.35902991 -254.24609375 135.03515625 C-246.09226943 133.38158348 -237.93274506 131.75471437 -229.75 130.25 C-229.08411865 130.12246338 -228.4182373 129.99492676 -227.73217773 129.86352539 C-223.07450596 129.02623735 -218.71002513 128.89533277 -214 129 C-214.06058594 127.97132813 -214.12117187 126.94265625 -214.18359375 125.8828125 C-214.94299986 111.9930298 -215.25780504 98.0997976 -215.56121826 84.19436646 C-215.78190633 74.14317771 -216.01417293 64.10231918 -216.5625 54.0625 C-216.89634584 47.58495415 -217.18704993 41.11033186 -217.3125 34.625 C-217.342229 33.85679932 -217.37195801 33.08859863 -217.40258789 32.29711914 C-217.4722965 25.69828238 -215.40187771 21.53912786 -210.8125 16.6875 C-203.93659366 12.5619562 -195.74883979 12.68676631 -187.9375 12.5 C-176.68013773 12.12466811 -165.50985882 11.31688887 -154.29443359 10.29589844 C-150.88086313 9.9892994 -147.46608517 9.700668 -144.05078125 9.4140625 C-126.56622921 7.91805805 -109.12738317 6.07071222 -91.6875 4.125 C-90.53675995 3.99667786 -89.3860199 3.86835571 -88.20040894 3.73614502 C-76.90041938 2.47344276 -65.60255159 1.19409622 -54.31010437 -0.13449097 C-50.29558746 -0.60676388 -46.28054787 -1.07451998 -42.26553345 -1.5425415 C-39.52419028 -1.86480885 -36.7839645 -2.19555217 -34.04370117 -2.52685547 C-6.8933239 -5.74443659 -6.8933239 -5.74443659 0 0 Z M-40.1875 31.515625 C-40.94780518 31.63035156 -41.70811035 31.74507812 -42.49145508 31.86328125 C-43.73318481 32.05470703 -43.73318481 32.05470703 -45 32.25 C-57.5219314 34.07249783 -70.09999397 35.26515207 -82.69335938 36.46582031 C-90.71457382 37.2369622 -98.71763385 38.07287554 -106.71392822 39.07292175 C-121.95392881 40.97652284 -137.22368471 42.29555257 -152.53033447 43.52380371 C-155.98470357 43.80206225 -159.43861603 44.08588269 -162.89257812 44.36914062 C-169.59463158 44.91799567 -176.29714471 45.4610275 -183 46 C-183.0109082 49.98470372 -183.01879903 53.96940151 -183.02403259 57.95411682 C-183.02728468 59.96733913 -183.03284705 61.98055728 -183.03845215 63.99377441 C-183.04675884 71.55167463 -182.86173937 79.00036491 -182.2890625 86.53515625 C-178.17026869 144.49246913 -178.17026869 144.49246913 -186 154 C-190.88062535 157.85944836 -195.15058332 158.99484592 -201.125 160 C-202.02951904 160.16314697 -202.93403809 160.32629395 -203.8659668 160.49438477 C-211.48790867 161.83189361 -219.14735812 162.88274613 -226.8125 163.9375 C-243.72477876 166.27236561 -260.2796713 169.69143241 -276.8125 173.9375 C-277.6578833 174.15390137 -278.5032666 174.37030273 -279.37426758 174.59326172 C-288.70397552 177.06436879 -297.76764406 180.08451918 -307 183 C-307 232.17 -307 281.34 -307 332 C-297.92091681 330.3631422 -297.92091681 330.3631422 -289.015625 328.265625 C-287.76579834 327.94166748 -286.51597168 327.61770996 -285.22827148 327.28393555 C-284.58026581 327.11517914 -283.93226013 326.94642273 -283.26461792 326.77255249 C-267.80929604 322.76374424 -252.28907485 319.56188272 -236.58837891 316.67456055 C-232.79782886 315.96199491 -229.01829387 315.20389839 -225.23828125 314.4375 C-189.93221328 307.33505973 -189.93221328 307.33505973 -180.75390625 313.22265625 C-176.50794538 317.52535602 -174.56458763 321.8435953 -174.44541931 327.86854553 C-174.45054031 328.58610519 -174.45566132 329.30366486 -174.4609375 330.04296875 C-174.44982437 330.82502182 -174.43871124 331.60707489 -174.42726135 332.41282654 C-174.40485366 334.11287665 -174.39106889 335.81305775 -174.38497925 337.51324463 C-174.36765263 342.15646036 -174.28616741 346.79876143 -174.21484375 351.44140625 C-174.20141434 352.43134583 -174.18798492 353.4212854 -174.17414856 354.44122314 C-173.98546348 367.17661614 -173.4513048 379.89937208 -172.9375 392.625 C-172.84474214 394.96247789 -172.75212815 397.29996149 -172.65966797 399.63745117 C-172.44309713 405.09177092 -172.22312358 410.54594454 -172 416 C-163.74456372 415.41429067 -155.52842746 414.68475848 -147.3125 413.6875 C-146.25087646 413.55923828 -145.18925293 413.43097656 -144.09545898 413.29882812 C-132.97718093 411.92279958 -121.91241254 410.23290822 -110.85205078 408.45556641 C-108.42236996 408.06746639 -105.99136657 407.69227246 -103.55859375 407.32421875 C-83.59562911 404.23849092 -63.49500677 400.24439452 -44 394.9375 C-43.23333008 394.72891357 -42.46666016 394.52032715 -41.67675781 394.30541992 C-33.02284527 391.85005123 -24.52169527 388.8736354 -16 386 C-16.11965764 379.65428684 -16.2443857 373.30868651 -16.37231445 366.96313477 C-16.41509411 364.81341704 -16.4567966 362.66367756 -16.49731445 360.51391602 C-16.72751697 348.34160264 -17.08983857 336.19976069 -17.77954102 324.04467773 C-18.05803802 319.09265504 -18.21668491 314.14728338 -18.25 309.1875 C-18.2809375 307.96063477 -18.2809375 307.96063477 -18.3125 306.70898438 C-18.3548019 300.16805304 -17.0620039 296.23763199 -12.5234375 291.3125 C-8.15288379 287.95342495 -2.91191904 287.13360776 2.375 286 C3.46973633 285.75072754 4.56447266 285.50145508 5.69238281 285.24462891 C14.37123416 283.28933914 23.09072012 281.5241107 31.80883789 279.75390625 C37.92061944 278.49405933 43.8359109 276.98432179 49.765625 275.0234375 C53.83384816 273.7361495 57.92881731 272.68891505 62.0625 271.625 C72.10316512 268.97274884 82.05292019 265.98412394 92 263 C92 213.83 92 164.66 92 114 C84.93570183 115.28441785 78.41738422 116.62463283 71.625 118.6875 C58.20487273 122.62478491 44.620375 125.84065471 31 129 C29.86244263 129.26481171 29.86244263 129.26481171 28.7019043 129.53497314 C23.83407594 130.66730698 18.9635375 131.78685574 14.08938599 132.8916626 C12.50289258 133.25219905 10.91699978 133.6153899 9.33175659 133.98138428 C7.10192686 134.49489788 4.86979368 134.99690728 2.63671875 135.49609375 C1.35498779 135.78669678 0.07325684 136.0772998 -1.24731445 136.37670898 C-6.55214692 137.25779917 -11.19924515 137.84741405 -16.1875 135.5 C-20.82250973 131.37999135 -24.1098154 126.82359416 -24.71948242 120.52319336 C-24.78869169 118.87957535 -24.83269712 117.23476062 -24.85546875 115.58984375 C-24.88740829 114.6843277 -24.91934784 113.77881165 -24.95225525 112.84585571 C-25.05229651 109.8766385 -25.11981438 106.90761508 -25.1875 103.9375 C-25.25193484 101.86637709 -25.31886815 99.79533054 -25.38818359 97.72436523 C-25.53153594 93.38646078 -25.66392066 89.04841294 -25.78955078 84.70996094 C-26.09007272 74.7070562 -26.5434309 64.71058665 -26.98623657 54.71316528 C-27.20767541 49.68532998 -27.42000481 44.65711295 -27.6328125 39.62890625 C-27.7045449 37.94213676 -27.77631724 36.25536897 -27.84814453 34.56860352 C-27.89825684 33.39096436 -27.94836914 32.2133252 -28 31 C-34.11529569 30.91400639 -34.11529569 30.91400639 -40.1875 31.515625 Z " fill="#32B5FF" transform="translate(1136,943)"/>
    <path d="M0 0 C4.49095036 3.84938602 8.42399904 7.39596996 12.4375 11.625 C26.27281806 25.6262982 42.79693596 34.75172346 60.04003906 43.95196533 C62.05527711 45.0295579 64.06709935 46.11329868 66.078125 47.19873047 C99.7078356 65.34136194 134.00873535 82.77696365 169.9375 95.9375 C174.67556634 97.68711984 179.30162824 99.53379869 183.875 101.6875 C187.94993057 103.60047039 191.96190199 104.95157547 196.29272461 106.15380859 C199.05585987 107.01745967 201.62872534 108.0802796 204.28125 109.23828125 C211.91290828 112.45253013 219.70668975 115.08427632 227.5625 117.6875 C228.33413483 117.9443457 229.10576965 118.20119141 229.90078735 118.46582031 C241.75639675 122.40176555 253.67606936 126.06979115 265.6875 129.5 C266.38932404 129.7012851 267.09114807 129.90257019 267.8142395 130.10995483 C276.82243967 132.68260842 285.87266451 134.96082965 295.00073242 137.06640625 C298.499284 137.87573975 301.97951416 138.74468155 305.45703125 139.640625 C336.99632845 147.68883969 369.10057698 153.11117049 401.44775391 156.60302734 C405.80230359 157.08965949 410.14325642 157.65851178 414.48657227 158.2355957 C446.55622794 162.46750609 478.81851566 163.18196527 511.12426758 163.13037109 C514.71462076 163.12467986 518.30489967 163.12806822 521.89525032 163.13380814 C545.53889179 163.16587945 569.16206886 162.74927879 592.75 161 C593.93980469 160.9175 595.12960937 160.835 596.35546875 160.75 C601.02007144 160.41718554 605.66333625 160.0812381 610.296875 159.44140625 C614.39970902 158.95235536 618.37550307 158.88785328 622.5 158.9375 C623.22703125 158.94201172 623.9540625 158.94652344 624.703125 158.95117188 C626.46878681 158.96278807 628.2344053 158.98071559 630 159 C629.67 159.66 629.34 160.32 629 161 C626.83419585 161.69219914 624.63251644 162.27279308 622.421875 162.8046875 C621.74778595 162.96862503 621.0736969 163.13256256 620.37918091 163.3014679 C618.17151869 163.83504495 615.96103091 164.35557313 613.75 164.875 C612.2266974 165.23857145 610.70342276 165.60226003 609.18017578 165.96606445 C599.45558562 168.27130685 589.71221159 170.31832863 579.875 172.0859375 C575.73727921 172.8377997 571.65156469 173.74798425 567.55517578 174.69677734 C532.35910418 182.78244801 496.0049222 187.52935443 460.0625 190.6875 C459.03709106 190.77904358 459.03709106 190.77904358 457.9909668 190.87243652 C436.29930816 192.78053557 414.60179261 193.14142096 392.83646584 193.04459953 C388.57536785 193.02573495 384.31427694 193.01655875 380.05314636 193.00868225 C368.70567026 192.98643439 357.35822753 192.95501004 346.01080883 192.91248637 C310.299434 192.77899605 274.65805015 192.70830552 239 195 C238.2786298 195.04626148 237.5572596 195.09252296 236.81402969 195.14018631 C227.53209325 195.74403085 218.26492198 196.48917 209 197.3125 C207.76180511 197.42015686 206.52361023 197.52781372 205.24789429 197.63873291 C173.58009424 200.40434959 142.41521083 204.84668293 111.1328125 210.44921875 C110.41164749 210.57613602 109.69048248 210.70305328 108.94746399 210.83381653 C104.53961465 211.6350042 100.29443718 212.73189032 96 214 C93.75535107 214.4445923 91.50463604 214.85919642 89.25 215.25 C81.566597 216.63956159 73.93861881 218.26398478 66.3125 219.9375 C65.19713867 220.17823242 64.08177734 220.41896484 62.93261719 220.66699219 C56.17180774 222.16475315 49.58852613 223.96423757 42.99829102 226.09228516 C39.89602517 227.03147776 36.79363276 227.75894788 33.625 228.4375 C28.01831847 229.67436792 22.68082061 231.36577566 17.2590332 233.22314453 C11.47624426 235.20056849 6.15984005 237 0 237 C0 158.79 0 80.58 0 0 Z " fill="#32B5FF" transform="translate(516,615)"/>
    <path d="M0 0 C0.66 0.33 1.32 0.66 2 1 C1.030625 1.7425 0.06125 2.485 -0.9375 3.25 C-4.91313658 7.12273775 -4.79796946 11.26436331 -4.9921875 16.5859375 C-4.99476563 17.38257813 -4.99734375 18.17921875 -5 19 C-5.33 19 -5.66 19 -6 19 C-6.92017937 6.40717489 -6.92017937 6.40717489 -4.6640625 2.95703125 C-3 1.625 -3 1.625 0 0 Z " fill="none" transform="translate(393,943)"/>
    <path d="M0 0 C0.66 0 1.32 0 2 0 C2 3 2 3 0.35546875 4.82421875 C-0.71767578 5.74654297 -0.71767578 5.74654297 -1.8125 6.6875 C-2.52019531 7.31011719 -3.22789063 7.93273437 -3.95703125 8.57421875 C-6 10 -6 10 -9 10 C-7.5484451 8.32742645 -6.08855591 6.66208242 -4.625 5 C-3.81289062 4.071875 -3.00078125 3.14375 -2.1640625 2.1875 C-1.44992187 1.465625 -0.73578125 0.74375 0 0 Z " fill="none" transform="translate(1565,575)"/>
  </g>

</svg>
