<?xml version="1.0" encoding="UTF-8"?>
<svg version="1.1" xmlns="http://www.w3.org/2000/svg" width="512" height="512">
<path d="M0 0 C0.75178528 0.00215515 1.50357056 0.0043103 2.27813721 0.00653076 C13.23064337 0.05693064 23.61622123 0.46455314 34.25 3.3125 C35.00249023 3.50054199 35.75498047 3.68858398 36.53027344 3.88232422 C72.02974607 12.84633328 105.40522407 35.18518854 125.25 66.3125 C126.31154297 67.94058594 126.31154297 67.94058594 127.39453125 69.6015625 C146.94907095 100.33132433 150.44813421 133.01974041 150.3125 168.625 C150.30747539 170.92643132 150.30291419 173.2278637 150.29882812 175.52929688 C150.28789765 181.12372136 150.27123558 186.71810563 150.25 192.3125 C151.31436279 192.29155273 152.37872559 192.27060547 153.4753418 192.24902344 C157.43549066 192.17646038 161.3955811 192.13064149 165.35620117 192.09277344 C167.06821586 192.07269495 168.78016228 192.04542608 170.49194336 192.01074219 C172.95704008 191.96205599 175.4212279 191.93949427 177.88671875 191.921875 C178.64836838 191.90122986 179.41001801 191.88058472 180.19474792 191.85931396 C183.93491609 191.85774533 186.03097498 192.17196271 189.21020508 194.21191406 C192.14185947 197.23093913 192.37558371 198.82672877 192.38422108 202.91914368 C192.38867892 203.89579294 192.39313676 204.87244221 192.39772969 205.8786869 C192.39745315 207.49975129 192.39745315 207.49975129 192.39717102 209.15356445 C192.40084771 210.29569586 192.4045244 211.43782726 192.4083125 212.61456871 C192.41745061 215.79459258 192.42205153 218.97458612 192.42470181 222.15462089 C192.42860097 225.58085672 192.43817981 229.00707756 192.44691467 232.43330383 C192.46669371 240.71438252 192.47674871 248.99546246 192.48564246 257.27655888 C192.49002443 261.17637779 192.49539161 265.07619534 192.50063133 268.97601318 C192.51764772 281.94140338 192.53214054 294.90679273 192.53938007 307.87219238 C192.54128998 311.23819988 192.54321031 314.60420737 192.54516602 317.97021484 C192.54564976 318.80682349 192.5461335 319.64343213 192.5466319 320.50539255 C192.55492701 334.0491583 192.58025329 347.59283557 192.61274669 361.13656271 C192.64583709 375.04260869 192.66383076 388.94860976 192.66702431 402.85469532 C192.66918796 410.66194452 192.67791486 418.46906483 192.70348549 426.27627563 C192.72521987 432.92763463 192.73322964 439.57883347 192.72351871 446.23022395 C192.71898129 449.62197246 192.72301936 453.01312348 192.74028015 456.40487099 C192.75797639 460.08871386 192.75090267 463.77172283 192.73774719 467.45556641 C192.75420106 469.04986213 192.75420106 469.04986213 192.77098733 470.67636585 C192.67161552 482.22813617 188.1291733 492.17154533 180.14453125 500.51171875 C172.68090054 507.46150225 164.02627611 512.55440159 153.5733223 512.56976891 C152.4598232 512.5762178 151.34632411 512.58266669 150.19908261 512.589311 C148.9860593 512.5862138 147.77303599 512.5831166 146.52325439 512.57992554 C145.22661385 512.58445665 143.92997331 512.58898776 142.59404063 512.59365618 C139.00117671 512.60587676 135.40840597 512.60562683 131.81552601 512.60326743 C127.9380888 512.60285902 124.06068136 512.61390075 120.18325806 512.62338257 C112.58869582 512.63998866 104.99416463 512.64549195 97.39958575 512.64660732 C91.22513388 512.64755804 85.05069223 512.65166951 78.87624359 512.65800858 C61.36500988 512.67562037 43.85380068 512.68484761 26.34255806 512.68334763 C25.39871312 512.68326772 24.45486818 512.6831878 23.48242188 512.68310547 C22.0649228 512.68298283 22.0649228 512.68298283 20.61878738 512.68285771 C5.30668102 512.68204495 -10.00532694 512.70118006 -25.31740484 512.7293822 C-41.04516268 512.75812101 -56.77287255 512.77192193 -72.50065732 512.77019465 C-81.32840966 512.76953106 -90.15605886 512.77500948 -98.98378754 512.79655075 C-106.50059048 512.81477573 -114.01724353 512.81909914 -121.53405902 512.8055319 C-125.3672489 512.7990087 -129.20015134 512.79886132 -133.03331375 512.8162384 C-137.1941992 512.83490667 -141.35442117 512.82239775 -145.51531982 512.80697632 C-146.71942025 512.81726344 -147.92352067 512.82755057 -149.16410899 512.83814943 C-161.19144823 512.73972466 -171.22200074 508.56221865 -179.94921875 500.20703125 C-184.18286173 495.66036475 -187.48425822 491.11145297 -189.75 485.3125 C-190.26113814 484.11633859 -190.26113814 484.11633859 -190.78260231 482.89601231 C-192.13439812 477.88858157 -192.0323416 473.12175772 -192.01742554 467.95677185 C-192.02195665 466.80769492 -192.02648776 465.65861798 -192.03115618 464.47472054 C-192.04161317 461.29404389 -192.04312831 458.11350973 -192.04076743 454.93282139 C-192.04035874 451.49924489 -192.05140319 448.06570192 -192.06088257 444.63214111 C-192.07747994 437.90955153 -192.08299148 431.18699702 -192.08410732 424.46438866 C-192.08505807 419.00118244 -192.08916966 413.53798779 -192.09550858 408.07478523 C-192.11311483 392.58571109 -192.122348 377.09666464 -192.12084763 361.60758042 C-192.12076772 360.7729407 -192.1206878 359.93830097 -192.12060547 359.07836914 C-192.12052371 358.24271095 -192.12044195 357.40705276 -192.12035771 356.5460716 C-192.1195442 342.99271046 -192.13869963 329.4394603 -192.1668822 315.88613128 C-192.19559145 301.96980654 -192.20942369 288.05353598 -192.20769465 274.13718086 C-192.20703024 266.32401055 -192.21254534 258.51095669 -192.23405075 250.69781303 C-192.25223645 244.04822907 -192.25663124 237.3988144 -192.2430319 230.74921637 C-192.2364899 227.35611522 -192.23642901 223.96333911 -192.2537384 220.57026863 C-192.26909129 216.89363375 -192.25994777 213.21785982 -192.24447632 209.54124451 C-192.25476344 208.46654496 -192.26505057 207.39184542 -192.27564943 206.28457922 C-192.20826329 199.06732489 -192.20826329 199.06732489 -189.84409523 195.17320347 C-185.99344488 191.75171702 -182.60280434 192.18214716 -177.6796875 192.21484375 C-176.88345978 192.2162587 -176.08723206 192.21767365 -175.26687622 192.21913147 C-172.7195462 192.22473655 -170.17230353 192.23728986 -167.625 192.25 C-165.89974085 192.25501435 -164.17448033 192.25957737 -162.44921875 192.26367188 C-158.21611209 192.27470763 -153.98307086 192.29197564 -149.75 192.3125 C-149.75444122 191.74081589 -149.75888245 191.16913177 -149.76345825 190.5801239 C-149.80836141 184.52715607 -149.83813801 178.47423691 -149.85986328 172.42114258 C-149.86980401 170.17437818 -149.88336128 167.9276263 -149.90087891 165.6809082 C-150.03405109 148.13743155 -149.83702216 130.66974062 -145.5 113.5625 C-145.28384033 112.68891846 -145.06768066 111.81533691 -144.8449707 110.9152832 C-142.82315238 103.05794219 -140.13525073 95.69777578 -136.75 88.3125 C-136.30333984 87.33289307 -136.30333984 87.33289307 -135.84765625 86.33349609 C-128.94000976 71.36095735 -119.73209002 58.5704137 -108.75 46.3125 C-107.70972656 45.14460938 -107.70972656 45.14460938 -106.6484375 43.953125 C-95.36677806 32.0180876 -81.38518186 22.61552131 -66.75 15.3125 C-66.11803711 14.99587402 -65.48607422 14.67924805 -64.83496094 14.35302734 C-56.8236628 10.42129082 -48.62735914 7.491777 -40.0625 5 C-39.23210205 4.75741455 -38.4017041 4.5148291 -37.54614258 4.26489258 C-25.10934449 0.82259713 -12.83569702 -0.06628215 0 0 Z M-27.75 69.3125 C-29.34328125 69.85583984 -29.34328125 69.85583984 -30.96875 70.41015625 C-52.48903269 78.59119155 -68.42198834 95.65561478 -78.0234375 116.20703125 C-88.518983 140.11481502 -84.75 166.8664594 -84.75 192.3125 C-28.65 192.3125 27.45 192.3125 85.25 192.3125 C86.47231806 134.27227827 86.47231806 134.27227827 59.25 88.3125 C50.57106574 80.21377305 41.2971432 74.29549333 30.25 70.0625 C29.28960815 69.69282104 29.28960815 69.69282104 28.30981445 69.31567383 C10.56124029 62.83660442 -9.97856469 63.20857233 -27.75 69.3125 Z M-31.625 292.328125 C-39.95481147 302.90698556 -42.74999837 313.957683 -41.75 327.3125 C-40.44511859 335.42648986 -36.37145957 344.46801071 -29.9609375 349.80078125 C-29.41695312 350.17589844 -28.87296875 350.55101562 -28.3125 350.9375 C-25.75 353.3125 -25.75 353.3125 -25.46130371 355.15228271 C-25.62389867 361.00718536 -26.13502677 366.76489773 -26.84375 372.578125 C-27.07171874 374.54035249 -27.29957994 376.50259247 -27.52734375 378.46484375 C-27.88703473 381.51022739 -28.24913795 384.55530161 -28.61376953 387.60009766 C-32.07543704 405.25581872 -32.07543704 405.25581872 -29.70751953 422.15820312 C-27.4451363 424.54245163 -25.01656817 426.22483715 -21.72087097 426.45294189 C-20.88767838 426.4597699 -20.05448578 426.4665979 -19.19604492 426.47363281 C-17.77898506 426.48804413 -17.77898506 426.48804413 -16.33329773 426.50274658 C-15.30936417 426.50699646 -14.2854306 426.51124634 -13.23046875 426.515625 C-11.65438591 426.52417511 -11.65438591 426.52417511 -10.04646301 426.53289795 C-7.81964121 426.54235652 -5.59280536 426.54888532 -3.3659668 426.55273438 C0.03817252 426.56243071 3.44170584 426.5934427 6.84570312 426.625 C9.00780891 426.63153086 11.16991902 426.63678101 13.33203125 426.640625 C14.34989212 426.6529718 15.36775299 426.6653186 16.41645813 426.67803955 C23.34931896 426.70620132 23.34931896 426.70620132 29.25 423.3125 C35.43307346 414.03788981 30.00962034 395.08075256 28.75 384.5625 C28.38974981 381.53301352 28.0318103 378.50332435 27.68005371 375.47283936 C27.46260743 373.60118334 27.2403596 371.73007618 27.0123291 369.85968018 C26.52652807 365.69440064 26.13704986 361.53872572 25.99023438 357.34667969 C25.96457397 356.63662781 25.93891357 355.92657593 25.91247559 355.19500732 C26.47881896 352.03628605 28.75979211 350.90329701 31.234375 349.09765625 C38.24771541 342.88622879 41.73017798 333.48435507 42.49609375 324.390625 C43.02138455 311.08325799 39.18006834 300.22031305 30.25 290.3125 C21.05230665 281.75650619 9.95452704 277.72458251 -2.5390625 278.0078125 C-14.02413383 279.09763679 -23.75663927 283.86963721 -31.625 292.328125 Z " fill="#000000" transform="translate(255.75,-0.3125)"/>
</svg>
