<?xml version="1.0" encoding="UTF-8"?>
<svg version="1.1" xmlns="http://www.w3.org/2000/svg" width="512" height="512">
<path d="M0 0 C2.50886101 2.21602865 4.93731824 4.49390725 7.3515625 6.8125 C8.25777344 7.65554687 9.16398438 8.49859375 10.09765625 9.3671875 C16.97716336 15.95090443 22.25821859 22.78106018 27.3515625 30.8125 C28.29322266 32.28009766 28.29322266 32.28009766 29.25390625 33.77734375 C46.088855 61.22162562 51.3949265 97.45606317 44.32397461 128.84179688 C35.94066257 161.75020189 16.43199706 190.78926489 -12.6484375 208.8125 C-13.55207031 209.41191406 -14.45570313 210.01132812 -15.38671875 210.62890625 C-42.36517648 227.68600753 -77.56910557 232.41141322 -108.6484375 226.1875 C-132.73806232 220.757563 -153.88246435 208.82183034 -171.6484375 191.8125 C-172.76798828 190.78769531 -172.76798828 190.78769531 -173.91015625 189.7421875 C-180.53080708 183.47972196 -185.62807086 176.36901738 -190.6484375 168.8125 C-191.2775 167.87921875 -191.9065625 166.9459375 -192.5546875 165.984375 C-209.8095122 138.53351753 -214.65932205 102.11457806 -207.5534668 70.64160156 C-199.10507566 37.38421884 -179.2041093 8.01551033 -149.63964844 -10.01318359 C-138.21699833 -16.74969009 -126.40120754 -21.57607017 -113.6484375 -25.1875 C-112.47023438 -25.52910156 -111.29203125 -25.87070313 -110.078125 -26.22265625 C-72.11908732 -35.19100032 -29.84691501 -24.65231918 0 0 Z M-106.6484375 -9.1875 C-102.37500525 -5.73202939 -98.02704113 -2.38280644 -93.6484375 0.9375 C-92.60042969 1.74380859 -92.60042969 1.74380859 -91.53125 2.56640625 C-90.84804688 3.08332031 -90.16484375 3.60023438 -89.4609375 4.1328125 C-88.84863281 4.59961426 -88.23632812 5.06641602 -87.60546875 5.54736328 C-85.2890825 7.04480759 -83.32310457 8.09670396 -80.6484375 8.8125 C-78.42462796 7.97225026 -78.42462796 7.97225026 -76.43359375 6.3046875 C-75.66466797 5.72976562 -74.89574219 5.15484375 -74.10351562 4.5625 C-73.31396484 3.94375 -72.52441406 3.325 -71.7109375 2.6875 C-70.1398894 1.49664812 -68.56828625 0.3065281 -66.99609375 -0.8828125 C-66.25504395 -1.45290039 -65.51399414 -2.02298828 -64.75048828 -2.61035156 C-62.89844859 -3.99991909 -61.02368424 -5.29520611 -59.08203125 -6.5546875 C-58.27894531 -7.09351563 -57.47585938 -7.63234375 -56.6484375 -8.1875 C-56.6484375 -8.5175 -56.6484375 -8.8475 -56.6484375 -9.1875 C-73.37441976 -12.76915525 -89.92995154 -12.88033826 -106.6484375 -9.1875 Z M-153.6484375 14.8125 C-154.57011719 15.59109375 -155.49179687 16.3696875 -156.44140625 17.171875 C-162.05730843 21.54945982 -162.05730843 21.54945982 -164.6484375 27.8125 C-164.38074852 29.82478141 -164.38074852 29.82478141 -163.72729492 31.875 C-163.49922653 32.66261719 -163.27115814 33.45023438 -163.03617859 34.26171875 C-162.77802872 35.10347656 -162.51987885 35.94523437 -162.25390625 36.8125 C-161.98765945 37.68519531 -161.72141266 38.55789062 -161.44709778 39.45703125 C-160.87727449 41.30140961 -160.30107359 43.1438279 -159.71899414 44.984375 C-158.84218991 47.79247568 -158.01996501 50.61315352 -157.19726562 53.4375 C-154.73978898 62.57590669 -154.73978898 62.57590669 -149.17602539 69.84326172 C-146.64413401 70.83817903 -144.32363646 71.36491273 -141.6484375 71.8125 C-140.60816406 72.39257812 -139.56789063 72.97265625 -138.49609375 73.5703125 C-134.9138692 75.32876775 -132.66927581 75.95129463 -128.6484375 75.8125 C-122.4670474 72.953818 -117.32226592 68.20445897 -112.14746094 63.85791016 C-108.10871914 60.55226549 -103.8476599 57.57125619 -99.5859375 54.5625 C-98.09307538 53.49755723 -96.60202323 52.43006997 -95.11328125 51.359375 C-94.4905835 50.91432617 -93.86788574 50.46927734 -93.22631836 50.01074219 C-90.40769314 47.90343536 -90.40769314 47.90343536 -89.26269531 44.69287109 C-88.14214847 32.97940086 -88.14214847 32.97940086 -91.25 22.03515625 C-93.91359494 19.94363926 -96.67246274 18.43420053 -99.6484375 16.8125 C-102.74026135 14.67239158 -105.74917785 12.42164616 -108.7734375 10.1875 C-110.27438561 9.10966926 -111.77695562 8.03409301 -113.28125 6.9609375 C-116.92580384 4.3572201 -120.48553899 1.6581825 -124.01513672 -1.09912109 C-130.74259305 -5.58208079 -148.73651639 10.48670729 -153.6484375 14.8125 Z M-44.6484375 3 C-51.64184266 8.32946261 -58.72666079 13.51314544 -65.8828125 18.62182617 C-66.60726562 19.14107666 -67.33171875 19.66032715 -68.078125 20.1953125 C-69.04081299 20.88197998 -69.04081299 20.88197998 -70.02294922 21.58251953 C-72.8730514 23.69914796 -72.8730514 23.69914796 -74.03417969 26.93212891 C-75.15472653 38.64559914 -75.15472653 38.64559914 -72.046875 49.58984375 C-69.38354382 51.68115363 -66.62442943 53.19204659 -63.6484375 54.8125 C-61.42010777 56.35624464 -59.24387397 57.95969075 -57.06689453 59.57495117 C-54.72130308 61.30485525 -52.33867593 62.97206077 -49.94921875 64.640625 C-47.33761833 66.49811246 -45.01105013 68.33774454 -42.81640625 70.671875 C-40.02626993 73.43045889 -38.45382072 74.76431061 -34.6484375 75.8125 C-30.68326756 75.49345457 -27.01937239 74.56051577 -23.2109375 73.4375 C-22.23801758 73.1580957 -21.26509766 72.87869141 -20.26269531 72.59082031 C-16.54300965 71.27562256 -13.57924192 70.16136341 -11.29003906 66.84399414 C-10.19658452 64.20350596 -9.42152307 61.56437671 -8.6484375 58.8125 C-8.00355425 56.95103293 -7.35807149 55.08974518 -6.70100403 53.23254395 C-5.75434649 50.52887964 -4.85854117 47.80952765 -3.96435547 45.08813477 C-3.500008 43.6847553 -3.02853035 42.28371685 -2.55029297 40.88500977 C-1.85090546 38.8384336 -1.17324447 36.78577117 -0.5 34.73046875 C-0.09604004 33.52156982 0.30791992 32.3126709 0.72412109 31.06713867 C1.42648063 27.42388771 1.15453659 26.00100567 -0.6484375 22.8125 C-10.01441351 12.42536135 -22.7376843 3.27029529 -35.6484375 -2.1875 C-39.22592359 -2.1875 -41.8991818 0.87888333 -44.6484375 3 Z M-177.6484375 42.8125 C-189.58280726 64.41110671 -189.58280726 64.41110671 -192.1875 88.109375 C-192.00960937 88.67140625 -191.83171875 89.2334375 -191.6484375 89.8125 C-190.83761719 89.1834375 -190.02679688 88.554375 -189.19140625 87.90625 C-188.0729802 87.04158448 -186.95448688 86.17700596 -185.8359375 85.3125 C-185.30806641 84.90257812 -184.78019531 84.49265625 -184.23632812 84.0703125 C-178.78557101 79.86271052 -173.22616102 75.8690262 -167.6484375 71.8125 C-172.1034375 57.4575 -172.1034375 57.4575 -176.6484375 42.8125 C-176.9784375 42.8125 -177.3084375 42.8125 -177.6484375 42.8125 Z M13.3515625 42.8125 C10.3815625 52.3825 7.4115625 61.9525 4.3515625 71.8125 C12.26789826 77.94127607 20.21651833 83.97613565 28.3515625 89.8125 C29.66790994 85.47389568 28.78752451 81.88673158 27.7890625 77.5625 C27.60851318 76.76980713 27.42796387 75.97711426 27.24194336 75.16040039 C24.53013364 63.80109406 20.58574517 52.74305646 14.3515625 42.8125 C14.0215625 42.8125 13.6915625 42.8125 13.3515625 42.8125 Z M-88.62744141 66.65161133 C-89.75158447 67.53562622 -89.75158447 67.53562622 -90.8984375 68.4375 C-92.49390919 69.64309583 -94.09028773 70.84749234 -95.6875 72.05078125 C-96.50250977 72.67291504 -97.31751953 73.29504883 -98.15722656 73.93603516 C-102.1289831 76.92769732 -106.19947717 79.77496507 -110.2734375 82.625 C-111.70330217 83.6312587 -113.13300676 84.63774496 -114.5625 85.64453125 C-115.58085937 86.35996094 -116.59921875 87.07539063 -117.6484375 87.8125 C-117.36121826 88.7597998 -117.07399902 89.70709961 -116.77807617 90.68310547 C-115.69882855 94.24279427 -114.61977298 97.80254127 -113.54077148 101.36230469 C-113.07630456 102.8945468 -112.61178754 104.42677373 -112.1472168 105.95898438 C-111.69587634 107.44758197 -111.24463227 108.93620879 -110.79348755 110.42486572 C-110.3525202 111.87952948 -109.91117855 113.33407982 -109.4694519 114.78851318 C-108.0218126 119.55984727 -106.60321899 124.33892867 -105.2199707 129.12939453 C-104.78213019 130.82620568 -104.78213019 130.82620568 -103.6484375 131.8125 C-102.26683635 131.9052833 -100.88055712 131.92997043 -99.49584961 131.92602539 C-98.61501205 131.92594986 -97.7341745 131.92587433 -96.8266449 131.92579651 C-95.39071739 131.91805458 -95.39071739 131.91805458 -93.92578125 131.91015625 C-92.95057022 131.9087413 -91.97535919 131.90732635 -90.97059631 131.90586853 C-87.84234607 131.90025133 -84.71416627 131.88769593 -81.5859375 131.875 C-79.47070416 131.86998722 -77.35546969 131.86542393 -75.24023438 131.86132812 C-70.04294454 131.85027631 -64.84569605 131.83352146 -59.6484375 131.8125 C-57.56565117 126.37960933 -55.67594407 120.93030587 -53.94921875 115.375 C-53.58935127 114.22668701 -53.58935127 114.22668701 -53.22221375 113.05517578 C-52.46635219 110.64160238 -51.71359191 108.2270752 -50.9609375 105.8125 C-50.4448674 104.16269598 -49.92859321 102.51295579 -49.41210938 100.86328125 C-48.15519419 96.84708732 -46.90105683 92.83003574 -45.6484375 88.8125 C-54.00333962 82.11839047 -62.47439803 75.58792677 -71.1484375 69.3125 C-71.72327881 68.89145996 -72.29812012 68.47041992 -72.89038086 68.03662109 C-74.44755788 66.92053382 -76.04693361 65.86399245 -77.6484375 64.8125 C-78.43734375 64.27367187 -79.22625 63.73484375 -80.0390625 63.1796875 C-83.87946727 62.63927126 -85.61033618 64.38963857 -88.62744141 66.65161133 Z M-164.1484375 89.9375 C-164.88441162 90.46504883 -165.62038574 90.99259766 -166.37866211 91.53613281 C-175.19561363 97.87819923 -183.92853877 104.33791383 -192.6484375 110.8125 C-191.93704495 119.45083813 -190.08870197 127.3513831 -187.3984375 135.5625 C-187.12314209 136.42447998 -186.84784668 137.28645996 -186.56420898 138.17456055 C-185.98420373 139.88328633 -185.3557012 141.57629396 -184.68066406 143.24975586 C-183.6484375 145.8125 -183.6484375 145.8125 -182.85839844 148.62719727 C-181.54522967 152.03699393 -180.58242644 153.58631517 -177.6484375 155.8125 C-171.44852227 157.57547724 -164.91010412 157.37429498 -158.51904297 157.28100586 C-155.4155695 157.25017022 -152.33207848 157.34145287 -149.23046875 157.44335938 C-138.33730924 157.84893061 -138.33730924 157.84893061 -129.10351562 152.95751953 C-126.45773412 149.81864114 -124.56046918 146.43463904 -122.6484375 142.8125 C-122.05442139 142.1210791 -121.46040527 141.4296582 -120.84838867 140.71728516 C-119.40294805 138.84809019 -119.40294805 138.84809019 -119.85571289 136.4230957 C-120.12891357 135.51648193 -120.40211426 134.60986816 -120.68359375 133.67578125 C-121.73271235 130.01747302 -122.77136715 126.37994699 -123.61669922 122.66943359 C-126.97052512 104.67285033 -126.97052512 104.67285033 -136.07080078 89.52050781 C-145.94171195 83.75655193 -155.07706147 83.33677076 -164.1484375 89.9375 Z M-29.6484375 91.8125 C-34.58278261 98.32682654 -36.10916087 106.71081201 -38.0234375 114.5 C-38.61641595 116.60427919 -39.21662458 118.70653499 -39.82421875 120.80664062 C-40.8943118 124.64029592 -41.95734668 128.47337726 -42.90771484 132.33862305 C-43.10054047 133.10804733 -43.29336609 133.87747162 -43.49203491 134.67021179 C-43.77224255 138.50829095 -41.46147258 141.22558826 -39.30078125 144.23046875 C-38.86056641 144.84470703 -38.42035156 145.45894531 -37.96679688 146.09179688 C-37.28327148 147.03635742 -37.28327148 147.03635742 -36.5859375 148 C-36.12638672 148.64130859 -35.66683594 149.28261719 -35.19335938 149.94335938 C-33.07621479 153.00559129 -33.07621479 153.00559129 -30.6484375 155.8125 C-29.26996769 155.95706907 -27.8844071 156.03504067 -26.49926758 156.0847168 C-25.61777542 156.11691818 -24.73628326 156.14911957 -23.82807922 156.18229675 C-19.77784639 156.29283468 -15.72777857 156.37537838 -11.67651367 156.43725586 C-9.54126813 156.47891998 -7.40631184 156.54029234 -5.2722168 156.62182617 C6.41317703 157.61188768 6.41317703 157.61188768 16.98388672 153.89794922 C18.66197677 151.22025776 19.52619704 148.85680362 20.3515625 145.8125 C21.03150563 144.11884692 21.71375161 142.42611631 22.3984375 140.734375 C22.98183284 139.01566183 23.54936547 137.29148916 24.1015625 135.5625 C24.39812744 134.65733643 24.69469238 133.75217285 25.00024414 132.81958008 C27.30255762 125.54086151 28.72369305 118.43662903 29.3515625 110.8125 C19.89712332 103.79251238 10.42256422 96.79802756 0.8515625 89.9375 C0.1407251 89.42026367 -0.5701123 88.90302734 -1.30249023 88.37011719 C-9.77264314 82.34258246 -21.48714471 85.87485559 -29.6484375 91.8125 Z M-117.88929749 162.70863342 C-119.96773751 168.46878361 -116.777 175.02734853 -114.92578125 180.58984375 C-114.66084366 181.40119278 -114.39590607 182.21254181 -114.12294006 183.04847717 C-113.28269323 185.61746624 -112.43445561 188.18373249 -111.5859375 190.75 C-111.01183813 192.50047676 -110.43826499 194.25112621 -109.86523438 196.00195312 C-108.46571445 200.27415689 -107.05902618 204.54393876 -105.6484375 208.8125 C-90.68536907 211.97765604 -76.7296283 212.22053171 -61.6484375 209.8125 C-60.98231445 209.71748199 -60.31619141 209.62246399 -59.62988281 209.52456665 C-57.53638883 209.00586072 -57.53638883 209.00586072 -56.66716003 207.20733643 C-56.44208267 206.51404236 -56.21700531 205.82074829 -55.98510742 205.10644531 C-55.72191208 204.32182922 -55.45871674 203.53721313 -55.18754578 202.7288208 C-54.78726921 201.44766388 -54.78726921 201.44766388 -54.37890625 200.140625 C-54.09364578 199.26605652 -53.80838531 198.39148804 -53.51448059 197.49041748 C-52.914161 195.63681141 -52.3220671 193.78052437 -51.73754883 191.921875 C-50.84182531 189.08117263 -49.9163152 186.25152027 -48.98632812 183.421875 C-48.4070448 181.62037248 -47.82951284 179.81830566 -47.25390625 178.015625 C-46.97693405 177.16961731 -46.69996185 176.32360962 -46.41459656 175.45196533 C-44.47307187 169.19644621 -44.5507105 165.78090984 -47.52954102 159.89672852 C-50.73016685 154.50865457 -54.12339461 149.1684561 -60.17401123 146.84100342 C-66.20272921 145.51922469 -72.20068045 145.48921173 -78.34741211 145.67163086 C-81.58794152 145.7500485 -84.79051256 145.65213807 -88.02929688 145.53710938 C-102.6617934 145.42722424 -111.03433594 149.33542181 -117.88929749 162.70863342 Z M-164.6484375 172.8125 C-158.23676568 185.63584363 -140.62943833 196.32500875 -127.6484375 201.8125 C-126.9884375 201.8125 -126.3284375 201.8125 -125.6484375 201.8125 C-128.12145014 191.96383563 -131.3958083 182.42582629 -134.6484375 172.8125 C-144.5484375 172.8125 -154.4484375 172.8125 -164.6484375 172.8125 Z M-28.6484375 172.8125 C-30.1334375 177.22625 -31.6184375 181.64 -33.1484375 186.1875 C-33.85323242 188.27457275 -33.85323242 188.27457275 -34.57226562 190.40380859 C-34.93771484 191.49516113 -35.30316406 192.58651367 -35.6796875 193.7109375 C-36.05673828 194.83161621 -36.43378906 195.95229492 -36.82226562 197.10693359 C-37.74578667 199.65981869 -37.74578667 199.65981869 -37.6484375 201.8125 C-23.03349181 197.49039716 -7.62445286 186.12995174 1.3515625 173.8125 C1.3515625 173.4825 1.3515625 173.1525 1.3515625 172.8125 C-8.5484375 172.8125 -18.4484375 172.8125 -28.6484375 172.8125 Z " fill="#e3372b" transform="translate(417.6484375,156.1875)"/>
<path d="M0 0 C6.24641743 3.52591471 11.54119576 8.23747843 16.45703125 13.421875 C18.16489148 15.22868308 18.16489148 15.22868308 21 17.4375 C24.76279701 20.65155578 27.82047559 24.21996899 31 28 C32.11181641 29.28003906 32.11181641 29.28003906 33.24609375 30.5859375 C52.98901849 53.64567359 84 95.43445527 84 127 C84.64686768 127.10666992 85.29373535 127.21333984 85.96020508 127.32324219 C93.31722396 128.59180646 100.47057272 130.35434059 107.6875 132.25 C119.90258694 135.40474172 132.16688796 137.84870487 144.60229492 139.95800781 C145.88724854 140.18327148 147.17220215 140.40853516 148.49609375 140.640625 C150.20043579 140.92728027 150.20043579 140.92728027 151.93920898 141.21972656 C155.12234155 142.03118797 157.33476248 143.0962158 160 145 C161.60682055 148.2136411 161.46150508 151.51460341 161 155 C159.625 157.5 159.625 157.5 157 159 C148.04547166 160.25103503 138.8480073 157.63548737 130.125 155.8125 C128.56068907 155.49237846 126.99631692 155.17255591 125.43188477 154.85302734 C95.29520756 148.64760378 95.29520756 148.64760378 90 146 C90.13051758 146.54487061 90.26103516 147.08974121 90.39550781 147.65112305 C93.25573726 159.75951119 95.56662988 171.85737074 97.25 184.1875 C97.49411621 185.97450317 97.49411621 185.97450317 97.74316406 187.79760742 C99.23597935 199.14189431 100.16357549 210.30514454 100.0625 221.75 C100.05798828 222.74515625 100.05347656 223.7403125 100.04882812 224.765625 C100.03723425 227.17715127 100.02092164 229.5885398 100 232 C100.82725586 231.97905273 101.65451172 231.95810547 102.50683594 231.93652344 C106.2544337 231.85338381 110.00183749 231.80134469 113.75 231.75 C115.05195313 231.71648437 116.35390625 231.68296875 117.6953125 231.6484375 C118.94570312 231.63554687 120.19609375 231.62265625 121.484375 231.609375 C122.63647461 231.58842773 123.78857422 231.56748047 124.97558594 231.54589844 C128.63146493 232.09481149 129.76793862 233.116418 132 236 C132.53125 238 132.53125 238 132.5 240 C132.51546875 240.99 132.51546875 240.99 132.53125 242 C131.74602769 244.95613104 130.37494875 246.09984561 128 248 C124.97558594 248.45410156 124.97558594 248.45410156 121.484375 248.390625 C119.60878906 248.37128906 119.60878906 248.37128906 117.6953125 248.3515625 C115.74238281 248.30128906 115.74238281 248.30128906 113.75 248.25 C112.43257812 248.23195313 111.11515625 248.21390625 109.7578125 248.1953125 C106.50447692 248.14816271 103.25260375 248.08236044 100 248 C100.03480469 249.26328125 100.06960937 250.5265625 100.10546875 251.828125 C100.62994483 279.99730712 95.97832355 307.56447686 90 335 C90.56439285 334.86663239 91.12878571 334.73326477 91.71028137 334.59585571 C97.6315005 333.19724209 103.55364413 331.80259476 109.47631836 330.41015625 C111.68098074 329.89129827 113.88541248 329.37145918 116.08959961 328.85058594 C119.27396173 328.09827228 122.45916091 327.34959425 125.64453125 326.6015625 C126.61582474 326.3712735 127.58711823 326.1409845 128.58784485 325.90371704 C154.29885494 319.88505996 154.29885494 319.88505996 160.625 323.5 C162.51112608 326.92932014 163.01435425 330.18125457 162 334 C158.9689132 337.71846195 156.5284499 338.68791129 151.875 339.60546875 C150.6276709 339.86239502 149.3803418 340.11932129 148.09521484 340.3840332 C147.42882996 340.51460114 146.76244507 340.64516907 146.0758667 340.7796936 C142.49406145 341.48334336 138.92330439 342.23938428 135.3515625 342.9921875 C134.60008942 343.14957901 133.84861633 343.30697052 133.07437134 343.46913147 C124.12077934 345.36381073 115.24892609 347.5786912 106.375 349.8125 C105.59592285 350.00717865 104.8168457 350.2018573 104.01416016 350.4024353 C96.99525852 352.15559248 96.99525852 352.15559248 90 354 C88.35052368 354.42116089 88.35052368 354.42116089 86.66772461 354.85083008 C83.91281944 355.74828869 83.91281944 355.74828869 82.72729492 357.92919922 C82.48084229 358.71311035 82.23438965 359.49702148 81.98046875 360.3046875 C81.685354 361.18809814 81.39023926 362.07150879 81.08618164 362.98168945 C80.7896167 363.93648193 80.49305176 364.89127441 80.1875 365.875 C79.50876496 367.8888057 78.82371936 369.900494 78.1328125 371.91015625 C77.78379883 372.92996582 77.43478516 373.94977539 77.07519531 375.00048828 C66.44157782 404.66548023 49.0994769 432.35225422 27.54296875 455.24609375 C25.75700572 457.18020118 24.06879867 459.10397969 22.40625 461.13671875 C16.57071671 468.08062443 8.1167608 475.9416196 0 480 C-7.16532905 480.57784912 -7.16532905 480.57784912 -10.4375 478.3125 C-12.22849814 475.66182276 -12.92366259 474.20617138 -13 471 C-11.35578277 465.30847881 -7.38480884 462.70978054 -2.8828125 459.2578125 C6.26547966 452.09288992 13.86985426 444.17116674 21 435 C21.65355469 434.21238281 22.30710937 433.42476563 22.98046875 432.61328125 C39.75785093 412.35316904 53.12705682 387.70729515 62 363 C45.93799393 368.08347777 30.07880459 373.54626442 14.4375 379.8125 C13.70924011 380.10402954 12.98098022 380.39555908 12.23065186 380.69592285 C4.28211892 383.89257958 -3.59326602 387.21766929 -11.3828125 390.78515625 C-12.0485881 391.0892189 -12.71436371 391.39328156 -13.40031433 391.70655823 C-16.53504633 393.14276283 -19.65595106 394.59939755 -22.76586914 396.08911133 C-28.79809747 398.90567996 -33.31143904 400.88765535 -40 400 C-42.5 398.5 -42.5 398.5 -44 396 C-44.54686219 393.22011721 -44.72991469 390.74791413 -44 388 C-40.95209101 384.07581718 -36.9174231 382.21964057 -32.5 380.1875 C-31.69377197 379.81278564 -30.88754395 379.43807129 -30.05688477 379.05200195 C-4.2432974 367.24200078 22.13104771 357.11683799 49 348 C51.00673566 347.30924777 53.01327167 346.61791502 55.01953125 345.92578125 C56.65841775 345.36590838 58.29769501 344.80717699 59.9375 344.25 C60.99251709 343.88926392 60.99251709 343.88926392 62.06884766 343.52124023 C64.85622709 342.59414764 67.03727249 342 70 342 C70.11029541 341.36618408 70.22059082 340.73236816 70.33422852 340.0793457 C71.47807253 333.6361737 72.78248248 327.24006893 74.15722656 320.8425293 C78.25376499 301.65314356 80.91861185 282.87529483 82.078125 263.30078125 C82.16852377 261.81008357 82.25917961 260.31940145 82.35009766 258.82873535 C82.56968939 255.21933114 82.78582339 251.60973007 83 248 C82.3697781 248.00368717 81.7395562 248.00737434 81.09023666 248.01117325 C65.75873306 248.09949332 50.42731788 248.16569436 35.09562302 248.20724869 C27.68133155 248.22787797 20.26720985 248.2560053 12.85302734 248.30175781 C6.39115291 248.34161469 -0.07059859 248.36743016 -6.53259254 248.37635398 C-9.95454357 248.38157078 -13.3761429 248.393839 -16.79798126 248.42292023 C-20.61716283 248.45185016 -24.43560975 248.45596019 -28.25488281 248.45410156 C-29.39064255 248.46848267 -30.52640228 248.48286377 -31.69657898 248.49768066 C-32.73701859 248.49218201 -33.77745819 248.48668335 -34.84942627 248.48101807 C-35.75278339 248.48470524 -36.65614052 248.48839241 -37.5868721 248.49219131 C-40.7713768 247.84266687 -41.97331106 246.48103988 -44 244 C-44.53125 242 -44.53125 242 -44.5 240 C-44.51546875 239.01 -44.51546875 239.01 -44.53125 238 C-43.75904316 235.09286838 -42.291118 233.90706988 -40 232 C-37.5868721 231.50780869 -37.5868721 231.50780869 -34.84942627 231.51898193 C-33.80898666 231.51348328 -32.76854706 231.50798462 -31.69657898 231.50231934 C-29.99293938 231.52389099 -29.99293938 231.52389099 -28.25488281 231.54589844 C-26.45447289 231.54502228 -26.45447289 231.54502228 -24.61769104 231.54412842 C-21.33056997 231.54643682 -18.04413104 231.5664891 -14.75714588 231.59442425 C-11.32052897 231.6194386 -7.88389849 231.62177991 -4.44720459 231.62652588 C2.05870455 231.63895563 8.56434466 231.67177697 15.07013535 231.71192384 C22.47754611 231.75664177 29.88496975 231.7786286 37.2924819 231.79870558 C52.52847705 231.84050982 67.76420382 231.91086156 83 232 C82.75304149 227.70441636 82.4999209 223.4092482 82.24163818 219.11433411 C82.15499516 217.66018462 82.06989509 216.20594219 81.98651123 214.75160217 C80.62447035 191.05260293 76.57056895 168.06998728 71 145 C70.95149902 144.28392578 70.90299805 143.56785156 70.85302734 142.83007812 C70.07687629 140.65168233 70.07687629 140.65168233 67.05786133 139.63476562 C65.73779574 139.20876133 64.41190256 138.80057871 63.08203125 138.40625 C62.36587143 138.1783226 61.64971161 137.9503952 60.91184998 137.71556091 C59.36140178 137.22264422 57.80876297 136.73657765 56.25427246 136.25656128 C52.11570491 134.97426327 47.99736029 133.63042309 43.87890625 132.28515625 C43.04269745 132.01264542 42.20648865 131.74013458 41.34494019 131.45936584 C12.55363028 121.99299913 -17.04505119 109.78034965 -43 94 C-44.60420518 90.79158965 -44.47462745 87.4806013 -44 84 C-42.5 81.5 -42.5 81.5 -40 80 C-32.89627594 79.23666123 -28.65236018 81.25574049 -22.5 84.625 C-13.30345528 89.42264687 -3.99782864 93.8402461 5.5 98 C6.17179291 98.29430908 6.84358582 98.58861816 7.53573608 98.8918457 C21.08247308 104.79626864 34.86533056 109.94050016 48.79541016 114.86425781 C53.54119132 116.5462153 58.27099769 118.27153016 63 120 C53.45227512 94.93055479 41.79753415 71.0650158 25 50 C24.29488281 49.1028125 23.58976562 48.205625 22.86328125 47.28125 C20.62072116 44.47905642 18.32923915 41.73057344 16 39 C15.34523682 38.23236328 15.34523682 38.23236328 14.67724609 37.44921875 C8.35987459 30.12240482 1.75300579 23.81660679 -6.10009766 18.13305664 C-10.03696043 15.19056685 -12.13526096 13.07862608 -13 8 C-12.48089544 5.23317269 -11.38416921 3.52116535 -10 1 C-6.61519116 -0.69240442 -3.61735807 -0.80775957 0 0 Z " fill="#000000" transform="translate(60,16)"/>
<path d="M0 0 C2.54136268 0.98524873 4.66751134 1.94961636 7.015625 3.26171875 C7.66030731 3.60373322 8.30498962 3.94574768 8.96920776 4.29812622 C10.35097124 5.03256927 11.72902359 5.77403036 13.10357666 6.5218811 C16.78071845 8.51875929 20.48999449 10.45450118 24.1953125 12.3984375 C24.9429184 12.79229141 25.69052429 13.18614532 26.46078491 13.5919342 C70.61069628 36.78897305 119.13030641 53.40194695 167.69140625 64.46484375 C168.63216507 64.67991577 169.57292389 64.89498779 170.54219055 65.11657715 C175.19572557 66.177799 179.85187453 67.22253546 184.51586914 68.23681641 C202.38281839 72.19359979 218.91052148 78.28210697 235 87 C236.06863281 87.57621094 237.13726562 88.15242188 238.23828125 88.74609375 C248.66908109 94.60411753 257.92979698 101.77856021 266.69921875 109.890625 C268.7713264 111.79035018 270.89841131 113.58226381 273.0625 115.375 C278.02417048 119.71024715 281.95166982 124.82675943 286 130 C286.80566406 130.99 287.61132812 131.98 288.44140625 133 C304.64409547 153.28505692 315.97020038 177.49157204 321 203 C321.25676514 204.29301025 321.51353027 205.58602051 321.77807617 206.91821289 C323.8423653 217.89002273 324.5243219 228.53761323 324.4375 239.6875 C324.43479095 240.51083832 324.43208191 241.33417664 324.42929077 242.1824646 C324.361765 255.77781843 323.30993644 268.7684743 320 282 C319.82339844 282.74330566 319.64679688 283.48661133 319.46484375 284.25244141 C312.71337416 312.07724802 298.3200286 336.87001277 279.01953125 357.79296875 C277.26095093 359.71482152 275.59180225 361.67647489 273.9375 363.6875 C249.58265251 392.14560984 211.26998752 405.75754213 176.03083801 413.63694763 C117.1166331 426.84773996 61.30695006 447.34736359 8.0559082 475.90014648 C7.07323975 476.42165283 6.09057129 476.94315918 5.078125 477.48046875 C4.21606445 477.94348389 3.35400391 478.40649902 2.46582031 478.88354492 C-1.08418845 480.49089048 -3.80171824 481.28530518 -7.625 480.375 C-10.65622768 478.62007871 -11.67542538 477.23784907 -13 474 C-13 470.33719954 -12.45893708 468.57686523 -10.17578125 465.70703125 C-5.92136622 461.63527446 -0.39548054 459.30459502 4.8125 456.6875 C5.94107422 456.11209473 7.06964844 455.53668945 8.23242188 454.94384766 C10.47911087 453.80024824 12.72792509 452.66081292 14.97900391 451.52587891 C17.43522301 450.28526395 19.88258256 449.03065232 22.32421875 447.76171875 C32.32204433 442.60348065 42.61161411 438.10669361 52.921875 433.61328125 C53.92041504 433.17282471 54.91895508 432.73236816 55.94775391 432.27856445 C58.01201261 431.41386098 60.1056456 430.61667041 62.22021484 429.88354492 C70.05220831 427.07638531 73.42632856 424.09311269 77.125 416.6875 C77.610896 415.7804834 78.09679199 414.8734668 78.59741211 413.93896484 C83.74112832 404.09015037 87.93565784 393.80727275 92.01293945 383.48168945 C96.36240013 372.54617923 96.36240013 372.54617923 99 371 C105.85714286 370.23809524 105.85714286 370.23809524 109.4375 372.625 C111.43562832 375.66215505 111.80635122 377.33715396 112 381 C111.13002302 384.43294354 109.82942765 387.65936095 108.5 390.9375 C108.17257812 391.78634766 107.84515625 392.63519531 107.5078125 393.50976562 C104.36460098 401.50368516 100.68182943 409.24419749 97 417 C98.08788818 416.65855957 99.17577637 416.31711914 100.29663086 415.96533203 C123.92530315 408.57480235 147.5850753 401.88012046 171.6875 396.21875 C191.16225669 391.87591147 191.16225669 391.87591147 209.875 385.125 C210.65762207 384.78331787 211.44024414 384.44163574 212.24658203 384.08959961 C250.59866345 367.0866598 280.68677371 336.48175238 296.12109375 297.34472656 C298.86684301 290.0196777 301.07926845 282.58011332 303 275 C303.17934082 274.31131836 303.35868164 273.62263672 303.54345703 272.91308594 C308.69072512 252.15022299 308.38225609 225.66825025 303 205 C302.70198486 203.8238916 302.70198486 203.8238916 302.39794922 202.62402344 C292.00369467 162.65091267 267.41903496 127.66368945 232 106 C228.86810735 104.16121192 225.70079268 102.40329773 222.5 100.6875 C221.79029053 100.30327881 221.08058105 99.91905762 220.34936523 99.52319336 C208.14430046 93.19851602 195.26417621 89.27679473 181.92504883 86.21630859 C177.88431965 85.28729688 173.8530329 84.31854117 169.8203125 83.35546875 C168.58858307 83.06257462 168.58858307 83.06257462 167.33197021 82.76376343 C159.02650424 80.78287324 150.75541882 78.67956813 142.5 76.5 C141.80894165 76.31763794 141.1178833 76.13527588 140.40588379 75.9473877 C125.79985733 72.07329878 111.38275465 67.63047277 97 63 C97.74443359 64.51013672 97.74443359 64.51013672 98.50390625 66.05078125 C102.35272272 73.97033307 105.92955258 81.95594503 109.0625 90.1875 C109.37324463 90.97616455 109.68398926 91.7648291 110.00415039 92.57739258 C111.67711368 97.09560401 112.43802186 100.21857733 111 105 C109.4375 107.375 109.4375 107.375 107 109 C104.224459 109.55852776 101.74476806 109.72907902 99 109 C94.28844624 105.6763458 93.07504575 100.4622305 91.25 95.25 C88.03244321 86.45539517 84.41968394 78.11614776 79.98242188 69.87304688 C78.98101425 67.96380252 78.05863434 66.02865223 77.140625 64.078125 C76.51205202 62.82209693 75.88190649 61.56685429 75.25 60.3125 C74.45335937 58.66701172 74.45335937 58.66701172 73.640625 56.98828125 C69.6137881 52.43128387 64.60739326 51.08528061 59 49 C56.98597718 48.15263277 54.97805711 47.29061166 52.9765625 46.4140625 C51.95062988 45.96579102 50.92469727 45.51751953 49.86767578 45.05566406 C38.49025419 40.03596142 27.2585855 34.7878091 16.125 29.25 C15.20210175 28.79430634 15.20210175 28.79430634 14.26055908 28.32940674 C-9.78689954 16.42620091 -9.78689954 16.42620091 -12 12 C-12.56872038 4.9478673 -12.56872038 4.9478673 -10.5 1.5 C-7.05113755 -0.56931747 -3.88966928 -0.4609007 0 0 Z " fill="#000000" transform="translate(172,16)"/>
</svg>
