<?xml version="1.0" standalone="no"?>
<!DOCTYPE svg PUBLIC "-//W3C//DTD SVG 20010904//EN"
 "http://www.w3.org/TR/2001/REC-SVG-20010904/DTD/svg10.dtd">
<svg version="1.0" xmlns="http://www.w3.org/2000/svg"
 width="64.000000pt" height="64.000000pt" viewBox="0 0 64.000000 64.000000"
 preserveAspectRatio="xMidYMid meet">

<g transform="translate(0.000000,64.000000) scale(0.100000,-0.100000)"
fill="#000000" stroke="none">
<path d="M273 510 c-113 -4 -136 -8 -159 -26 -54 -40 -68 -70 -72 -150 -4 -79
11 -104 21 -34 7 56 31 88 79 110 94 42 198 -24 198 -125 0 -39 -34 -98 -68
-117 -41 -24 -109 -23 -147 2 -36 24 -52 26 -34 4 33 -40 123 -58 172 -33 12
6 49 39 82 74 62 65 102 85 172 85 17 0 43 4 57 10 25 9 26 12 26 100 0 64 -4
92 -12 95 -24 7 -182 10 -315 5z m127 -35 c0 -8 5 -15 10 -15 6 0 10 7 10 15
0 8 5 15 10 15 6 0 10 -7 10 -15 0 -8 5 -15 10 -15 6 0 10 7 10 15 0 12 13 15
60 15 53 0 60 -2 60 -20 0 -19 -7 -20 -192 -20 -213 0 -257 -8 -300 -51 -27
-26 -29 -27 -22 -6 10 33 29 58 61 78 23 16 48 19 151 19 102 0 122 -2 122
-15z m178 -97 c3 -53 7 -51 -98 -63 -30 -4 -69 -15 -87 -26 l-33 -21 0 27 c0
35 -26 85 -58 113 l-27 22 150 -2 150 -3 3 -47z"/>
<path d="M164 381 c-12 -5 -31 -22 -44 -38 -29 -37 -23 -98 15 -130 34 -30 93
-31 128 -3 30 23 46 85 28 103 -8 8 -11 3 -11 -21 0 -72 -85 -108 -135 -57
-33 33 -32 70 4 106 33 33 45 35 85 14 40 -21 54 -19 31 5 -24 23 -72 33 -101
21z"/>
<path d="M50 233 c0 -14 19 -38 25 -32 8 8 -5 39 -16 39 -5 0 -9 -3 -9 -7z"/>
</g>
</svg>
