<?xml version="1.0" standalone="no"?>
<!DOCTYPE svg PUBLIC "-//W3C//DTD SVG 20010904//EN"
 "http://www.w3.org/TR/2001/REC-SVG-20010904/DTD/svg10.dtd">
<svg version="1.0" xmlns="http://www.w3.org/2000/svg"
 width="512.000000pt" height="512.000000pt" viewBox="0 0 512.000000 512.000000"
 preserveAspectRatio="xMidYMid meet">

<g transform="translate(0.000000,512.000000) scale(0.100000,-0.100000)"
fill="#000000" stroke="none">
<path d="M3045 5084 c-46 -14 -94 -60 -607 -572 -307 -306 -559 -554 -561
-551 -3 2 -16 90 -31 194 -15 105 -33 213 -41 240 -29 101 -120 174 -228 182
-117 10 -207 -38 -262 -137 l-30 -55 -3 -514 -3 -513 -44 -54 c-75 -92 -135
-236 -135 -324 0 -31 -11 -46 -87 -122 l-88 -88 -50 16 c-60 18 -114 11 -170
-21 -59 -35 -411 -393 -430 -437 -18 -44 -20 -122 -4 -168 l12 -32 -132 -132
c-97 -97 -131 -138 -131 -156 0 -19 103 -128 468 -492 402 -403 471 -468 496
-468 24 0 53 23 162 131 111 110 135 129 150 121 68 -35 163 -18 229 40 l46
40 16 -43 c32 -84 130 -267 191 -355 262 -382 656 -649 1103 -748 277 -61 521
-61 798 0 683 152 1223 692 1375 1375 61 277 61 521 0 798 -99 447 -366 841
-748 1103 -88 61 -271 159 -354 190 l-43 17 23 43 c32 60 32 175 1 234 -27 50
-93 109 -140 125 l-34 11 85 88 c72 75 87 97 102 146 38 133 -27 272 -151 320
l-44 16 17 32 c24 44 23 169 -2 216 -26 49 -74 98 -121 123 -52 28 -174 30
-221 5 l-32 -17 -16 44 c-21 53 -78 114 -130 139 -53 25 -140 29 -201 10z
m152 -121 c76 -36 97 -137 44 -209 -16 -21 -173 -183 -350 -359 -335 -334
-343 -344 -304 -387 40 -44 46 -39 468 381 220 219 410 404 422 410 33 17 84
13 121 -9 61 -37 89 -117 61 -173 -6 -12 -191 -202 -410 -422 -419 -420 -425
-428 -383 -469 41 -42 53 -32 389 305 176 177 338 334 359 350 118 88 270 -30
212 -164 -8 -18 -133 -150 -277 -293 l-264 -262 -108 -6 c-128 -8 -245 -27
-380 -62 -54 -15 -101 -24 -103 -21 -3 3 -80 160 -171 348 l-165 342 344 344
c188 188 356 349 373 358 40 19 79 19 122 -2z m-1570 -523 c57 -35 63 -53 108
-357 38 -257 45 -289 65 -305 12 -10 29 -18 37 -18 9 0 58 41 109 92 52 50 96
90 98 87 5 -5 266 -548 266 -553 0 -2 -37 -31 -82 -64 -46 -33 -112 -85 -147
-116 -43 -40 -68 -55 -80 -51 -32 13 -594 215 -597 215 -2 0 -4 219 -4 488 0
455 1 490 19 522 40 75 137 104 208 60z m802 -599 c83 -173 148 -318 144 -322
-14 -11 -153 -72 -157 -68 -2 2 -67 135 -144 294 l-140 290 66 67 c37 37 69
64 73 60 4 -4 75 -148 158 -321z m1325 -5 c41 -17 74 -58 82 -102 8 -46 -1
-78 -34 -114 l-27 -29 -80 19 c-44 11 -117 25 -163 32 l-83 11 83 85 c109 111
149 129 222 98z m-170 -326 c55 -11 103 -23 107 -27 7 -8 219 -651 219 -666 0
-4 -55 -82 -121 -172 l-121 -165 -388 0 -388 0 -121 165 c-67 90 -121 168
-121 172 0 14 211 658 218 665 9 9 142 37 230 48 107 14 373 3 486 -20z m-866
-87 c-3 -10 -45 -141 -94 -290 l-88 -273 -303 0 c-167 0 -303 3 -303 8 0 12
150 174 217 235 130 118 304 229 466 297 105 45 111 46 105 23z m1247 -30
c149 -65 319 -174 442 -284 64 -57 223 -230 223 -241 0 -5 -136 -8 -303 -8
l-303 0 -88 273 c-112 345 -104 311 -75 302 13 -4 60 -23 104 -42z m-2329
-233 c153 -55 279 -102 282 -104 2 -2 -20 -33 -48 -68 -168 -206 -287 -446
-362 -731 l-13 -47 -240 240 -240 240 98 98 97 98 10 80 c10 91 42 171 96 245
20 27 37 49 39 49 1 0 128 -45 281 -100z m1014 -552 c52 -72 106 -146 119
-164 l24 -33 -118 -363 c-64 -200 -122 -368 -129 -374 -21 -21 -386 -137 -399
-127 -7 6 -135 98 -284 207 -273 197 -273 197 -273 234 0 105 55 338 116 488
33 82 103 222 127 252 7 9 92 12 366 12 l356 -1 95 -131z m2112 60 c105 -180
208 -517 208 -679 l0 -38 -277 -201 c-152 -111 -281 -204 -287 -206 -13 -5
-384 119 -396 132 -4 5 -61 172 -125 372 l-117 363 23 33 c13 18 67 92 119
164 l95 131 357 0 357 1 43 -72z m-3909 1 c12 -6 156 -144 319 -307 l298 -297
-6 -140 c-8 -163 6 -325 41 -477 l23 -103 -54 -55 c-47 -48 -58 -55 -94 -55
-40 0 -46 5 -520 480 -478 478 -480 481 -480 522 0 26 7 50 19 64 l20 24 198
-196 c217 -216 231 -224 333 -217 114 8 193 95 194 212 0 40 -6 73 -18 96 -10
19 -104 121 -209 227 l-190 191 34 21 c38 24 61 26 92 10z m168 -511 c25 -62
-22 -128 -93 -128 -41 0 -45 3 -232 190 l-191 190 70 70 70 70 182 -182 c100
-100 187 -195 194 -210z m2639 198 c0 -2 52 -162 115 -357 63 -194 113 -354
112 -355 -38 -32 -601 -434 -607 -434 -5 0 -143 97 -307 216 -164 119 -299
218 -300 218 -1 1 49 161 112 355 63 195 115 355 115 357 0 2 171 4 380 4 209
0 380 -2 380 -4z m-2575 -1236 l-100 -100 -410 410 -410 410 100 100 100 100
410 -410 410 -410 -100 -100z m754 502 l240 -173 -14 -40 c-8 -22 -51 -153
-96 -291 l-81 -251 -29 44 c-151 224 -248 511 -275 818 -4 51 -3 72 5 70 6 -2
118 -82 250 -177z m3137 106 c-27 -305 -124 -593 -275 -817 l-29 -43 -92 283
c-51 156 -93 287 -93 291 -2 8 473 358 487 358 4 0 5 -33 2 -72z m-2062 -406
l306 -224 -2 -211 -3 -211 -280 -203 c-154 -112 -287 -203 -295 -203 -24 0
-198 91 -291 151 -109 72 -253 193 -319 270 l-53 60 71 222 c40 122 89 273
110 336 l38 114 195 67 c107 36 199 64 205 61 6 -3 149 -107 318 -229z m1558
-228 c59 -181 108 -335 108 -342 0 -20 -200 -212 -286 -274 -106 -76 -214
-140 -305 -182 l-75 -34 -284 208 -285 207 0 213 0 213 313 226 313 227 197
-67 197 -66 107 -329z m-934 -706 l236 -172 -55 -17 c-240 -73 -638 -73 -878
0 l-55 17 244 177 c137 99 251 175 258 172 8 -3 120 -83 250 -177z"/>
</g>
</svg>
