<?xml version="1.0" encoding="UTF-8"?>
<svg version="1.1" xmlns="http://www.w3.org/2000/svg" width="512" height="512">
<path d="M0 0 C0.90054108 -0.00701431 1.80108215 -0.01402863 2.72891235 -0.02125549 C5.61750351 -0.03865402 8.50588962 -0.0451074 11.39453125 -0.046875 C12.38190277 -0.04754974 13.36927429 -0.04822449 14.38656616 -0.04891968 C28.87791389 -0.03317157 42.94723376 0.41971425 57.20703125 3.203125 C58.5525708 3.44458252 58.5525708 3.44458252 59.92529297 3.69091797 C99.35429442 10.82555912 136.63007112 27.58073406 168.20703125 52.203125 C169.09132813 52.87601563 169.975625 53.54890625 170.88671875 54.2421875 C186.47690226 66.3457485 201.08907602 80.64480997 213.20703125 96.203125 C214.35365234 97.60691406 214.35365234 97.60691406 215.5234375 99.0390625 C247.48525405 138.95285588 268.14051408 192.66196268 268.41015625 243.99609375 C268.41721588 244.89649887 268.42427551 245.79690399 268.43154907 246.72459412 C268.65912517 284.26878905 268.65912517 284.26878905 265.20703125 301.203125 C265.00303711 302.22921875 264.79904297 303.2553125 264.58886719 304.3125 C258.22284064 335.59591432 247.20459799 365.09690274 230.20703125 392.203125 C229.15902344 393.87568359 229.15902344 393.87568359 228.08984375 395.58203125 C213.10127688 418.66683202 194.06017001 440.4404058 172.20703125 457.203125 C171.27632813 457.96238281 170.345625 458.72164063 169.38671875 459.50390625 C137.13534211 485.3627466 97.68188479 501.83107261 57.20703125 509.203125 C56.37139648 509.36683594 55.53576172 509.53054688 54.67480469 509.69921875 C27.06210304 514.97122964 -5.25255419 514.75957157 -32.79296875 509.203125 C-33.6948291 509.02620117 -34.59668945 508.84927734 -35.52587891 508.66699219 C-41.9989677 507.36811213 -48.40185363 505.85655374 -54.79296875 504.203125 C-55.61297363 503.99349121 -56.43297852 503.78385742 -57.27783203 503.56787109 C-90.88173098 494.7795754 -121.88877704 477.99041958 -148.79296875 456.203125 C-149.33743652 455.76307129 -149.8819043 455.32301758 -150.44287109 454.86962891 C-164.49184606 443.41002465 -177.8126116 430.66132436 -188.79296875 416.203125 C-189.85644531 414.84767578 -189.85644531 414.84767578 -190.94140625 413.46484375 C-225.80425173 368.2654704 -244.33341668 313.55169978 -244.10546875 256.578125 C-244.1033136 255.60723938 -244.10115845 254.63635376 -244.09893799 253.63604736 C-244.04789702 239.30061474 -243.66518723 225.29286697 -240.79296875 211.203125 C-240.58897461 210.17703125 -240.38498047 209.1509375 -240.17480469 208.09375 C-231.09218951 163.46069493 -212.04634208 122.41058664 -181.79296875 88.203125 C-181.06851563 87.3678125 -180.3440625 86.5325 -179.59765625 85.671875 C-169.85289735 74.59665087 -159.45334461 64.25197588 -147.79296875 55.203125 C-146.85839844 54.44 -145.92382812 53.676875 -144.9609375 52.890625 C-105.05295941 20.92325872 -51.33151922 0.2693151 0 0 Z M-126.79296875 69.203125 C-127.68886719 69.88890625 -128.58476562 70.5746875 -129.5078125 71.28125 C-134.69806826 75.34388471 -139.6165024 79.66731201 -144.48046875 84.11328125 C-146.44282389 85.88669341 -148.43958284 87.58462745 -150.48046875 89.265625 C-153.62168479 91.93822139 -156.27180951 94.8943882 -158.93359375 98.0390625 C-160.18092276 99.49078576 -161.46331005 100.91305338 -162.77734375 102.3046875 C-205.15790416 147.31469874 -222.40147869 209.66305302 -220.79296875 270.203125 C-218.91132426 313.05260653 -202.99720142 356.62717764 -177.79296875 391.203125 C-177.38868652 391.7614502 -176.9844043 392.31977539 -176.56787109 392.89501953 C-171.22951506 400.20537233 -165.44442729 406.96076083 -159.23828125 413.546875 C-156.79296875 416.203125 -156.79296875 416.203125 -154.69921875 418.84375 C-152.96846651 420.98591055 -151.2669701 422.68460471 -149.16796875 424.453125 C-146.97534367 426.31825417 -144.81279102 428.18442263 -142.71875 430.16015625 C-98.70105435 471.56598165 -37.87045816 490.67201055 21.71826172 489.33935547 C78.57293487 487.11927796 132.30933712 463.43349807 173.20703125 424.203125 C173.82336426 423.61934082 174.43969727 423.03555664 175.07470703 422.43408203 C185.24242914 412.76283562 194.05462485 402.6176073 202.20703125 391.203125 C202.6364502 390.61837402 203.06586914 390.03362305 203.50830078 389.43115234 C238.77446665 341.26987874 251.36046887 278.80081644 242.70751953 220.33300781 C236.76392819 183.16381709 222.15681707 147.15382298 199.20703125 117.203125 C198.47613281 116.24148437 197.74523437 115.27984375 196.9921875 114.2890625 C192.98368935 109.16135992 188.68692108 104.31841046 184.296875 99.515625 C182.52346284 97.55326986 180.8255288 95.55651091 179.14453125 93.515625 C176.47193486 90.37440896 173.51576805 87.72428424 170.37109375 85.0625 C168.91937049 83.81517099 167.49710287 82.5327837 166.10546875 81.21875 C122.33225617 40.0027354 60.93112334 21.83075641 1.88330078 23.07128906 C-44.08247821 24.71968331 -90.36424506 41.06909073 -126.79296875 69.203125 Z " fill="#e3372b" transform="translate(243.79296875,-0.203125)"/>
<path d="M0 0 C3.38290157 -0.00968896 6.7651896 -0.04081181 10.14794922 -0.07226562 C27.7796686 -0.15864087 45.62094783 0.72081903 62.59716797 5.92773438 C63.44843262 6.18119629 64.29969727 6.4346582 65.17675781 6.69580078 C78.27488858 10.76562072 90.14347261 16.51341938 100.78466797 25.24023438 C101.54908203 25.830625 102.31349609 26.42101562 103.10107422 27.02929688 C120.05547861 40.88767959 128.96619748 62.99433543 131.78466797 84.24023438 C133.92048237 115.69665879 128.81244974 143.92184553 107.78466797 168.24023438 C85.89132636 193.27479456 50.91963236 203.22187759 18.90966797 205.86523438 C8.21139465 206.53313104 -2.45513815 206.4131043 -13.15283203 205.86523438 C-13.82612549 205.83445801 -14.49941895 205.80368164 -15.19311523 205.77197266 C-20.49596186 205.45793259 -24.86959466 204.42817601 -30.21533203 203.24023438 C-30.21533203 247.13023437 -30.21533203 291.02023437 -30.21533203 336.24023438 C-44.73533203 336.24023438 -59.25533203 336.24023438 -74.21533203 336.24023438 C-74.21533203 227.34023438 -74.21533203 118.44023437 -74.21533203 6.24023438 C-54.56230173 2.77205256 -54.56230173 2.77205256 -47.65283203 2.11523438 C-46.95738281 2.04175781 -46.26193359 1.96828125 -45.54541016 1.89257812 C-43.10376281 1.64647043 -40.66137647 1.43815992 -38.21533203 1.24023438 C-36.60609863 1.1077832 -36.60609863 1.1077832 -34.96435547 0.97265625 C-23.31596897 0.126497 -11.67589449 0.02012796 0 0 Z M-30.21533203 38.24023438 C-30.21533203 80.81023437 -30.21533203 123.38023437 -30.21533203 167.24023438 C0.11705723 173.98076532 34.24012494 172.76162012 61.17919922 156.00195312 C75.06756881 146.61116649 83.29986764 132.79077193 86.89013672 116.50976562 C90.15952747 99.32491971 88.68143886 79.93668091 79.52294922 64.75585938 C67.85243846 47.86640111 51.07060362 39.9346134 31.37451172 36.09570312 C23.89876309 34.92680444 16.44339033 34.93980939 8.89526367 34.97949219 C6.48639488 34.9901713 4.07827926 34.97956157 1.66943359 34.96679688 C-14.49550468 34.9172227 -14.49550468 34.9172227 -30.21533203 38.24023438 Z " fill="#e3372b" transform="translate(249.21533203125,83.759765625)"/>
</svg>
