<?xml version="1.0" encoding="UTF-8"?>
<svg version="1.1" xmlns="http://www.w3.org/2000/svg" width="512" height="512">
<path d="M0 0 C2.36651031 -0.00542652 4.73301724 -0.01255214 7.09951782 -0.02124023 C13.50032016 -0.03941328 19.90086344 -0.03243078 26.30167007 -0.01972389 C30.30532289 -0.013665 34.30893883 -0.0139623 38.31259155 -0.01768494 C38.97913842 -0.01829787 39.64568529 -0.0189108 40.33243054 -0.01954231 C41.68689737 -0.02082133 43.04136419 -0.02211818 44.39583099 -0.02343267 C57.06924736 -0.03481372 69.74254762 -0.02176378 82.41594493 -0.00023121 C93.26856565 0.01763756 104.12101518 0.01453275 114.97363281 -0.00390625 C127.60454655 -0.02535688 140.23535877 -0.03371532 152.86628819 -0.0214572 C154.21551576 -0.02018312 155.56474334 -0.01892564 156.91397095 -0.01768494 C157.90950038 -0.01675928 157.90950038 -0.01675928 158.92514151 -0.01581493 C163.58141682 -0.01237457 168.23762466 -0.01835953 172.89389038 -0.02760315 C179.17149919 -0.03919596 185.44878612 -0.03107288 191.72636032 -0.00802612 C194.02405641 -0.0027574 196.32177981 -0.00422114 198.61946487 -0.01307678 C216.88381426 -0.07695636 231.48345019 1.62924054 245.36328125 14.76757812 C255.01961257 24.93572912 259.72864638 36.86548871 259.74470901 50.84459877 C259.74855016 52.10316708 259.7523913 53.36173539 259.75634885 54.65844214 C259.7555687 56.04741078 259.75468994 57.43637937 259.75372314 58.8253479 C259.7563083 60.30690284 259.75932187 61.78845707 259.76272655 63.27001035 C259.77078222 67.33785697 259.77258532 71.40568594 259.77332401 75.47353959 C259.77517707 79.86225751 259.78272569 84.25096632 259.78945923 88.63967896 C259.80303302 98.23486344 259.80906582 107.83004374 259.81346989 117.42523623 C259.81623399 123.41852564 259.82047166 129.41181345 259.82497406 135.40510178 C259.83716561 152.004445 259.84746507 168.60378693 259.85084915 185.20313454 C259.85106872 186.26524512 259.85128828 187.3273557 259.8515145 188.42165145 C259.85173278 189.48627861 259.85195106 190.55090577 259.85217595 191.64779437 C259.85261941 193.80507255 259.85306598 195.96235073 259.85351562 198.11962891 C259.85373705 199.18970949 259.85395848 200.25979007 259.85418662 201.36229734 C259.85813369 218.6970525 259.87558545 236.03176559 259.89887515 253.36650451 C259.92260284 271.17122946 259.93505165 288.97593332 259.93621707 306.78067434 C259.93713304 316.77436513 259.94286584 326.76800112 259.96103668 336.76167679 C259.97645681 345.27239321 259.98154685 353.78303788 259.97329858 362.29376562 C259.96939882 366.63346904 259.97028863 370.97302808 259.98435593 375.31271362 C259.99713533 379.29159558 259.99586213 383.27022524 259.98376521 387.24910705 C259.98181518 388.68251234 259.98485433 390.11593576 259.99360958 391.54931565 C260.07660178 406.06464565 257.56509115 421.86943524 247.2734375 433.02148438 C229.75222414 448.81118959 213.01226764 449.8211211 190.47338867 449.79223633 C188.22849865 449.79658837 185.98361011 449.80177316 183.73872375 449.807724 C177.66423185 449.82107267 171.58980231 449.82169723 165.5152986 449.8191607 C160.43356496 449.81808812 155.35184378 449.82298174 150.27011281 449.82776612 C137.5905598 449.83947981 124.91105173 449.83864443 112.23149917 449.83220931 C101.24852599 449.82704298 90.26564158 449.8382919 79.28268596 449.85730753 C67.97535508 449.876733 56.66807831 449.88464297 45.36072618 449.88118428 C39.02456804 449.8793762 32.68849121 449.88196001 26.35234642 449.89589882 C20.39080232 449.90852372 14.42943516 449.906489 8.4678936 449.89348793 C6.28874907 449.89113269 4.10959191 449.89381877 1.93046188 449.90211105 C-17.45891349 449.9705334 -34.34551497 448.94043174 -49.06640625 434.88867188 C-62.59447323 421.06453609 -64.54314734 405.84690559 -64.52043152 387.24177551 C-64.52230152 385.78808095 -64.52460298 384.33438689 -64.52729684 382.88069361 C-64.53339789 378.89910506 -64.53328325 374.91753755 -64.53210247 370.93594539 C-64.53189803 366.63654374 -64.53742135 362.33714877 -64.54216003 358.03775024 C-64.55045804 349.6189538 -64.5532145 341.20016437 -64.55377241 332.78136418 C-64.55424801 325.93574596 -64.55630495 319.09013005 -64.55947304 312.24451256 C-64.56827758 292.82348267 -64.57289277 273.4024583 -64.57214256 253.9814264 C-64.57210261 252.93495559 -64.57206265 251.88848478 -64.57202148 250.81030273 C-64.5719806 249.76254977 -64.57193972 248.7147968 -64.5718976 247.63529374 C-64.57149127 230.66024342 -64.58105809 213.68521529 -64.59515985 196.71017138 C-64.6095349 179.26811235 -64.6164294 161.82606415 -64.61556607 144.38399905 C-64.61523448 134.59655901 -64.61796519 124.80914223 -64.62874413 115.02170753 C-64.63786401 106.68747942 -64.64001219 98.35328511 -64.6332347 90.01905415 C-64.62997691 85.77038033 -64.62988595 81.52177131 -64.63858795 77.27310371 C-64.6464868 73.37632927 -64.64498722 69.47967067 -64.63630382 65.58289894 C-64.63477624 64.18049291 -64.63655669 62.7780781 -64.6421639 61.37568245 C-64.71132152 42.83665988 -62.20709253 27.48762065 -48.828125 13.70117188 C-33.99237342 0.43207567 -18.90761458 -0.07287294 0 0 Z " fill="#FE0000" transform="translate(158.38671875,31.482421875)"/>
<path d="M0 0 C2.36651031 -0.00542652 4.73301724 -0.01255214 7.09951782 -0.02124023 C13.50032016 -0.03941328 19.90086344 -0.03243078 26.30167007 -0.01972389 C30.30532289 -0.013665 34.30893883 -0.0139623 38.31259155 -0.01768494 C38.97913842 -0.01829787 39.64568529 -0.0189108 40.33243054 -0.01954231 C41.68689737 -0.02082133 43.04136419 -0.02211818 44.39583099 -0.02343267 C57.06924736 -0.03481372 69.74254762 -0.02176378 82.41594493 -0.00023121 C93.26856565 0.01763756 104.12101518 0.01453275 114.97363281 -0.00390625 C127.60454655 -0.02535688 140.23535877 -0.03371532 152.86628819 -0.0214572 C154.21551576 -0.02018312 155.56474334 -0.01892564 156.91397095 -0.01768494 C157.90950038 -0.01675928 157.90950038 -0.01675928 158.92514151 -0.01581493 C163.58141682 -0.01237457 168.23762466 -0.01835953 172.89389038 -0.02760315 C179.17149919 -0.03919596 185.44878612 -0.03107288 191.72636032 -0.00802612 C194.02405641 -0.0027574 196.32177981 -0.00422114 198.61946487 -0.01307678 C216.88381426 -0.07695636 231.48345019 1.62924054 245.36328125 14.76757812 C255.01961257 24.93572912 259.72864638 36.86548871 259.74470901 50.84459877 C259.74855016 52.10316708 259.7523913 53.36173539 259.75634885 54.65844214 C259.7555687 56.04741078 259.75468994 57.43637937 259.75372314 58.8253479 C259.7563083 60.30690284 259.75932187 61.78845707 259.76272655 63.27001035 C259.77078222 67.33785697 259.77258532 71.40568594 259.77332401 75.47353959 C259.77517707 79.86225751 259.78272569 84.25096632 259.78945923 88.63967896 C259.80303302 98.23486344 259.80906582 107.83004374 259.81346989 117.42523623 C259.81623399 123.41852564 259.82047166 129.41181345 259.82497406 135.40510178 C259.83716561 152.004445 259.84746507 168.60378693 259.85084915 185.20313454 C259.85106872 186.26524512 259.85128828 187.3273557 259.8515145 188.42165145 C259.85173278 189.48627861 259.85195106 190.55090577 259.85217595 191.64779437 C259.85261941 193.80507255 259.85306598 195.96235073 259.85351562 198.11962891 C259.85373705 199.18970949 259.85395848 200.25979007 259.85418662 201.36229734 C259.85813369 218.6970525 259.87558545 236.03176559 259.89887515 253.36650451 C259.92260284 271.17122946 259.93505165 288.97593332 259.93621707 306.78067434 C259.93713304 316.77436513 259.94286584 326.76800112 259.96103668 336.76167679 C259.97645681 345.27239321 259.98154685 353.78303788 259.97329858 362.29376562 C259.96939882 366.63346904 259.97028863 370.97302808 259.98435593 375.31271362 C259.99713533 379.29159558 259.99586213 383.27022524 259.98376521 387.24910705 C259.98181518 388.68251234 259.98485433 390.11593576 259.99360958 391.54931565 C260.07660178 406.06464565 257.56509115 421.86943524 247.2734375 433.02148438 C229.75222414 448.81118959 213.01226764 449.8211211 190.47338867 449.79223633 C188.22849865 449.79658837 185.98361011 449.80177316 183.73872375 449.807724 C177.66423185 449.82107267 171.58980231 449.82169723 165.5152986 449.8191607 C160.43356496 449.81808812 155.35184378 449.82298174 150.27011281 449.82776612 C137.5905598 449.83947981 124.91105173 449.83864443 112.23149917 449.83220931 C101.24852599 449.82704298 90.26564158 449.8382919 79.28268596 449.85730753 C67.97535508 449.876733 56.66807831 449.88464297 45.36072618 449.88118428 C39.02456804 449.8793762 32.68849121 449.88196001 26.35234642 449.89589882 C20.39080232 449.90852372 14.42943516 449.906489 8.4678936 449.89348793 C6.28874907 449.89113269 4.10959191 449.89381877 1.93046188 449.90211105 C-17.45891349 449.9705334 -34.34551497 448.94043174 -49.06640625 434.88867188 C-62.59447323 421.06453609 -64.54314734 405.84690559 -64.52043152 387.24177551 C-64.52230152 385.78808095 -64.52460298 384.33438689 -64.52729684 382.88069361 C-64.53339789 378.89910506 -64.53328325 374.91753755 -64.53210247 370.93594539 C-64.53189803 366.63654374 -64.53742135 362.33714877 -64.54216003 358.03775024 C-64.55045804 349.6189538 -64.5532145 341.20016437 -64.55377241 332.78136418 C-64.55424801 325.93574596 -64.55630495 319.09013005 -64.55947304 312.24451256 C-64.56827758 292.82348267 -64.57289277 273.4024583 -64.57214256 253.9814264 C-64.57210261 252.93495559 -64.57206265 251.88848478 -64.57202148 250.81030273 C-64.5719806 249.76254977 -64.57193972 248.7147968 -64.5718976 247.63529374 C-64.57149127 230.66024342 -64.58105809 213.68521529 -64.59515985 196.71017138 C-64.6095349 179.26811235 -64.6164294 161.82606415 -64.61556607 144.38399905 C-64.61523448 134.59655901 -64.61796519 124.80914223 -64.62874413 115.02170753 C-64.63786401 106.68747942 -64.64001219 98.35328511 -64.6332347 90.01905415 C-64.62997691 85.77038033 -64.62988595 81.52177131 -64.63858795 77.27310371 C-64.6464868 73.37632927 -64.64498722 69.47967067 -64.63630382 65.58289894 C-64.63477624 64.18049291 -64.63655669 62.7780781 -64.6421639 61.37568245 C-64.71132152 42.83665988 -62.20709253 27.48762065 -48.828125 13.70117188 C-33.99237342 0.43207567 -18.90761458 -0.07287294 0 0 Z M-40.38671875 28.51757812 C-46.5970132 38.26110035 -48.41085174 46.30077053 -48.25541687 57.87004089 C-48.26134911 59.36747643 -48.27034272 60.86490237 -48.28209335 62.36230356 C-48.30530042 66.43723711 -48.2853962 70.51094633 -48.25781429 74.58580959 C-48.23566969 78.99553711 -48.25419457 83.40512777 -48.2674408 87.81486511 C-48.28694461 96.43687786 -48.26920525 105.05842441 -48.23847725 113.68038889 C-48.20397511 123.73011338 -48.20587315 133.77973449 -48.20895574 143.82950572 C-48.21314063 161.76395686 -48.18322265 179.69818994 -48.13452148 197.63256836 C-48.08732636 215.019664 -48.06609587 232.40654184 -48.07299805 249.79370117 C-48.08166815 271.77722677 -48.06743458 293.7606195 -48.03424567 315.74412146 C-48.02434977 322.74326632 -48.02259996 329.74238629 -48.02359581 336.74153709 C-48.02435445 345.27300613 -48.01013745 353.80430397 -47.97731664 362.33571216 C-47.96088025 366.68548693 -47.95064413 371.03502871 -47.95774841 375.38483429 C-47.96404514 379.37147443 -47.95168964 383.35761796 -47.92482529 387.34416858 C-47.91830839 388.78133747 -47.91839886 390.21855587 -47.92600294 391.65571942 C-47.9792929 402.850274 -46.4487405 412.75262236 -39.22265625 421.66601562 C-32.09610409 428.85321929 -24.57512095 432.71299892 -14.46514785 432.79905123 C-13.56865559 432.79663614 -12.67216333 432.79422106 -11.74850464 432.79173279 C-10.78404297 432.79696947 -9.8195813 432.80220615 -8.82589352 432.80760151 C-5.59726584 432.82259142 -2.36879679 432.82330645 0.85986328 432.82397461 C3.17622647 432.83159687 5.49258713 432.84002449 7.8089447 432.84919739 C14.10052168 432.87114528 20.39205005 432.87994196 26.68366098 432.88502383 C30.61658587 432.8886677 34.54949803 432.89490799 38.48241806 432.90202522 C49.38401432 432.92148018 60.28559759 432.93799341 71.18721199 432.94090176 C72.23285358 432.94118311 72.23285358 432.94118311 73.29961925 432.94147015 C74.71264291 432.94183639 76.12566657 432.94220009 77.53869022 432.94256126 C78.24006308 432.94274407 78.94143593 432.94292688 79.6640625 432.94311523 C80.71741495 432.94338606 80.71741495 432.94338606 81.79204725 432.94366235 C93.16149747 432.94720125 104.53075797 432.97420741 115.90014245 433.01161312 C127.58924874 433.04976104 139.27826106 433.06905971 150.96743095 433.06936127 C157.52388063 433.07015342 164.08008558 433.07886379 170.63647842 433.10735893 C176.80732689 433.13357822 182.9777284 433.1357227 189.14860725 433.11970329 C191.40761224 433.11789179 193.66664316 433.12455235 195.92559242 433.140522 C211.09934313 433.2412122 223.12730817 432.8259889 234.703125 421.77539062 C239.92992736 415.59728886 242.73443317 408.52460892 242.74750233 400.48885155 C242.75418909 398.58628328 242.75418909 398.58628328 242.76101094 396.64527929 C242.76092164 395.22969587 242.76073178 393.81411245 242.76045227 392.39852905 C242.76375083 390.90092582 242.76747638 389.40332347 242.77159375 387.90572226 C242.78162291 383.77970162 242.78533202 379.65369553 242.78798306 375.52766442 C242.79188343 371.08168941 242.80146198 366.63572595 242.81019592 362.1897583 C242.82996844 351.44708483 242.84002777 340.70441039 242.84892371 329.96172327 C242.85330553 324.90419575 242.85867264 319.84666929 242.86391258 314.78914261 C242.88092604 297.9788885 242.89542036 281.16863504 242.90266132 264.35837364 C242.90457126 259.99493789 242.90649158 255.63150214 242.90844727 251.26806641 C242.90893101 250.18353993 242.90941475 249.09901345 242.90991315 247.98162253 C242.91821396 230.41184184 242.94355122 212.84212922 242.97602794 195.27237825 C243.00909131 177.23837054 243.02710945 159.20439743 243.03030556 141.17035925 C243.03247138 131.0431195 243.04123053 120.915979 243.06676674 110.78876877 C243.0884639 102.16406177 243.09652901 93.53947812 243.08679996 84.91474693 C243.08225234 80.51463568 243.08416826 76.11477901 243.1035614 71.71470261 C243.12117307 67.68398489 243.12021175 63.65370782 243.10466411 59.62298556 C243.10228498 58.16733392 243.10662748 56.71165192 243.11849276 55.2560467 C243.18073228 47.11420309 242.80800177 40.61969515 238.61328125 33.51757812 C238.15566406 32.71964844 237.69804687 31.92171875 237.2265625 31.09960938 C231.42246933 23.2039511 224.01688483 18.93245249 214.61328125 16.51757812 C211.29796593 16.1225457 208.0263412 16.10296995 204.69023132 16.12316895 C203.73137348 16.11707784 202.77251565 16.11098674 201.78460151 16.10471106 C198.59285057 16.08815018 195.40150161 16.09284704 192.2097168 16.09765625 C189.91261381 16.0903119 187.61551451 16.08172461 185.31842041 16.07199097 C179.09310678 16.04980437 172.86792563 16.04684289 166.64257789 16.04873848 C161.43896814 16.04885832 156.23538632 16.04028868 151.03178436 16.03196096 C138.04981925 16.01163869 125.06793045 16.01057294 112.08595494 16.01776809 C100.83308439 16.02334107 89.58044167 16.00252386 78.32762434 15.96940762 C66.75141146 15.93560617 55.17531754 15.92098404 43.59905463 15.92512465 C37.10861251 15.92718925 30.61839733 15.92175701 24.12799644 15.89723206 C18.02193147 15.87492086 11.91633963 15.87687971 5.81027222 15.89715958 C3.57545922 15.90056188 1.34061409 15.8955144 -0.8941555 15.88117599 C-15.90147853 15.79156845 -29.97932352 16.05336772 -40.38671875 28.51757812 Z " fill="#020000" transform="translate(158.38671875,31.482421875)"/>
</svg>
