<?xml version="1.0" encoding="UTF-8"?>
<svg version="1.1" xmlns="http://www.w3.org/2000/svg" width="512" height="512">
<path d="M0 0 C1.02205032 -0.0071553 2.04410065 -0.01431061 3.09712219 -0.02168274 C4.22286652 -0.02437164 5.34861084 -0.02706055 6.50846863 -0.02983093 C7.69066483 -0.03640213 8.87286102 -0.04297333 10.09088135 -0.04974365 C14.01677298 -0.06951136 17.94265127 -0.08114644 21.86857605 -0.09111023 C23.21998808 -0.09515767 24.5713999 -0.09927459 25.92281151 -0.10346031 C32.27184385 -0.12251289 38.62086455 -0.1367437 44.96991998 -0.14507228 C52.29894183 -0.15484505 59.62766169 -0.18116493 66.95657712 -0.22157317 C72.62119485 -0.25173347 78.285726 -0.26654106 83.95042247 -0.26985329 C87.33379204 -0.27220397 90.71683901 -0.28116581 94.10012245 -0.30631447 C97.87580742 -0.3305745 101.65069888 -0.32976448 105.42643738 -0.32279968 C107.10594482 -0.34201477 107.10594482 -0.34201477 108.81938171 -0.36161804 C116.39941346 -0.31054201 116.39941346 -0.31054201 120.33248901 2.05154419 C123.65561487 5.85899051 123.33763009 9.19701253 123.3646698 14.04170227 C123.37036987 14.82607162 123.37606995 15.61044098 123.38194275 16.4185791 C123.3913962 18.08045603 123.3979281 19.74235174 123.40177917 21.4042511 C123.41146709 23.9393364 123.44247884 26.47360481 123.4740448 29.00849915 C123.48057677 30.62372871 123.48582648 32.23896407 123.4896698 33.85420227 C123.5020166 34.60957779 123.5143634 35.36495331 123.52708435 36.14321899 C123.5081113 40.65660887 122.97137785 43.56732742 120.1615448 47.14717102 C117.09559886 48.68014399 113.89042627 48.26848557 110.5287323 48.24482727 C109.77689667 48.24341232 109.02506104 48.24199738 108.2504425 48.24053955 C105.8457697 48.23493567 103.44118953 48.22238259 101.0365448 48.20967102 C99.40763989 48.20465652 97.77873353 48.20009352 96.14982605 48.19599915 C92.15366778 48.18581526 88.15771015 48.16624074 84.1615448 48.14717102 C84.1615448 54.08717102 84.1615448 60.02717102 84.1615448 66.14717102 C85.57822449 66.25931946 86.99490417 66.3714679 88.45451355 66.48701477 C117.54404682 69.42612593 145.82063083 82.53816757 170.1615448 98.14717102 C170.70045349 97.57684143 171.23936218 97.00651184 171.79460144 96.41889954 C174.2550877 93.83337087 176.73901715 91.27161184 179.2240448 88.70967102 C180.07160339 87.81183899 180.91916199 86.91400696 181.79240417 85.9889679 C188.95311666 78.66237017 188.95311666 78.66237017 192.97013855 77.86201477 C198.47033222 78.35346414 201.77765665 81.51298267 205.56877136 85.31147766 C206.4060376 86.14566727 207.24330383 86.97985687 208.10594177 87.83932495 C209.44057465 89.1847361 209.44057465 89.1847361 210.8021698 90.55732727 C211.72495728 91.48057297 212.64774475 92.40381866 213.59849548 93.3550415 C215.54483055 95.30293557 217.48777482 97.25412775 219.42814636 99.20796204 C221.91696665 101.71383044 224.41237835 104.21300634 226.91011429 106.70998478 C229.29360234 109.09380965 231.67282597 111.48186565 234.0521698 113.86982727 C235.39894806 115.21827477 235.39894806 115.21827477 236.77293396 116.59396362 C237.59759155 117.42500107 238.42224915 118.25603851 239.27189636 119.11225891 C240.36513214 120.21121239 240.36513214 120.21121239 241.48045349 121.33236694 C244.15287687 124.21735292 244.84062458 126.84361851 244.79045105 130.80732727 C243.37933818 136.05736833 238.5237283 139.57066823 234.6615448 143.14717102 C233.75533386 144.01728821 232.84912292 144.8874054 231.91545105 145.78388977 C229.68111006 147.92415325 227.43031673 150.04353927 225.1615448 152.14717102 C226.31068986 155.15711279 227.51359718 157.92360673 229.22795105 160.65107727 C257.77526526 207.0260392 265.7604029 262.32306568 253.6224823 315.27998352 C247.94139484 338.68667721 238.21954895 361.51222556 224.1615448 381.14717102 C223.44611511 382.15263977 222.73068542 383.15810852 221.99357605 384.19404602 C188.24092961 430.31270629 140.60859358 459.10704855 84.1615448 468.14717102 C83.12767639 468.31406433 83.12767639 468.31406433 82.07292175 468.48432922 C29.54235597 475.58822017 -24.7056782 460.46345077 -66.80232239 428.72676086 C-82.01378298 416.92602345 -95.41625582 403.63527029 -106.8384552 388.14717102 C-108.01214661 386.55582336 -108.01214661 386.55582336 -109.20954895 384.93232727 C-132.35785379 352.47655844 -144.79424981 314.89302804 -146.8384552 275.14717102 C-146.87841614 274.39870911 -146.91837708 273.65024719 -146.95954895 272.87910461 C-149.24022009 222.48767585 -130.47543639 170.63357021 -96.6509552 133.33467102 C-95.81693176 132.44006165 -94.98290833 131.54545227 -94.12361145 130.62373352 C-92.19715884 128.53591992 -90.38980469 126.40379596 -88.5884552 124.20967102 C-60.94032814 92.55644144 -16.65073852 72.5080486 24.1615448 66.14717102 C25.4815448 66.14717102 26.8015448 66.14717102 28.1615448 66.14717102 C28.1615448 60.20717102 28.1615448 54.26717102 28.1615448 48.14717102 C25.75357605 48.19357727 23.3456073 48.23998352 20.8646698 48.28779602 C18.52810269 48.31900615 16.19155895 48.34328547 13.85490417 48.36689758 C12.23305337 48.38699246 10.61127483 48.41427356 8.9896698 48.44892883 C6.656155 48.49754372 4.32359923 48.52015991 1.9896698 48.53779602 C1.26660645 48.55844116 0.54354309 48.5790863 -0.20143127 48.60035706 C-3.67995696 48.60190165 -5.48699222 48.42225975 -8.26521301 46.24775696 C-11.20073975 42.32825478 -11.03071992 38.99604415 -11.07673645 34.25263977 C-11.0848082 33.46827042 -11.09287994 32.68390106 -11.10119629 31.87576294 C-11.11503582 30.21389475 -11.12575857 28.55199815 -11.13362122 26.89009094 C-11.15081873 24.35478967 -11.19470175 21.82079788 -11.23884583 19.2858429 C-11.24897435 17.6706181 -11.25748996 16.05538223 -11.26423645 14.44013977 C-11.28174454 13.68476425 -11.29925262 12.92938873 -11.31729126 12.15112305 C-11.30204854 8.43150562 -10.96903544 6.35014123 -8.93684387 3.19136047 C-5.85537606 0.1894838 -4.18952069 0.0200866 0 0 Z M6.1615448 17.14717102 C6.1615448 21.76717102 6.1615448 26.38717102 6.1615448 31.14717102 C39.1615448 31.14717102 72.1615448 31.14717102 106.1615448 31.14717102 C106.1615448 26.52717102 106.1615448 21.90717102 106.1615448 17.14717102 C73.1615448 17.14717102 40.1615448 17.14717102 6.1615448 17.14717102 Z M45.1615448 48.14717102 C45.1615448 53.42717102 45.1615448 58.70717102 45.1615448 64.14717102 C52.4215448 64.14717102 59.6815448 64.14717102 67.1615448 64.14717102 C67.1615448 58.86717102 67.1615448 53.58717102 67.1615448 48.14717102 C59.9015448 48.14717102 52.6415448 48.14717102 45.1615448 48.14717102 Z M-74.8384552 135.14717102 C-75.97347473 136.18551086 -75.97347473 136.18551086 -77.13142395 137.24482727 C-111.2617576 169.51011537 -128.67578075 218.14103317 -130.12385559 264.27095032 C-130.76366111 311.51857045 -112.70063352 357.41980991 -80.7915802 392.00654602 C-79.20942912 393.7405836 -77.72898639 395.49416484 -76.2759552 397.33467102 C-73.086791 401.01447587 -69.58041683 404.04041893 -65.8384552 407.14717102 C-65.33056458 407.57804016 -64.82267395 408.0089093 -64.2993927 408.45283508 C-23.83529325 442.68264014 26.44742194 456.17502603 78.79338074 451.84687805 C85.35597715 451.05407439 91.75114623 449.74339306 98.1615448 448.14717102 C99.05180359 447.93286438 99.94206238 447.71855774 100.85929871 447.49775696 C113.58849255 444.36729117 125.41527534 439.93844101 137.1615448 434.14717102 C137.88857605 433.7925177 138.6156073 433.43786438 139.3646698 433.07246399 C160.65575776 422.5826394 181.07855309 407.55861617 196.1615448 389.14717102 C196.59193054 388.63444641 197.02231628 388.1217218 197.46574402 387.59346008 C221.59873321 358.8103961 236.63061401 324.48673415 241.1615448 287.14717102 C241.35877136 285.53648743 241.35877136 285.53648743 241.5599823 283.89326477 C246.33576978 236.45807828 231.13740582 189.16646857 202.0990448 151.77217102 C197.33959434 146.03312473 192.27078361 140.57337886 187.1615448 135.14717102 C186.50541199 134.43689758 185.84927917 133.72662415 185.17326355 132.99482727 C154.63967498 101.02282553 107.08930066 82.06870685 63.30607605 80.94404602 C10.38275833 80.28953945 -36.56340889 98.71279172 -74.8384552 135.14717102 Z M191.09513855 101.11592102 C190.27142761 101.95123352 189.44771667 102.78654602 188.5990448 103.64717102 C187.77275574 104.48248352 186.94646667 105.31779602 186.09513855 106.17842102 C185.13800964 107.15295227 185.13800964 107.15295227 184.1615448 108.14717102 C185.55872723 111.39544285 187.14727585 113.26096557 189.8490448 115.52217102 C190.56318542 116.12931946 191.27732605 116.7364679 192.0131073 117.36201477 C193.33770152 118.46263215 194.6652192 119.55975537 195.9974823 120.65107727 C200.55183642 124.43263375 204.36983582 128.60792796 208.1615448 133.14717102 C208.67330261 133.75560852 209.18506042 134.36404602 209.71232605 134.99092102 C210.86808485 136.37132026 212.01582915 137.75842478 213.1615448 139.14717102 C214.2670637 138.21126598 215.37089933 137.27337244 216.4740448 136.33467102 C217.39636902 135.55156555 217.39636902 135.55156555 218.33732605 134.75263977 C220.01579159 133.27544633 221.60036514 131.74677971 223.1615448 130.14717102 C221.50787365 125.86830504 218.29174906 123.00710752 215.09513855 119.85029602 C214.50104691 119.2566626 213.90695526 118.66302917 213.29486084 118.05140686 C212.04225763 116.80181786 210.78723173 115.55465328 209.529953 114.30976868 C207.59729408 112.3954369 205.67282767 110.47315244 203.74943542 108.54951477 C202.53180874 107.33680082 201.31372562 106.12454494 200.09513855 104.91279602 C199.5159819 104.3347522 198.93682526 103.75670837 198.34011841 103.16114807 C194.93102135 98.87939454 194.93102135 98.87939454 191.09513855 101.11592102 Z " fill="#000000" transform="translate(199.8384552001953,24.852828979492188)"/>
<path d="M0 0 C15.05194562 13.80143401 27.36251357 28.15978366 37.2890625 46.04296875 C37.63710938 46.66510254 37.98515625 47.28723633 38.34375 47.92822266 C50.12644671 69.2954344 56.55192713 93.65340294 57.2890625 118.04296875 C57.32902344 119.09613281 57.36898438 120.14929688 57.41015625 121.234375 C58.2942678 166.1160376 40.9789742 206.12542024 11.2890625 239.04296875 C10.61359375 239.79191406 9.938125 240.54085938 9.2421875 241.3125 C-4.67291946 255.91146906 -22.51160711 266.695398 -40.7109375 275.04296875 C-41.32018066 275.32269531 -41.92942383 275.60242188 -42.55712891 275.890625 C-50.12096321 279.29157792 -57.75414494 281.75162511 -65.7734375 283.79296875 C-66.55170898 283.99172607 -67.32998047 284.1904834 -68.13183594 284.39526367 C-80.84548518 287.45814509 -93.3804803 288.42180993 -106.3984375 288.35546875 C-107.14350555 288.35364594 -107.88857361 288.35182312 -108.65621948 288.34994507 C-120.2169524 288.302421 -131.4402329 287.79165715 -142.7109375 285.04296875 C-143.4028418 284.87667969 -144.09474609 284.71039063 -144.80761719 284.5390625 C-188.02556356 273.75952853 -224.68733808 246.96521635 -247.66113281 208.80517578 C-248.00756836 208.22364746 -248.35400391 207.64211914 -248.7109375 207.04296875 C-249.0522168 206.47562012 -249.39349609 205.90827148 -249.74511719 205.32373047 C-271.59290832 168.45427625 -275.73288039 122.97754201 -265.37890625 81.83203125 C-258.08103788 55.22702834 -244.64607006 31.98718361 -225.7109375 12.04296875 C-225.24204102 11.54152344 -224.77314453 11.04007813 -224.29003906 10.5234375 C-199.55475247 -15.79682862 -164.72428577 -33.75547395 -128.7109375 -37.95703125 C-127.92203125 -38.06660156 -127.133125 -38.17617187 -126.3203125 -38.2890625 C-81.79228836 -43.54000874 -33.68050765 -30.06370406 0 0 Z M-217.3984375 27.91796875 C-242.36686024 56.53043156 -255.19766522 94.20966065 -253.7109375 132.04296875 C-251.24395023 167.53234271 -237.38871828 200.32830642 -212.7109375 226.04296875 C-211.89238281 226.9246875 -211.07382813 227.80640625 -210.23046875 228.71484375 C-192.77590613 246.96865517 -170.25564519 259.25067946 -146.1484375 266.29296875 C-145.31030518 266.53942139 -144.47217285 266.78587402 -143.60864258 267.03979492 C-131.46456028 270.43459926 -119.53990186 271.42498428 -106.9609375 271.35546875 C-106.25650513 271.3533136 -105.55207275 271.35115845 -104.82629395 271.34893799 C-94.17635613 271.29671761 -84.04948329 270.80658971 -73.7109375 268.04296875 C-72.56189941 267.75292969 -72.56189941 267.75292969 -71.38964844 267.45703125 C-33.34212753 257.70048454 -0.6015955 233.54581516 19.51660156 199.74462891 C31.64364709 178.82055274 39.49822578 155.35260175 40.2890625 131.04296875 C40.32902344 130.05941406 40.36898438 129.07585937 40.41015625 128.0625 C41.25312342 88.14552535 25.50663681 52.49338681 -0.7109375 23.04296875 C-1.33097656 22.33785156 -1.95101562 21.63273437 -2.58984375 20.90625 C-27.48439137 -5.65907263 -65.21393329 -20.71552068 -101.1640625 -22.2421875 C-146.26417995 -23.35616358 -186.82999841 -4.8225778 -217.3984375 27.91796875 Z " fill="#000000" transform="translate(362.7109375,166.95703125)"/>
<path d="M0 0 C2.375 1 2.375 1 4 3 C5.04708048 6.25146045 5.50639195 7.75189837 5 11 C0.36331094 18.39162005 -7.56237772 24.51986774 -13.82130051 30.56024742 C-17.8975282 34.50457984 -21.94145216 38.482108 -25.99219322 42.45257854 C-29.53851811 45.92494101 -33.09496358 49.38564446 -36.67431641 52.82397461 C-40.15831848 56.17198039 -43.61172389 59.54899723 -47.046772 62.94718361 C-48.35265047 64.22853201 -49.6691161 65.49918895 -50.99647141 66.75827599 C-59.87916158 74.89104689 -59.87916158 74.89104689 -63.18212891 86.09692383 C-63.10981552 87.63634392 -63.10981552 87.63634392 -63.03604126 89.2068634 C-62.98667653 93.0325465 -64.18937077 95.38252821 -66.4296875 98.41015625 C-70.61177344 102.64425819 -75.11228768 104.21058864 -81 104.5 C-86.91947408 104.20902739 -91.36460425 102.60974713 -95.60546875 98.41015625 C-99.44528893 93.3226634 -99.68125329 88.22837778 -99.421875 81.99609375 C-98.68610484 76.77076308 -96.33115423 74.26109348 -92.625 70.75 C-88.27304144 67.8486943 -84.8905527 66.88690278 -79.7374115 67.33079529 C-75.05449428 67.35304264 -72.99926052 66.04437739 -69.71398926 62.82266235 C-69.13234009 62.20708466 -68.55069092 61.59150696 -67.95141602 60.95727539 C-67.3095787 60.31514603 -66.66774139 59.67301666 -66.00645447 59.01142883 C-63.90034006 56.89399005 -61.82777403 54.74664733 -59.75390625 52.59765625 C-58.29387585 51.11828805 -56.83176122 49.64097418 -55.36766052 48.16563416 C-51.52617194 44.28419055 -47.71204972 40.37693347 -43.90350342 36.4631958 C-39.26221811 31.70356407 -34.58965667 26.97467351 -29.92159176 22.24133205 C-26.29266996 18.56051744 -22.6686693 14.87524573 -19.05848694 11.17604065 C-18.06458954 10.15992203 -18.06458954 10.15992203 -17.0506134 9.12327576 C-15.81072786 7.85520672 -14.57284447 6.58517583 -13.33731079 5.31286621 C-8.69870877 0.57527786 -6.716706 -0.4632211 0 0 Z " fill="#000000" transform="translate(337,206)"/>
</svg>
