<svg width="382" height="58" viewBox="0 0 382 58" fill="none" xmlns="http://www.w3.org/2000/svg">
<g clip-path="url(#clip0_9603_42749)">
<g clip-path="url(#clip1_9603_42749)">
<path d="M155.604 39.9956C152.969 39.9956 151.734 38.6531 151.734 36.0182V23.8142H161.894V17.6312H151.734V9.40698H144.745V17.6312H140.176V23.8142H144.745V37.0388C144.745 42.95 148.563 46.553 154.798 46.553C157.7 46.553 160.442 45.8019 162.7 44.5643L160.387 38.7056C158.883 39.5115 157.109 39.9956 155.604 39.9956Z" fill="white"/>
<path d="M126.31 17.2019C122.762 17.2019 119.967 18.4919 117.924 21.072L117.225 17.6311H110.99V46.1237H117.979V32.737C117.979 26.6613 120.828 23.7593 124.913 23.7593C128.514 23.7593 130.664 26.0699 130.664 30.5862V46.1237H137.653V29.8351C137.653 22.0949 133.244 17.2019 126.31 17.2019Z" fill="white"/>
<path d="M186.782 20.9147C184.631 18.6017 181.407 17.2043 177.697 17.2043C169.687 17.2043 163.988 23.2801 163.988 31.8811C163.988 40.482 169.687 46.5578 177.697 46.5578C181.407 46.5578 184.631 45.1581 186.782 42.8475L187.481 46.1262H193.716V17.6359H187.481L186.782 20.9147ZM186.727 32.1457C186.727 37.2534 182.909 40.1029 178.825 40.1029C174.256 40.1029 170.977 36.5547 170.977 31.8787C170.977 27.2026 174.256 23.6545 178.825 23.6545C182.909 23.6545 186.727 26.504 186.727 31.6116V32.1457Z" fill="white"/>
<path d="M49.3618 46.1262H56.6203V31.1801H73.0162V24.4057H56.6203V15.8047H75.0049V9.03027H49.3618V46.1262Z" fill="white"/>
<path d="M99.0888 20.9147C96.938 18.6017 93.7141 17.2043 90.0038 17.2043C81.9942 17.2043 76.2952 23.2801 76.2952 31.8811C76.2952 40.482 81.9942 46.5578 90.0038 46.5578C93.7117 46.5578 96.938 45.1581 99.0888 42.8475L99.7875 46.1262H106.023V17.6359H99.7875L99.0888 20.9147ZM99.0339 32.1457C99.0339 37.2534 95.2163 40.1029 91.1316 40.1029C86.5629 40.1029 83.2842 36.5547 83.2842 31.8787C83.2842 27.2026 86.5629 23.6545 91.1316 23.6545C95.2163 23.6545 99.0339 26.504 99.0339 31.6116V32.1457Z" fill="white"/>
<path d="M204.928 25.3188C204.928 24.0288 206.108 23.1155 208.421 23.1155C210.734 23.1155 213.045 24.0312 215.088 25.6431L218.529 20.4282C215.68 18.3322 212.241 17.2019 208.531 17.2019C202.188 17.2019 197.941 20.6952 197.941 25.8029C197.941 35.6939 211.812 33.7052 211.812 38.2214C211.812 39.7809 210.255 40.6417 207.62 40.6417C204.985 40.6417 202.405 39.6736 200.362 38.0617L200.359 38.0593L197.243 43.7583C199.982 45.5324 203.638 46.553 207.456 46.553C214.282 46.553 218.799 42.9499 218.799 37.6825C218.799 27.5221 204.928 29.5108 204.928 25.3188Z" fill="white"/>
<path d="M236.647 37.902L227.884 17.6335H220.089L232.884 46.5029C231.539 49.7816 229.498 50.7497 226.165 50.7497C225.466 50.7497 224.875 50.6949 224.336 50.5876L223.422 57.5218C224.228 57.7912 225.304 57.8985 226.379 57.8985C232.667 57.8985 236.914 55.3709 239.926 47.7381L251.805 17.6335H244.173L236.647 37.902Z" fill="white"/>
<path d="M38.3158 22.0563C40.9268 26.8809 41.5618 32.6612 39.7482 38.4205C39.6389 38.2972 38.2578 36.7533 37.6855 36.1211C37.3229 41.7524 35.6649 46.1261 30.8265 49.8209C30.8265 49.8209 30.3684 48.0516 30.0966 46.9447C22.1213 52.7901 15.2644 50.1161 13.337 49.1559C14.8297 42.3106 13.6742 38.3814 12.6743 35.3843C10.5514 38.8719 8.37742 41.581 6.20823 43.4106C4.72482 39.9461 4.61084 33.5079 5.81073 29.7039C5.41323 29.8107 3.06948 30.5502 1.76968 30.9453C2.29284 27.4532 4.59939 22.7771 7.03613 20.4474C6.61073 20.373 5.35981 20.1963 4.37143 20.0313C4.98067 18.7919 6.74784 16.4901 9.45642 14.33C9.37725 15.8529 9.94238 17.669 11.6631 18.5408C10.5726 16.6272 10.44 14.2649 11.577 13.0397C12.7187 11.8074 14.6346 12.2306 15.8574 13.1885C15.6295 12.5234 15.139 11.7537 14.4112 11.2468C17.7872 9.67489 21.8843 8.76353 26.5298 9.48198C27.2459 10.1074 28.0108 10.9864 28.4341 11.5305C28.4525 11.1399 28.3969 10.3912 28.2736 9.82154C30.1734 10.2727 32.1566 10.9981 34.212 12.0606C30.5523 8.41014 23.135 7.31279 16.9455 9.08448C15.4945 9.50058 14.1182 10.0495 12.8231 10.6981C11.4582 10.7143 10.5793 11.5491 10.0747 12.2883C6.11499 14.9158 3.2085 18.3734 1.81117 21.2703C2.12283 21.3378 3.06209 21.4542 3.92696 21.6027C2.16933 24.1256 -0.144134 28.9037 0.00704454 33.1934C0.409313 33.0725 2.5716 32.4099 3.63199 32.0658C3.06471 35.8512 3.22972 42.2102 5.68745 45.8466C8.77993 43.6564 10.5726 41.3544 12.0629 39.2782C12.4466 41.1477 12.821 44.4703 11.5026 49.9764C12.572 50.8019 20.3241 54.873 29.0922 49.5531L29.8247 52.4434L30.7733 51.8272C36.1096 48.3604 38.1577 43.6777 38.874 39.8643C39.1206 40.1364 40.0901 41.199 40.439 41.5523C41.776 37.8995 44.4545 29.1152 38.3184 22.0539L38.3158 22.0563Z" fill="white"/>
<path d="M8.9123 4.30151H8.90991C8.9111 4.30199 8.9123 4.30271 8.91373 4.30318C8.91325 4.30271 8.91277 4.30199 8.9123 4.30151Z" fill="white"/>
<path d="M22.9164 6.90795C25.0415 6.90795 27.0994 7.20101 29.0501 7.7473C29.234 5.86854 29.6432 3.52957 30.5035 1.8368C28.5203 3.3667 27.3366 5.02442 27.1785 5.23617C27.1344 4.81077 26.9506 1.97867 26.8158 0C26.0161 0.872019 22.9236 4.31073 22.3842 4.87587C21.9424 4.19461 19.3568 0.00691511 19.3568 0.00691511C19.3568 0.00691511 17.9244 4.16432 17.5107 5.43837C16.4992 4.74305 13.4163 2.60413 12.0886 1.68085C12.3466 3.44086 12.7953 6.27296 12.9162 6.8636C12.6513 6.66378 11.1903 5.34681 8.91382 4.3031C10.1616 5.79581 11.1028 8.05252 11.7049 9.86309C15.0137 7.98218 18.8382 6.90795 22.9164 6.90795Z" fill="white"/>
<path d="M28.9782 14.3369C25.9394 12.1419 24.4464 11.5933 24.4464 11.5933C21.1076 12.0699 18.9639 13.358 17.7988 14.3696L18.8149 15.2344C16.8035 15.853 15.4968 17.5827 15.4968 17.5827C15.5109 17.613 17.2943 17.8665 17.2943 17.8665C17.2943 17.8665 17.1128 19.9613 19.7355 21.2751C21.9794 22.3982 25.2114 21.0054 28.2526 22.2261C26.2508 19.9174 24.872 18.8849 24.872 18.8849C24.872 18.8849 24.0766 18.7199 23.5164 18.7246C22.819 18.7294 21.7796 18.8689 20.6357 18.4223C20.0916 18.2108 19.4547 17.834 18.957 17.5202C18.957 17.5202 20.3591 16.0785 22.41 15.7602C22.41 15.7602 24.2585 16.281 25.7257 17.3645C26.6998 16.416 27.7161 16.4439 27.7161 16.4439C27.7161 16.4439 26.7091 17.3855 27.0138 18.5248C28.4808 19.8315 30.0667 21.6989 30.0667 21.6989C31.6849 20.8106 35.2006 21.015 35.9236 21.8522C35.0098 20.6664 33.689 19.6761 32.6685 18.8272C32.5452 18.3832 31.4314 16.8299 31.2432 16.688C31.2432 16.688 32.3034 17.0159 33.2474 17.8622C33.5219 17.4761 34.0262 17.081 34.7215 16.9064C35.4355 17.504 35.5585 18.4201 35.5401 18.5737C35.2168 18.955 34.9054 19.1131 34.9054 19.1131L36.6108 20.9623L36.7818 19.641C36.8399 18.9085 36.6516 17.6948 35.6262 16.4324C34.3543 15.0072 31.155 12.7075 29.6299 12.1565C29.6299 12.1565 29.5042 13.6284 28.9787 14.3376L28.9782 14.3369Z" fill="white"/>
<path d="M36.3676 23.5769V23.5793C35.27 24.5047 34.3376 25.0162 34.3376 25.0162L34.3469 27.941C35.135 28.8174 35.9093 29.543 36.4906 30.8659C37.5904 28.8872 37.381 25.9714 36.3674 23.5767L36.3676 23.5769Z" fill="white"/>
<path d="M35.477 33.1541L35.4746 33.1565C35.4746 33.1565 35.2514 31.9521 34.2957 30.8242L32.1194 30.8779C32.1194 30.8779 29.1828 33.4031 27.3901 33.461C27.3901 33.461 28.3783 35.2981 28.8738 36.2559C29.8622 36.0418 31.5964 35.2606 32.2941 34.4515C32.2941 34.4515 32.7567 35.9419 32.6685 37.6974C33.6497 37.1253 35.003 35.5861 35.4772 33.1541H35.477Z" fill="white"/>
<path d="M32.6661 27.8711L32.6613 24.9577C32.6613 24.9577 31.3615 24.5392 29.9689 23.4604C27.1786 23.8835 23.7957 26.6898 23.7957 26.6898C23.7957 26.6898 24.9395 28.8569 26.1859 31.1937C28.383 31.496 31.6174 28.7267 32.6613 27.8687L32.6661 27.8711Z" fill="white"/>
<path d="M36.7885 19.6382L36.6106 20.9618L36.6163 20.968L36.7885 19.6382Z" fill="white"/>
<path d="M36.6106 20.9619H36.6103L36.6094 20.9705L36.6106 20.9619Z" fill="white"/>
<path d="M272.287 9.32666H261.285V46.1782H272.287C284.785 46.1782 291.728 38.4874 291.728 27.7523C291.728 17.0172 284.785 9.32666 272.287 9.32666ZM272.287 42.2259H265.451V13.2788H272.287C282.381 13.2788 287.562 19.314 287.562 27.7523C287.562 36.1907 282.381 42.2259 272.287 42.2259Z" fill="white"/>
<path d="M299.899 22.198L299.471 18.9932H296V46.1782H300.006V30.1556C300.006 24.975 302.943 22.5717 307.055 22.5717C308.177 22.5717 309.245 22.7319 310.367 23.1056V18.8864C309.405 18.673 308.444 18.5662 307.429 18.5662C304.385 18.5662 301.928 19.6342 299.899 22.198Z" fill="white"/>
<path d="M334.827 23.2126C332.531 20.3822 328.952 18.5662 324.786 18.5662C316.882 18.5662 311.327 24.3341 311.327 32.559C311.327 40.7839 316.882 46.6055 324.786 46.6055C328.952 46.6055 332.531 44.7897 334.827 41.959L335.308 46.1782H338.779V18.9932H335.308L334.827 23.2126ZM334.774 32.9329C334.774 39.2349 330.127 42.8134 325.107 42.8134C319.339 42.8134 315.333 38.5942 315.333 32.559C315.333 26.5238 319.339 22.3046 325.107 22.3046C330.127 22.3046 334.774 25.9365 334.774 32.2388V32.9331V32.9329Z" fill="white"/>
<path d="M355.121 9.11285C356.243 9.11285 357.204 9.43309 358.219 9.91405L359.714 6.38901C358.272 5.69464 356.67 5.26733 354.908 5.26733C349.994 5.26733 347.11 8.31165 347.11 13.4388V18.9931H342.357V22.6784H347.11V46.1781H351.116V22.6784H358.432V18.9931H351.116V13.8125C351.116 10.6614 352.344 9.11261 355.121 9.11261L355.121 9.11285Z" fill="white"/>
<path d="M380.329 41.3714C378.727 42.3326 376.965 42.8133 375.362 42.8133C371.997 42.8133 370.502 40.9441 370.502 37.259V22.6786H380.97V18.9934H370.502V11.1426H366.497V18.9934H361.636V22.6786H366.497V37.6863C366.497 43.2408 369.701 46.6056 374.989 46.6056C377.445 46.6056 379.795 45.9113 381.771 44.7898L380.329 41.3716V41.3714Z" fill="white"/>
</g>
</g>
<defs>
<clipPath id="clip0_9603_42749">
<rect width="382" height="58" fill="white"/>
</clipPath>
<clipPath id="clip1_9603_42749">
<rect width="381.771" height="57.9438" fill="white"/>
</clipPath>
</defs>
</svg>
