<svg xmlns="http://www.w3.org/2000/svg" width="495" height="600" fill="none"><path fill="#FFDF00" stroke="#0058A2" stroke-width="32.779" d="M247.499 572.255C2.183 418.893 20.718 176.079 39.289 111.018 70.257 72.285 163.249 27.744 247.5 27.744s177.252 44.54 208.209 83.274c18.575 65.061 37.11 307.875-208.209 461.237Z"/><path fill="#FFDF00" d="M247.499 572.255C2.183 418.893 20.718 176.079 39.289 111.018 70.257 72.285 163.249 27.744 247.5 27.744s177.252 44.54 208.209 83.274c18.575 65.061 37.11 307.875-208.209 461.237Z"/><path fill="#FFDF00" d="M39.29 111.018c30.966-38.733 123.958-83.274 208.209-83.274s177.252 44.54 208.209 83.274c18.575 65.061 37.11 307.875-208.209 461.237"/><path fill="#fff" d="m212.71 483.363 12.018 11.227a453.923 453.923 0 0 0 22.771 15.212 454.356 454.356 0 0 0 23.132-15.47l11.746-10.969V237.162h-69.666l-.001 246.201Z"/><path fill="#0058A2" d="M247.546 213.88H80.584s-.193-56.878 7.547-68.492c22.443-30.213 92.664-61.097 159.415-61.097 66.751 0 136.96 30.883 159.424 61.097 7.717 11.614 7.529 68.492 7.529 68.492H247.546ZM313.199 237.123l83.994 92.792a299.652 299.652 0 0 0 10.14-36.406l-51.041-56.386h-43.093ZM388.954 237.123l23.255 25.692a288.215 288.215 0 0 0 1.635-25.692h-24.89ZM305.423 432.03v32.51a357.18 357.18 0 0 0 15.866-14.978l-15.866-17.533v.001ZM305.423 348.332v47.602l32.417 35.803a335.103 335.103 0 0 0 19.996-25.514l-52.413-57.891ZM305.423 264.633v47.604l66.043 72.952c5.98-10.114 11.201-20.193 15.731-30.216l-81.773-90.34h-.001ZM181.896 237.123l-83.994 92.792a301.206 301.206 0 0 1-10.15-36.406l51.045-56.386h43.099ZM106.138 237.123l-23.272 25.692a302.332 302.332 0 0 1-1.632-25.692h24.904ZM189.658 432.03v32.51a358.843 358.843 0 0 1-15.866-14.978l15.866-17.533v.001ZM189.658 348.332v47.602l-32.405 35.803a328.485 328.485 0 0 1-19.999-25.514l52.404-57.891ZM189.658 264.633v47.604l-66.025 72.952c-5.994-10.114-11.224-20.193-15.739-30.216l81.764-90.34Z"/><path fill="#fff" d="M294.509 135.81c-1.081-11.547-6.182-21.825-15.215-28.379-9.05-6.586-20.456-8.257-31.801-5.666-11.315-2.546-22.665-.868-31.689 5.693-9.065 6.584-14.16 16.909-15.206 28.511-5.93 9.967-7.832 21.28-4.386 31.895 3.448 10.647 11.697 18.692 22.411 23.278 7.65 8.713 17.816 14.022 28.971 14.022 11.193.003 21.403-5.35 29.053-14.122 10.662-4.586 18.866-12.613 22.299-23.228 3.472-10.644 1.536-21.997-4.435-32.003l-.002-.001Zm-46.931 15.332v.006h-.009v-.006l.006-.009.003.009Z"/><path fill="#fff" d="m247.563 111.833 4.765-10.176-4.765-14.08-4.775 14.08 4.775 10.176ZM210.184 139.009l-8.2-7.679-15.274.024 12.323 9.05 11.151-1.395ZM224.479 182.953l-9.847 5.432-4.899 14.825 12.628-9.214 2.118-11.043ZM270.68 182.941l2.119 11.037 12.513 9.08-4.784-14.691-9.848-5.426ZM284.949 138.984l11.148 1.404 12.186-9.013-15.133-.07-8.201 7.679Z"/><path fill="#0058A2" d="M247.563 111.788s2.104-.671 2.104-4.556-2.104-13.58-2.104-13.58-2.127 9.695-2.127 13.58 2.127 4.556 2.127 4.556ZM270.592 182.563s-1.312 1.785.955 4.928c2.294 3.144 9.721 9.742 9.721 9.742s-3.996-9.088-6.267-12.235c-2.294-3.144-4.41-2.435-4.41-2.435h.001ZM284.788 138.804s1.283 1.811 4.989.61c3.694-1.201 12.256-6.217 12.256-6.217s-9.883.981-13.568 2.182c-3.686 1.201-3.677 3.425-3.677 3.425ZM214.907 151.251c0-18.042 14.623-32.665 32.656-32.665s32.654 14.623 32.654 32.665-14.623 32.654-32.654 32.654c-18.031 0-32.656-14.614-32.656-32.654Z"/><path fill="#fff" stroke="#0058A2" stroke-width="1.781" d="M269.201 143.937s.85 2.25 3.214 1.767c3.703-.741-1.075-2.517 10.39-6.231 3.677-1.201 7.972-.832 9.739 3.029 2.007 4.383.079 8.063-1.945 9.845-2.851 2.499-5.268 10.814-5.268 10.814v.017s-2.936 8.134-2.095 11.82c.598 2.643-.009 6.747-4.207 9.118-3.712 2.077-7.389-.146-9.665-3.276-7.079-9.748-2.224-8.239-4.785-11.016-1.635-1.782-3.615-.434-3.615-.434s-1.867 1.494-.689 3.601c1.849 3.293 1.981-1.846 9.071 7.905 2.274 3.132 3.241 7.325.123 10.205-3.553 3.258-7.647 2.566-9.961 1.18-3.261-1.93-11.913-1.661-11.913-1.661h-.008s-8.635-.269-11.89 1.661c-2.326 1.386-6.419 2.077-9.964-1.183-3.129-2.877-2.151-7.07.123-10.202 7.079-9.751 7.222-4.612 9.071-7.908 1.187-2.104-.706-3.565-.706-3.565s-2.001-1.327-3.636.457c-2.558 2.775 2.294 1.263-4.794 11.014-2.265 3.135-5.962 5.353-9.659 3.27-4.204-2.364-4.808-6.481-4.213-9.115.844-3.686-2.092-11.84-2.092-11.84l-.006-.008s-2.411-8.309-5.256-10.797c-2.036-1.781-3.955-5.47-1.954-9.841 1.767-3.864 6.059-4.236 9.748-3.038 11.45 3.718 6.686 5.496 10.389 6.24 2.367.472 3.185-1.778 3.185-1.778s.627-2.314-1.568-3.316c-3.436-1.582-.568 2.52-12.027-1.204-3.689-1.195-6.938-4.023-6.095-8.183.949-4.72 4.665-6.572 7.354-6.821 3.783-.34 10.624-5.649 10.624-5.649l.006-.003s7.152-4.863 8.649-8.338c1.069-2.488 3.973-5.462 8.761-4.899 4.21.486 5.889 4.456 5.889 8.324 0 12.051-3.085 8.113-2.649 11.872.287 2.391 2.675 2.467 2.675 2.467s2.397-.106 2.664-2.511c.427-3.75-2.637.19-2.637-11.854 0-3.876 1.676-7.841 5.886-8.336 4.784-.551 7.697 2.415 8.76 4.899 1.486 3.478 8.655 8.347 8.655 8.347l.012.009s6.829 5.306 10.603 5.64c2.687.247 6.42 2.098 7.357 6.818.847 4.169-2.408 6.987-6.1 8.183-11.45 3.73-8.584-.375-12.021 1.201-2.186 1.008-1.527 3.308-1.527 3.308l-.003-.004Z"/><path fill="#FFDF00" stroke="#0058A2" stroke-width=".784" d="m247.578 143.895 6.651 4.564-2.543 8.685h-8.913l-2.121-8.685 6.926-4.564Z"/><path stroke="#0058A2" stroke-width=".784" d="m234.037 145.518 6.615 2.941M247.578 136.166v7.729M261.112 147.029l-7.009 1.987M242.662 157.064l-3.991 5.576M251.132 157.145l4.723 5.496"/><path fill="#FFDF00" stroke="#0058A2" stroke-width=".784" d="m241.897 134.679 5.681 1.559 5.892-1.635.161-2.148s-4.084-1.359-6.232-1.295c-1.438.032-5.613.952-5.613.952l.111 2.567ZM261.398 141.109l-.17 6.036 3.258 5.186 2.563-.621s.14-4.706-.422-6.033c-.563-1.327-2.634-5.499-2.634-5.499l-2.596.932.001-.001ZM261.656 160.56l-5.591 2.297-3.469 4.685 1.339 2.127s4.658-1.855 5.64-2.901c1.055-1.131 4.063-4.184 4.063-4.184l-1.983-2.025.001.001ZM242.316 167.419l-3.882-4.542-5.189-2.566-1.922 2.089s3.229 3.978 4.503 4.644c1.283.665 5.174 2.47 5.174 2.47l1.316-2.095ZM230.225 150.194l3.812-4.676.583-6.097-1.957-.917s-2.865 3.765-3.31 5.133c-.539 1.682-1.465 5.751-1.465 5.751l2.337.806Z"/><path stroke="#0058A2" stroke-width="1.477" d="M227.974 150.935c0-10.832 8.778-19.601 19.604-19.601 10.826 0 19.595 8.769 19.595 19.601 0 10.832-8.772 19.598-19.595 19.598-10.823 0-19.604-8.775-19.604-19.598Z"/><path fill="#0058A2" d="m219.313 111.736 10.199-5.068-7.828 8.314-10.331 4.899 7.96-8.145ZM247.323 198.889l-11.224-1.892 11.221-2.118 11.222 2.103-11.219 1.907ZM293.202 165.787l-5.276 10.09 1.45-11.329 5.479-10.027-1.653 11.266ZM275.887 111.914l7.981 8.131-10.337-4.882-7.84-8.3 10.196 5.051ZM201.661 165.492l-1.678-11.263 5.499 10.015 1.462 11.333-5.283-10.085ZM210.363 138.852s.018-2.224-3.674-3.428c-3.7-1.195-13.583-2.176-13.583-2.176s8.573 5.016 12.267 6.214c3.7 1.198 4.989-.61 4.989-.61h.001ZM224.608 182.593s-2.113-.703-4.389 2.437c-2.291 3.141-6.279 12.235-6.279 12.235s7.421-6.598 9.704-9.739c2.289-3.147.964-4.934.964-4.934v.001ZM264.783 354.965c.641-.205 1.222-.041 1.365.364.179.404 1.864 4.102 0 7.72-1.561 3.036-5.121 4.793-9.73 4.172-3.402-.457-8.248-4.371-8.332-8.921-1.545 2.28-6.745 9.425-17.049 8.008-11.462-1.594-5.567-15.221-4.011-17.6 4.606-7.032 13.281-22.42 14.192-24.312.929-1.893 2.704-6.51-.108-7.694-2.813-1.19-6.912.979-9.109 4.606-.671 1.113-.803.492-1.181.217-.386-.275-.595-.715-.817-1.09-.217-.37.63-1.19.893-1.571.278-.375 5.095-6.434 12.522-4.635 5.813 1.43 6.528 4.694 6.249 7.571-.266 2.86-14.781 26.445-16.738 31.584-1.945 5.139-.759 8.174 2.001 8.397 2.769.214 9.533-.61 13.982-10.295 4.435-9.704 11.467-24.588 12.994-27.682 1.52-3.088 3.785-7.377 4.234-8.022.427-.65.363-.92 1.678-.762 1.292.164 4.489.604 5.142.604.641 0 .24 1.318-.252 1.969-.49.656-15.362 30.154-17.298 36.22-1.957 6.071 1.684 7.547 2.434 7.747 1.251.355 5.198.624 5.795-2.42.323-1.594-.226-2.86-.334-3.194-.103-.322.208-.457.208-.457s.606-.317 1.268-.522l.002-.002ZM276.385 377.243c-.249-.492-.885-.527-1.295.176-.401.703-1.489 2.438-3.648 2.86-6.606 1.324-11.778.68-19.147.235-7.368-.434-17.008.176-19.765 3.668-2.769 3.492-1.618 5.977-1.064 6.985.815 1.465 2.52 2.766 4.878 3.399 2.362.668 4.146.094 4.961-.481.803-.551-.571-1.219-1.064-1.536-.48-.316-3.636-1.055-3.721-2.52-.029-.656.325-2.52 2.28-3.411 1.951-.902 6.566-1.394 10.465-.902-.17 3.821-2.44 13.9-4.14 17.545-2.529 0-10.551.445-12.361 5.204-.896 2.367-.167 4.395.65 5.051.818.644 1.389.574 1.389-.235 0-.82.082-2.438.893-3.34.809-.902 3.982-2.274 8.289-1.477-1.389 4.887-5.532 17.169-9.918 19.43-4.386 2.274-7.181.574-7.547.071-.811-1.09-1.052-2.098-1.052-2.672 0-.574-1.553-2.356-2.048.164-.484 2.52 1.861 6.317 5.591 7.254 6.612 1.653 10.427-2.215 11.64-3.188 1.231-.973 7.706-7.489 11.125-20.263 2.766.328 6.738.246 8.283-.398 3.615-1.547 4.928-3.891 5.168-5.356.249-1.465.132-2.661-.205-3.399-.322-.739-1.447-1.793-1.623-.891-.152.891 0 2.438-1.547 3.575-.454.34-2.827 2.191-8.684 1.219 1.134-3.574 3.891-17.884 3.891-17.884 3.1.246 9.908-.235 11.945-.809 2.036-.574 5.702-2.227 6.914-4.629.888-1.794.718-2.942.466-3.446l.001.001ZM275.834 287.989c0-.656-.902-.328-1.225 0-.322.322-6.742 6.417-11.134 6.569-4.38.17-10.961 0-19.167-4.225 2.68-4.465 8.206-14.292 10.723-23.724 7.884-1.379 14.133-5.531 16.571-8.693 2.766-3.574 3.82-8.447 1.711-10.565-4.149-4.146-14.881-3.654-20.978 8.039-1.26 2.449-2.452 5.078-3.551 7.735-2.584-.311-5.277-1.618-5.778-2.048-.571-.481-.973-.73-.899-.079.088.65-.073 1.385-.073 1.385s-.41.894.243 1.14a14.878 14.878 0 0 0 5.596 1.831c-3.736 9.376-6.595 18.941-9.337 23.776-2.839-1.225-7.228-1.548-10.48-.586-3.249.973-9.176 3.826-8.623 8.948.574 5.116 10.005 4.788 10.817 4.712.809-.076 6.662-.885 10.89-7.155 6.332 4.231 11.617 6.592 16.308 6.504 4.726-.076 13.258-1.377 18.294-10.975.252-.487.091-1.945.091-2.59l.001.001Z"/><path fill="#fff" d="M235.246 291.969c-3.413-2.449-8.453-2.772-11.055.891-2.605 3.656 1.462 4.711 2.356 4.711.894 0 4.955.815 8.699-5.602ZM255.615 262.878c.882-2.772 2.845-9.59 4.058-11.061 1.216-1.456 4.635-4.063 7.392-1.456 2.76 2.599-.621 7.248-1.374 7.885-4.309 3.648-10.076 4.632-10.076 4.632Z"/><path fill="#0058A2" d="M267.856 446.187c2.933-4.676-.138-10.548-3.006-11.591-1.113-.398-7.849-2.578-17.002 3.258-8.945 5.672-18.845 15.177-21.004 30.119-2.162 14.954 8.219 20.263 9.382 20.592 1.163.34 11.181 4.195 18.086-4.559 4.072-5.145 4.072-6.551 4.409-7.383.319-.832-1.169-1.84-1.822-.832-.677.984-4.485 6.633-7.31 8.133-2.825 1.5-8.717 2.239-11.204-1.336-2.675-3.844-3.162-9.376-1.822-14.861 1.321-5.484 5.555-18.271 13.515-25.068 7.972-6.809 12.956-6.399 14.614-5.239 1.662 1.16 2.623 5.286 1.313 7.771-.501.949 1.134 2.156 1.852.996h-.001Z"/></svg>