<svg xmlns="http://www.w3.org/2000/svg" width="100" height="100" fill="none"><g clip-path="url(#a)"><path fill="#fff" d="M26.475 91.08 2.951 50.32 26.475 9.555h47.05L97.05 50.32 73.526 91.08h-47.05Z"/><path fill="#fff" d="M73.526 9.556 97.049 50.32 73.526 91.08h-47.05L2.95 50.32 26.475 9.555h47.05M75 7H25l-.738 1.278L.737 49.042 0 50.319l.737 1.278 23.525 40.76.738 1.278h50.002l.738-1.278 23.523-40.76.738-1.278-.738-1.277L75.74 8.278 75.001 7Z"/><path fill="#1D1D1B" d="M27.195 89.832 4.391 50.319l22.804-39.515h45.61l22.803 39.515-22.803 39.513h-45.61Z"/><path fill="#FAB900" d="M31.581 82.231 13.161 50.32l18.42-31.916H68.42L86.838 50.32l-18.42 31.912H31.581Z"/><path fill="#fff" d="M31.964 81.566h36.072L86.07 50.319 68.036 19.068H31.965l-18.036 31.25 18.035 31.248Zm36.84 1.33H31.196L12.394 50.318l.192-.332 18.611-32.248h37.607l.19.333 18.613 32.247-18.804 32.577Z"/><path fill="#1D1D1B" d="M44.715 35.363H55.25l5.632-14.125 15.245 30.964-16.485 9.743-5.288 17.348h-8.707L40.38 61.917l-16.502-9.715 15.22-30.964 5.618 14.125Z"/><path fill="#fff" d="m46.87 55.146-7.773-8.335v8.335h7.773Zm14.012-8.335v8.335h-7.788l7.788-8.335Z"/></g><defs><clipPath id="a"><path fill="#fff" d="M0 7h100v86.636H0z"/></clipPath></defs></svg>