<svg xmlns="http://www.w3.org/2000/svg" xml:space="preserve" id="Layer_1" x="0" y="0" style="enable-background:new 0 0 215 215" version="1.1" viewBox="0 0 215 215"><style>.st0{fill:#fff}</style><path d="M105.4 197.1c-20.4-3.8-39.5-14.3-53.8-29.4-14.6-15.6-22.8-34.8-23-54V17.5h157.8v96.1c-.2 19.3-8.4 38.5-23 54.1-14.2 15.2-33.3 25.6-53.8 29.4l-2.1.4-2.1-.4z" class="st0"/><path d="M106.2 192.4c-19.4-3.6-37.6-13.6-51.2-28-13.8-14.7-21.6-32.8-21.7-50.8V22.2h148.4v91.4c-.2 18.1-7.9 36.1-21.7 50.8-13.6 14.4-31.7 24.4-51.2 28l-1.3.2-1.3-.2z" style="fill:#5f0041"/><path d="M108.1 71.8c.1 0 0 0 0 0zM37.9 26.8v86.8c.2 16.9 7.5 33.8 20.5 47.7 12.9 13.7 30.2 23.2 48.7 26.7l.4.1.4-.1c18.5-3.5 35.8-12.9 48.7-26.7 13-13.9 20.3-30.8 20.5-47.8V26.8H37.9zm134.6 86.7c-.3 32.3-28.9 62.9-65 69.9-36.2-6.9-64.7-37.6-65-69.8V31.4h130.1v82.1z" class="st0"/><path d="M66.8 142.2c.5-.1.8-.2 1-.7.2-.5.2-1.4-1.1-1.9l-2.8-1.1-2 5.1 2.9 1.1c.9.4 2 .2 2.4-.8.3-.9 0-1.4-.4-1.7zm-1.1.8c-.2.4-.5.4-.8.2l-.9-.4.4-.9 1 .4c.3.2.4.4.3.7zm.5-1.9c-.1.3-.4.3-.7.2l-.8-.3.3-.8.8.3c.4.2.5.4.4.6zM70.6 141.1l-1.5-.7-1.4 3c-.6 1.4-.2 2.4 1.3 3.1 1.5.7 2.6.4 3.2-1l1.4-3-1.5-.7-1.3 2.7c-.2.5-.5 1.1-1.3.8-.7-.3-.4-1-.2-1.5l1.3-2.7zM73 148.5l1-1.7.8.4c.6.3.3.8.1 1.3-.1.3-.2.5-.3.8l1.5.8c0-.3.3-.9.4-1.1.3-.6.3-1.2 0-1.6.6.1 1.1-.3 1.4-.8.5-.9.1-1.8-.8-2.2l-2.8-1.6-2.7 4.7 1.4 1zm2.1-3.6.7.4c.6.3.6.6.4.9-.2.4-.6.3-.9.1l-.8-.4.6-1zM77.4 151.3l1.9-2.3-.6 3.3 1.3 1.1 3.4-4.3-1.2-1-1.9 2.3.6-3.3-1.3-1.1-3.5 4.3zM83.7 156.3l.9-1.1-1.9-1.4 2.5-3.3-1.4-1-3.3 4.3zM88 159.3l.8-1.2-2.5-1.6.4-.6 2.2 1.4.7-1-2.1-1.5.3-.5 2.4 1.5.5-.6v3.3l-1 1.7 1.4.9 1-1.8 3.4-2.1-1.6-.9-1.8 1.3.2-2.2-1.3-.7-3.8-2.5-3 4.5zM96.8 163.6l.7-2 2.1.7.4-1.2-2.1-.7.3-.7 2.4.9.4-1.3-3.9-1.4-1.9 5.1zM100.3 161.9c-.3 1.6.5 3 2.2 3.3 1.6.3 2.9-.6 3.3-2.3.3-1.6-.5-3-2.2-3.3-1.7-.3-3 .7-3.3 2.3zm1.6.4c.2-1.2.9-1.3 1.4-1.3.4.1 1 .5.8 1.7-.2 1.2-.9 1.3-1.4 1.3-.4-.1-1-.5-.8-1.7zM108.7 166c1.7 0 2.8-1.1 2.8-2.8 0-1.7-1.1-2.9-2.7-2.9-1.7 0-2.8 1.1-2.8 2.8-.1 1.6 1 2.8 2.7 2.9zm.1-4.4c.4 0 1.1.3 1.1 1.5s-.7 1.5-1.1 1.5c-.4 0-1.1-.3-1.1-1.5s.6-1.5 1.1-1.5zM113 161.5l.7 4.1 1.6-.3-.6-4 1.5-.3-.2-1.4-4.7.8.2 1.4zM120.9 163.7c.9-.3 1.6-1.2 1.2-2.2-.3-.8-.8-1-1.4-1 .3-.3.5-.7.3-1.2s-.7-1.2-2.1-.7l-2.8 1 1.8 5.1 3-1zm-.4-1.8c.1.4-.1.6-.4.7l-.9.3-.3-1 1-.4c.2 0 .5.1.6.4zm-1.5-2c.3-.1.6-.1.7.2.1.3-.1.5-.4.6l-.8.3-.3-.8.8-.3zM124.2 162.3l-.1-.8 1.5-.8.6.6 1.5-.8-4.3-3.9-1.5.8.8 5.8 1.5-.9zm-.7-3.8 1.2 1.3-.9.5-.3-1.8zM131.3 157.9l-.7-1.1-2.1 1.3-2.2-3.4-1.4.9 3 4.6zM135 155.2l-.8-1.2-1.9 1.5-2.5-3.3-1.3 1 3.3 4.4zM139.1 152.1c1.2-1 1.2-2.5.5-3.3l-1.3 1c.2.5.3.9-.1 1.3-.6.5-1.3 0-1.7-.5-.5-.6-.7-1.3-.1-1.8.5-.4 1-.1 1.2.1l1.3-1c-1-1-2.1-1.1-3.3-.2-1.3 1-1.5 2.6-.4 4 1 1.1 2.6 1.5 3.9.4zM144.5 147.7l-.9-1.1-1.9 1.5-2.4-3.3-1.4 1 3.3 4.4zM146.8 146.4c1.4-.9 1.8-1.9 1-3.2l-1.7-2.9-1.4.9 1.5 2.6c.3.5.6 1.1 0 1.5-.7.4-1.1-.2-1.3-.7l-1.5-2.6-1.4.9 1.7 2.9c.6 1.2 1.7 1.4 3.1.6zM152 143.9c.9-.3 1.6-1.2 1.2-2.2-.3-.8-.8-1-1.4-1 .3-.3.5-.7.3-1.2s-.8-1.2-2.1-.7l-2.8 1 1.8 5.1 3-1zm-.4-1.8c.1.4-.1.6-.4.7l-.9.3-.3-1 1-.4c.3 0 .5.1.6.4zm-1.5-2c.3-.1.6-.1.7.2.1.3-.1.5-.4.6l-.8.3-.3-.8.8-.3z" class="st0"/><path d="m160.3 131.8-.3-.3h-.1c3-5.2 2.1-10.1 2.1-10.4-.1-.4-.3-1.3-1.2-2.1-1.1-1-2.9-1.4-5.3-1.1-2.6.3-4.5 1.2-5.2 2.6l-.1.1c-.2.4-.5 1.2-.4 2.3.1.8.4 1.8.6 2.6-1.5.2-2.9.4-4.2.9-1.3.5-2 1.1-2.2 1.9-.1.2-.1.5 0 .7 0 0-.3 4.3.2 8.3-6.3 2.8-9.9 6.2-9.9 6.2-13.8 12.8-24.8 13.2-26.1 13.2h-.1c-.1 0-11.6.2-26.1-13.2 0 0-3.5-3-9.5-5.7.6-4.2.3-9.3.2-9.6-.2-.8-.9-1.5-2.2-1.9-1.3-.5-2.7-.7-4.2-.9.3-.8.5-1.8.6-2.6.1-1.1-.1-1.8-.4-2.3 0-.1-.1-.1-.1-.2-.8-1.4-2.6-2.4-5.2-2.6-2.4-.2-4.2.1-5.3 1.1-.9.8-1.1 1.7-1.2 2.1 0 .2-.9 4.8 2.5 10.1 0 0-.1 0-.2.1 0 0-.1.1-.2.1-.2.1-.3.2-.4.4-.3.3-.7.9-1 1.6-.7 1.6-1.1 5 2 12.1l.1.2.2.1c.1 0 8.7 2.4 17.9 9.6 6.5 5.1 14.3 10.6 22.6 13l.7.2c1.1.3 2.3.6 3.5.7l.8.1c.1 0 .3 0 .5.1h.4c1.3.1 2.6.2 3.9.2.7 0 1.3 0 2-.1 1.7-.1 3.5-.3 5.3-.7 1.3-.3 2.2-.5 2.6-.7 7.6-2.2 15.6-6.9 22.5-13 9.1-8.1 17.7-9.5 17.8-9.5h.3l.1-.3c2.5-6.7 2.8-10.1 2.5-11.8.1-.5-.5-1.2-.8-1.6zm-9.1-11c.7-1.1 2.2-1.8 4.4-2 .4 0 .8-.1 1.2-.1 1.5 0 2.6.3 3.3 1 .7.6.8 1.3.9 1.5v.5c-.3 1.8-1.7 2.6-4.1 3l-.7-3.2-.5.1c-3.6 1-4.4.4-4.6.2-.3-.3.1-1 .1-1zm-.1 2.2c.9.4 2.4.3 4.4-.2l.5 2.2c-.8.1-1.7.2-2.7.3h-.1c-.2 0-.4 0-.6.1-.2 0-.5 0-.7.1h-.4c0-.1-.1-.3-.2-.5-.1-.3-.2-.7-.3-1.1-.1-.3-.2-.7-.2-1 .1 0 .2.1.3.1zm-6.1 5.6c.1-.5.7-.9 1.6-1.3 1.3-.5 2.7-.7 4.2-.9.2 0 .3 0 .5-.1.6-.1 1.1-.1 1.7-.2H153.7c.2 0 .4 0 .6-.1 1-.1 2-.2 2.9-.4.8-.1 1.5-.3 2.2-.6.5-.2.9-.4 1.3-.7.2-.2.5-.4.7-.6v.6c-.1 1.8-.6 4.2-2 6.6-.3-.2-.7-.3-1.2-.4-1.4-.4-3.9-.5-6.3-.6-1.7-.1-3.5-.1-4.8-.3-1.2-.2-1.6-.4-1.7-.5-.4-.1-.4-.3-.4-.5zm-.1 1.7v-.2c.7.3 1.9.5 3.4.6.7 0 1.4.1 2.2.1h1c2.3.1 4.7.2 6.1.5.4.1.7.2 1 .3.2.1.3.1.4.2.5.3.5.5.5.5 0 .2-.2.5-.8.8-.3.2-.7.3-1.2.5-.8.3-1.9.5-3.4.7-3.4.5-6.4 1.5-9 2.5-.2-2.4-.2-5-.2-6.5zm-78.8-7.5c0 .3-.1.6-.2 1s-.2.7-.3 1.1c-.1.2-.1.3-.2.5H65c-.2 0-.5 0-.7-.1-.2 0-.4 0-.6-.1h-.1c-1-.1-1.9-.2-2.7-.3l.5-2.2c2.1.5 3.5.6 4.4.2.2 0 .3 0 .3-.1zm-9.4-3.2c.9-.8 2.5-1.1 4.6-.9 2.2.2 3.8.9 4.4 2 .1.1.3.8.1 1.1-.2.2-1 .8-4.6-.2l-.5-.1-.7 3.2c-2.4-.4-3.9-1.2-4.1-3v-.5c0-.2.1-1 .8-1.6zm-.8 4.8c0-.2-.1-.4-.1-.6.2.2.4.4.6.5.4.3.8.5 1.3.7.6.3 1.4.5 2.1.6.9.2 1.9.3 2.9.4.2 0 .4 0 .6.1H64c.6 0 1.1.1 1.7.2.2 0 .3 0 .5.1 1.5.2 2.9.4 4.2.9.9.4 1.5.8 1.6 1.3.1.2 0 .4-.1.6-.1.1-.6.3-1.7.5-1.3.2-3.1.2-4.8.3-2.4.1-4.9.2-6.3.6-.3.1-.5.2-.8.3-1.5-2.5-2.2-4.8-2.4-6.5zm1.5 8.1v-.2c.1-.1.3-.3.5-.4.1-.1.3-.1.4-.2.1-.1.3-.1.5-.2.1 0 .3-.1.5-.1 1.3-.4 3.7-.5 6.1-.5.5 0 1 0 1.5-.1.8 0 1.5-.1 2.1-.1 1.3-.1 2.4-.3 3-.6v.2c0 1.6.1 4.5-.3 7.2-2.7-1.2-5.8-2.3-9.4-3-1-.2-1.8-.4-2.4-.6-.2-.1-.4-.1-.6-.2-1.9-.7-1.9-1.1-1.9-1.2zM158 144.9c-1.6.3-9.5 2.2-18 9.7-6.8 6-14.7 10.6-22.2 12.8-.4.1-1.3.4-2.5.6-1.7.4-3.4.6-5.1.7-1.9.1-3.9.1-5.8-.2h-.4c-.1 0-.3 0-.4-.1l-.8-.1c-.9-.1-1.8-.3-2.7-.6l-.6-.2c-8.4-2.3-16.3-7.9-22.9-13-8.5-6.6-16.6-9.2-18-9.7-3-7.2-2.4-10.2-1.8-11.3 0-.1.1-.1.1-.2.2.2.4.4.8.6.2.1.5.3.8.4.8.3 2.1.7 3.8 1.1 2.2.5 4.2 1.1 6 1.7.7.3 1.4.5 2.1.8.6.2 1.2.5 1.8.8 6 2.7 9.4 5.6 9.4 5.6 14.7 13.6 26.2 13.5 26.7 13.5h.1c1.3 0 12.6-.4 26.7-13.4 0 0 3.4-3.3 9.4-6 .1-.1.3-.1.5-.2.5-.2 1-.4 1.6-.6 2.3-.9 4.9-1.6 7.9-2.1 2-.3 3.4-.7 4.3-1.1.3-.1.6-.3.8-.4.4-.2.6-.4.8-.6 0 .1.1.2.1.3.1 1.2 0 4.4-2.5 11.2z" class="st0"/><path d="M107.4 133.4c.6-1.1-.4-2.1-.4-1.9.1.3-.5.4-.5.4-.6.1-1.9-.3-1.9-.3-4.4-.8-3 4.7-2.7 5.9.2.7-.3 2.3-2.8 2.1-1.9-.2-2 .8-2 .8.9-.7 1.5-.2 1.5-.2-1 .1-1.3 1.2-1.3 1.2 1-.9 1.9-.3 1.9-.3-.8.2-.8 1.3-.8 1.3.6-.8 1.2-.4 1.2-.4s1.2.5 1.5-.8c.1-.4.8.2.8.2-.1-.5.1-1 .2-1.2.1-.2.9.6.9.6.4-.4.2-.9.2-1 0-.2-.3-.9-.1-1.3.6-.8 1.4.6 1.4.6.2-1.1-.9-3.2-1-3.3-.5-.6-.7-2 1.5-.3.8.7 1.8.3 1.8.3-.3-1.1.6-2.4.6-2.4zM104.6 121.2s.4.5 0 1.2c0 0 1.2.3 1.8-.3 0 0-.3.8.2 1.7 0 0 .9-.5 1.1-1.1 0 0 .4.1.7.8.3.7.6.8.6.8s0-1 .7-1.2c0 0 .8 1 1.9.6 0 0-1.8-1 0-1.4 0 0-1.3-.4-1.2-1 0 0-.7 1.1-2.2.8 0 0 .4-.5.2-1.1 0 0-1.2.7-2.2.2 0 0 0-1.1.7-1.5 0 0-1.6-.2-2.1.3 0 0-.3-.7.2-1.3 0 0-1.5.5-1.9 2.9-.1.1 1 .2 1.5-.4z" class="st0"/><path d="M94.7 127.2s-1.4 1.1-.3 2.3c0 0 .1-1.5 1-1.1 0 0-1.5 1.1 0 2 0 0-.1-1.5 1.1-1.2.7.2 1.2-.7 1.2-.7s.8-.5 1.3.2c.5.8 1.2.9 1.3 1 0 0-.5-.7 0-1 0 0 .8.8 1.4.8 0 0-.7-.8 0-.9 0 0 .4 0 .5.4.1.5 1.3.7 1.4.7 0 0-.7-.6-.3-1.2v-.1c.4-.6.8-.4.8-.4 1.5-.4 1.4-2 1.4-2.4.1 0 .2.1.2.2.2.5.3 1.7-1.4 2.7 0 0 .1 1.4 2.4 2.4 0 0-.3-1.8 1.1.8 0 0 .5 1-.1 2-.5 1-1.1 2.7.8 3.8 1.9 1.2 3.1 2.5 2.2 5.9 0 0-.6 1.2-1.8.9s-1.7-.8-2.7.5c0 0 1.2-.6 1.9.2 0 0-1.4-.4-1.9 1.4 0 0 1.4-.8 2-.2 0 0-.8.2-.8 1.2 0 0 .8-.6 1.4-.3 1 .4 1.2-.2 1.5-.7.3-.5 1 .2 2 0 0 0-1.4-1.1-.6-1.6.5-.3 1.4.3 1.8-.2 0 0-1.8-.7-.9-1.9.4-.5 1.1.1 1.5-.2 0 0-1.2-.4-1-1.5.1-.7.4-.6.6-.5.2.1.7.2 1 0 0 0-.5-.1-.6-.7-.1-.6 0-1.4-.7-1.9-.4-.3-.7-.3-.7-1.3 0-1.2.5-1.3.8-1.4.3 0 1-.1 1.4-.4 0 0 2.6-1.6 1.2-4.9-1.4-3.3-2.1-3.5-1.9-6.1.2-2.6.8-3.8 1.4-4.7.4-.7 1.3-1.2 1.9-1.3 0 0 1.5-.3 1.3 1.5 0 0 0 .5-.9 1.2-.9.8-1.2 1.6-1.2 1.6s1-.7 1.2-.5c.2.2.1.5-.3 1-.4.4-.9 1.4-.8 2.2 0 0 .3-.5.7-.5 0 0-.2 1.6.8 2.2 0 0-.3-1.8.4-2.8.5-.7 1.7-3 1-4.6 0 0 0-2.1-1.3-2.3 0 0 .2.4.1.3-.1-.1-4.1-.4-4.9 5.9 0 .3-.2 1.2-.2 1.2s-.1 1.6-1.1.4c0 0-.1 1.3 1.2 2.1 1.3.9-1.2.8-1.7-.1 0 0 0 1 1.3 1.6 1.3.5 1.1 1.2-1 .7 0 0 .6.9 2.3.9 1.7 0 1.8 2.6 1.2 3.2-.9.8-1.4.7-1.8.6-.5-.1-.7 0-.7 0s-1-1-1.2-1.9c-.1-.7-1.5-1.9-1.5-1.9s-.8-1-.5-3c.3-2 .4-2.6.3-2.9 0 0-.5-.1-.7-.4 0 0-.3.8-.3 1.3 0 0-1-.2-1.4-1-.3-.8-.6-.6-.6-.6s-.6.8-1.3 1c0 0-.3-.1-.3-.9v-.8s-1.1.3-1.8 0c0 0 .2-.5 0-.8 0 0-.5.3-1.5.1 0 0-.2-.9.7-2.3 0 0 .1-.4-.4-1.3-.5-.8-1.3-2.6-.6-3.8.5-.8.3-1.9-.4-2.3-.6-.4-1-.4-1.9-.1 0 0 1.2-.1 1.2.9 0 0-1.3-1.3-2.4 0 0 0 1.5-.2 1.2 1 0 0-1.1-1.5-2.2.3 0 0 1.5-.2 1.5 1.1-.1.9 1.1 1.2 1.1 1.2s.3 2.6-1.2 2.5c0 0 .9.6 1.3.5 0 0 .1 1-.8 1.1 0 0 .5.5 1.2.5 0 0 .1.3-.3.5-.5.3-.5 1.1-.5 1.2 0 0 .5-.4 1.3 0s1.8.1 2 0c0 0 .2-.1.4-.1-.1.1-.2.3-.4.6-.3.4-.7.9-1.1 1.4-1.1 1.1-3 2.2-5.8.9-.7-.3-1.9-.4-2.4.1s-.7 1.1-.2 1.8c.2.6.2-.5 1.1-.3z" class="st0"/><path d="M107.8 119.5c-.9.4-.8 1.3-.8 1.3 1.4-.1 1.7-.7 1.7-.7.8.2.3 1.3.2 1.4h.2c.3 0 .9-.3 1.5-1.1 0 .2.2 1.5 2.2 1.4 0 0-1.3-.6-1-1.4v-.1c.8.8 1.9-.2 1.9-.2-1.1 0-1.2-.6-1.2-.9 1.3.8 2-.5 1.8-.7 0 0-2.3.9-.4-3.2.2-.5.9-1.3.2-2s-1-1.9-.2-2.5c0 0-.9-.4-2.1.4-.6.4-1.1.2-1.1.2s-1-.5-1.9-.1c-.7.3-.9.7-1 .9-.5-.2-1.4.4-1.5.4-.1 0 0 .4-.1.6-.1.2-.2.9.7.9.9-.1 1.5-.3 1.5-.3s.2.2.3.7c.1.6.4 1.5-.8 1.6l.3.3c.3.2 1.3.2 1.4-.4.2-.5.5-.6.5-.6s.5 1.4-1.5 1.6-3.2.9-3.6 2.4c2.4-.6 2.8.1 2.8.1zm1.9-6.9c-.4.3-.8.2-1.3-.3.5-.6 1.2-.8 2.2-.1 0 0-.5.1-.9.4zM88.3 98.9l-3.2-5.4-3.3 5.5 3.3 6.2zM134.7 98.9l-3.3-5.4-3.3 5.5 3.4 6.2z" class="st0"/><path d="M107.6 152.8h.4c18.8-3.7 33.7-20.6 33.9-38.5V70H126c1-.4 1.8-1.4 1.8-2.6 0-1.5-1.2-2.8-2.8-2.8h-3.9c-1.6-.2-1.9-1.8-1.9-1.8-1.9 2-3.8-1.1-3.8-1.1l-3.3 1.1-.8-1.5c.4-.8.9-1.6 1.4-2 .9-.8 1.2-.9 1.2-.9-.4-.9-.6-1.7-.6-2 .1-.1.8-.4 1.5-.7l.9-.3h.5l-.4-.4c.1 0 .3.2.4.2.2.1.4.2.6.2.2 0 .5 0 .4-.2.1 0 .3.1.4.1h.4c.1-.1.2-.1.3-.2.1-.1.2-.1.3-.2 0-.1.1-.1.1-.2s0-.2-.1-.2c-.2-.2-.4-.2-.6-.3l-.7-.2c-.2-.1-.3-.1-.5-.2-.5-.2 0 0 .2 0h.5c.2 0 .3-.1.5-.1l.5-.2s-.5.2-1.6-.6c-.4-.3-.6-.7-.9-1-.6-.7-1.2-1.4-1.9-2-.7-.6-1.4-1.2-2.2-1.6-.7-.4-1.5-.7-2.4-.7h-.1c0-.1-.2-1.7.7-3.7.5-1.1.6-2.2.1-3.1-.4-.7-1-1.1-1.7-1.3-.1 0-1.3-.2-2.7.8l-1.2.6c1.2-1.4 3.8-2.8 4.3-2.9v-.1c-.1 0-1.8.1-2.9.8.2-.4.4-1.1.2-2.2v-.1h-.1s-2.6.6-2.6 4.2c0 0 0 .5-.2 1.1-.3.2-.4.4-.4.4.1-.1.2-.1.3-.1-.1.2-.2.5-.4.7-.6.8-1.1 2.2-1.1 3.4v.1l.1-.1s1-.7 1.2-1.6c.1-.4.4-.7.5-.9.1.4.2 1.3.2 1.5v.1h.1c.2-.2 1-1.3.2-2.8-.1-.2-.1-.5-.1-.8 1.3-.3 2.2.2 2.6.4.2.2.4.4.5.7.2.6.1 1.3-.3 2-.3.7-.7 1.2-1 1.7-.8 1.3-1.4 2.2-1.2 4.2.3 2.3 1.8 3.4 2.7 3.8.5.5.8 1.3 1 1.7.3.6 0 .5 0 .5-1.7.1-2.3-.8-3.5-1.3-.3-.1-.6-.2-.9-.2-.7-.3-1.7-.3-2.6 0-1.7.5-2.8 1.9-2.4 3.1.1.4.4.8.9 1 .4.2.9.3 1.5.3.4 0 .9-.1 1.4-.2 1.4-.5 2.4-1.5 2.5-2.5.6.2 2.3 1.5 3.6 2 1.4.6 1.9-1 1.9-1 .4.7-.6 3-1.2 4.3l-.6.4-.3-1.5-1.4 1.9c-.5-.2-2-2-2-2-.2 1.9-.8 2.4-1 2.5l-3.3-2.2c0 1.5-1.5 2.4-2.3 2.4l-2.2-1.1c.2 1.6-1.1 1.9-1.5 1.9H91c-1.5 0-2.8 1.2-2.8 2.8 0 1.2.7 2.2 1.8 2.6H73.7v44.3c.2 18.1 15.1 35 33.9 38.7zm15.1-87h.1c1.8-.4 3 .2 3 .2.6.3.8.7.7 1.1-.1.8-1.2 1.7-1.3 1.2-.2-1.1-1.4-1.6-1.4-1.6s-1.6-.8-1.1-.9zm2.7 11.8c0-.1.1-.3.1-.4-.6-1.1-1.1-2-1.3-2.3l-.2-.2c-.3-.4-.5-.6-.3-.7.1-.1.3 0 .5 0 0 0 .7.4 1.5 1.8.1.1.1.2.2.4.5-1.1 1.1-1.8 1.8-1.8s1.3.7 1.8 1.8c.1-.2.2-.4.3-.5.8-1.4 1.5-1.8 1.5-1.8.1-.1.3-.2.5 0 .1.2 0 .3-.3.7l-.2.2c-.3.3-.8 1.2-1.4 2.4.1.1.1.1.2.3 3.2-.6 5.7-.5 5.9.3.2.6-1.6 1.5-3.2 2.4 1.6.9 3.4 1.8 3.2 2.4-.3.9-2.6 1-5.8.4l-.1.7v.2l.2.3s.9 1.6 1.5 2.2c.2.2.1.3.1.3 0 .1-.1.1-.2.1s-.3-.1-.6-.2c-.2-.1-.6-.7-1.2-1.7-.1.2-.1.5-.2.7-.5 1.3-1.1 2-1.9 2-.8 0-1.6-1-2-2.6-.5.9-.9 1.5-1.1 1.6-.3.2-.5.2-.6.2-.1 0-.1 0-.2-.1 0 0-.1-.2.1-.3.6-.7 1.5-2.2 1.5-2.3 0 0 .1-.1.1-.3 0 0-.1-.7-.1-.9-3.1.6-5.5.5-5.7-.4-.2-.6 1.4-1.6 3.1-2.5-.5-.2-.9-.5-1.3-.7-1.1-.6-1.9-1.2-1.8-1.6-.1-.6 2.3-.7 5.6-.1zm-18.3-37.1s.4-.6 1.5 0c0 0-.4.8-1.5 0zm.6 8.1c0 3.7 3.4 5 3.5 5.1-.1-.1-.2-.3-.2-.4.4.2.8.4 1.2.5.2.1.4.1.6.2h.1c-.1-.1-.2-.3-.2-.4.3.2.6.3.9.3.1 0 .3 0 .4-.1l.2-.1c.1 0 .2-.1.3-.1 0 .1-.1.2-.1.3l-.2.2c-.2.1-.4.2-.6.2-.1 0-.2 0-.3-.1-.1.1-.3.1-.5.1s-.5 0-.7-.1c-.2-.1-.3-.1-.5-.2-1 .1-4.9-1.3-3.9-5.4zm1.6 16.1c3-1.1 6.7.5 6.7.5 1.2.5 1.9 1 2.5 1.5l.4.4c.4.4 1.1 1 1.7 1.1.5.1-.4 1.1-1.8.4-.1-.1-.3-.2-.5-.4-1.4-1.1-2.6-1.1-2.6-1.1-1.3-.1-1 .7-1 .7.7 1.4-1.1 1-2 0-1.4-1.5-2.7-2-3.5-2.4-.9-.3-.3-.6.1-.7zm.5 21c.1.1.4.7-.1 1.9 0 0-1.6.9-3.9.1 0-.1 0-1.7-.1-2-.1-.3-1-.9-1-.9 0-.1-.9-5.6-.2-7.8 0 0 0-1.8.6-2 .4-.1.3 1.9.3 1.9v2.3c-.8.6-.2.7-.2.7 2.5-.4 3.8-.5 4.4-.4h.2c.4.1.4.3.4.3s.1.5-1.7.8c0 0-1 .2-1.2.6-.2.4-.3 1.7.2 2.5 0 0 .3-.1.2-.5-.1-.4 0-1.4.3-1.6.3-.3 2.9-.6 2.9-1.3 0 0-.3-1.2.3-2.5.5-.9 1.1.3 1 1.9 0 0-.1 2.5-.1 3s-.3 2.1-2 2.4c0 0-.6.2-.7.5-.1 0 .3 0 .4.1zm-2.7-7.8c0 .5 0 .8-.1 1-.4 0-.7.1-1 .1-.2-.9-.2-2-.2-2l.1-1.9c0-.1 0-1.2.6-1.2.5 0 .5 1.3.5 1.3s0 1.4.1 2.7zm2.3-1.7c0-.9 0-2.1.6-2.1.4 0 .4.8.4 1.3v2.1c-.2.3-.3 1.2-.3 1.4-.2-.1-.4-.1-.7-.1-.1-.2 0-1.7 0-2.6zm-1.2-4.4c-.1 0 0 0 0 0zm-.1 1.4h.1c.8.2.7 4.9.5 5.5-.3 0-.6 0-.9.1-.1-.2-.1-.4-.1-.7 0-.5 0-3.6.1-4.3-.1-.5.2-.6.3-.6zm-9.6-8.1c2.7-1 6 .5 6 .5 2.7 1.2 3.1 2.5 3.1 2.5s.4 1.4-1.1.3c-1.2-.9-2.1-.7-2.1-.7-.9 0-1.1 2.2-3 .3-1.3-1.3-2.5-1.8-3.2-2.2-.7-.4-.1-.5.3-.7zm-7.6.9c1.2-.8 2.7-.3 3.3.6 1.3 1.9 3 2.2 2.2 2.3-.5.1-2-.4-2.7-1-.9-.8-2.3-.2-1.3.6.1.1-.1.2-.3.2-1.9 0-2.5-1.8-1.2-2.7zM80.6 78c.3-.9 2.7-1 6-.3 0-.1.1-.3.1-.4-.6-1.1-1.1-2-1.3-2.3l-.2-.2c-.3-.4-.5-.6-.3-.7.1-.1.3 0 .5 0 0 0 .7.4 1.5 1.8.1.1.1.2.2.4.5-1.1 1.1-1.8 1.8-1.8s1.3.7 1.8 1.8c.1-.2.2-.4.3-.5.8-1.4 1.5-1.8 1.5-1.8.1-.1.3-.2.5 0 .1.2 0 .3-.3.7l-.2.2c-.3.3-.8 1.2-1.4 2.4.1.1.1.1.2.3 3.2-.6 5.7-.5 5.9.3.2.6-1.6 1.5-3.2 2.4 1.6.9 3.4 1.8 3.2 2.4-.3.9-2.6 1-5.8.4l-.1.7v.2l.2.3s.9 1.6 1.5 2.2c.2.2.1.3.1.3 0 .1-.1.1-.2.1s-.3-.1-.6-.2c-.2-.1-.6-.7-1.2-1.7-.1.2-.1.5-.2.7-.5 1.3-1.1 2-1.9 2-.8 0-1.6-1-2-2.6-.5.9-.9 1.5-1.1 1.6-.3.2-.5.2-.6.2-.1 0-.1 0-.2-.1 0 0-.1-.2.1-.3.6-.7 1.5-2.2 1.5-2.3 0 0 .1-.1.1-.3 0 0-.1-.7-.1-.9-3.1.6-5.5.5-5.7-.4-.2-.6 1.4-1.6 3.1-2.5-.5-.2-.9-.5-1.3-.7-1.5-.4-2.4-1-2.2-1.4zm-3.8 42.2c-.1-.3-.1-.7-.2-1 0-.2 0-.3-.1-.5-.1-.4-.1-.8-.2-1.2v-.3c0-.4-.1-.9-.1-1.3v-.1c0-.5 0-1-.1-1.5V90.5h63.4V116c0 .4-.1.8-.1 1.2 0 .2 0 .3-.1.5 0 .3-.1.6-.1.8 0 .3-.1.6-.2 1 0 .2-.1.3-.1.5-.1.5-.2 1.1-.4 1.6h-1.7v-4.9h-4.5v-4H128V108h-3.9v-4.2h-4.2v-3.6h-4.4l-.1-4.7H111l-2.7-3.6-2.3 3.6h-4.9v4.4h-5.2v4.2h-4.5v4H87v4.5h-4.5v3.9h-3.2v4.1h-2.2c-.2-.1-.2-.2-.3-.4zm8.4 16.7c-.1-.1-.2-.2-.2-.3-.7-.8-1.3-1.6-1.9-2.5-.1-.1-.1-.2-.2-.3-.2-.3-.4-.6-.6-.8 0 0 0-.1-.1-.1-.6-.9-1.2-1.9-1.7-2.8 0-.1-.1-.1-.1-.2-.5-1-1-2-1.5-3.1H83v-4.4h4.2v-4.5H92v-4.5h4.4V109h4.7v-4.5h4.5v-4.2h5v4.4h4v4.4h4.3v4.4h4.4v4.3h4.3v4.6h5.5v5.1h3.5c-.2.3-.3.7-.5 1v.1c-.5 1-1 2-1.6 2.9 0 0 0 .1-.1.1l-.6.9c-.6.9-1.3 1.9-1.9 2.7l-.2.2-2 2.4c-.1.1-.1.2-.2.2-.2.2-.4.5-.6.7l-.3.3c-.7.7-1.4 1.3-2.1 2-.2.1-.3.3-.5.4-.2.2-.4.3-.6.5-.2.1-.4.3-.5.4-.3.2-.5.4-.8.6-.3.2-.5.4-.8.6-.2.1-.4.3-.5.4-.2.2-.5.3-.7.5-.2.1-.4.2-.5.3-.3.2-.7.4-1 .6-.2.1-.3.2-.5.3-.3.2-.6.4-1 .5-.2.1-.3.2-.5.3-.3.2-.6.3-.9.5-.1.1-.3.1-.4.2-.4.2-.9.4-1.3.6-.1.1-.2.1-.3.1-.3.1-.7.3-1 .4-.1.1-.3.1-.4.2-.4.1-.7.3-1.1.4-.1 0-.2.1-.3.1-.5.2-.9.3-1.4.5-.1 0-.3.1-.4.1-.4.1-.7.2-1.1.3-.1 0-.3.1-.4.1l-1.5.3-1.5-.3c-.1 0-.3-.1-.4-.1-.4-.1-.7-.2-1.1-.3-.1 0-.3-.1-.4-.1-.5-.1-.9-.3-1.4-.5-.1 0-.1 0-.2-.1-.4-.1-.8-.3-1.2-.5-.1-.1-.3-.1-.4-.2-.3-.1-.7-.3-1-.4-.1-.1-.3-.1-.4-.2-.4-.2-.9-.4-1.3-.6-.1-.1-.2-.1-.3-.2-.3-.2-.7-.3-1-.5-.2-.1-.3-.2-.5-.3-.3-.2-.6-.3-.8-.5-.2-.1-.3-.2-.5-.3-.4-.2-.8-.5-1.2-.7-.2-.1-.3-.2-.5-.3-.2-.2-.5-.3-.7-.5-.2-.1-.4-.3-.5-.4-.2-.2-.4-.3-.7-.5-.2-.1-.4-.3-.5-.4-.3-.3-.7-.5-1-.8-.2-.2-.4-.3-.6-.5-.2-.1-.3-.3-.5-.4-.2-.2-.4-.4-.6-.5l-.4-.4c-.4-.4-.9-.8-1.3-1.2l-.2-.2c-.2-.2-.4-.4-.6-.7l-.3-.3c-.5.1-.7-.1-.9-.4z" class="st0"/><path d="M90.4 83.5c0-.2.1-.5.1-.5-.6-.1-1.1-.3-1.7-.4-.6.2-1.2.3-1.8.4 0 0 0 .3.1.5.2.1 1.5.5 3.3 0zM90 77.1c0-.1 0-.2-.1-.2-.3-1-.8-1.4-1.2-1.4-.4 0-.9.4-1.2 1.4 0 .1-.1.2-.1.3 1.1-.5 2-.3 2.6-.1zM87.1 84c.1.6.1.6.3.9.2.1 1.2.4 2.7 0 .1-.2.2-.6.2-.9-.6.2-1.2.2-1.7.2-.7 0-1.2-.1-1.5-.2zM126.4 85.5c.1.3.3.6.4.7.7.2.8.2 1.6 0 .2-.2.2-.4.4-.8-.5.1-.8.1-1.2.1-.5.1-1 .1-1.2 0zM87.6 85.5c.1.3.3.6.4.7.7.2.8.2 1.6 0 .2-.2.2-.4.4-.8-.5.1-.8.1-1.2.1-.5.1-1 .1-1.2 0zM129.2 83.5c0-.2.1-.5.1-.5-.6-.1-1.1-.3-1.7-.4-.6.2-1.2.3-1.8.4 0 0 0 .3.1.5.2.1 1.5.5 3.3 0zM125.9 84c.1.6.1.6.3.9.2.1 1.2.4 2.7 0 .1-.2.2-.6.2-.9-.6.2-1.2.2-1.7.2-.6 0-1.1-.1-1.5-.2zM128.8 77.1c0-.1 0-.2-.1-.2-.3-1-.8-1.4-1.2-1.4-.4 0-.9.4-1.2 1.4 0 .1-.1.2-.1.3 1.1-.5 2.1-.3 2.6-.1z" class="st0"/></svg>